<?xml version="1.0" encoding="UTF-8"?>
<svg width="24px" height="24px" viewBox="0 0 24 24" version="1.1" xmlns="http://www.w3.org/2000/svg" xmlns:xlink="http://www.w3.org/1999/xlink">
    <!-- Generator: Sketch 55 (78076) - https://sketchapp.com -->
    <title>Path</title>
    <desc>Created with Sketch.</desc>
    <g id="Page-1" stroke="none" stroke-width="1" fill="none" fill-rule="evenodd">
        <g id="Desktop-HD-Copy" transform="translate(-1272.000000, -190.000000)" fill="#FF00FF" fill-rule="nonzero">
            <path d="M1295.48571,190.514286 C1294.8,189.828571 1293.77143,189.828571 1293.08571,190.514286 L1284,199.6 L1274.91429,190.514286 C1274.22857,189.828571 1273.2,189.828571 1272.51429,190.514286 C1271.82857,191.2 1271.82857,192.228571 1272.51429,192.914286 L1281.6,202 L1272.51429,211.085714 C1271.82857,211.771429 1271.82857,212.8 1272.51429,213.485714 C1272.85714,213.828571 1273.2,214 1273.71429,214 C1274.22857,214 1274.57143,213.828571 1274.91429,213.485714 L1284,204.4 L1293.08571,213.485714 C1293.42857,213.828571 1293.94286,214 1294.28571,214 C1294.62857,214 1295.14286,213.828571 1295.48571,213.485714 C1296.17143,212.8 1296.17143,211.771429 1295.48571,211.085714 L1286.4,202 L1295.48571,192.914286 C1296.17143,192.228571 1296.17143,191.2 1295.48571,190.514286 Z" id="Path"></path>
        </g>
    </g>
</svg>