<svg width="227" height="76" xmlns="http://www.w3.org/2000/svg"><path d="M36.607 8.856c0 .128-.042.255-.085.298.043-.043.128-.043.255 0 .128.043.213.085.256.085l-.426-.383zm3.828 4.513l-.213.213.085.085.213-.213-.085-.085zm-4.848-4.811l-.298.085v.128l.34-.085-.042-.128zm-11.824-1.15h-.212v.17h.212v-.17zm-4.55.852h-.298v.17h.298v-.17zM31.63 22.438l-.127.043.127.383h.128l-.128-.426zm-.595-.34l-.128.042.17.383h.128l-.17-.426zM15.13 13.794l-.213.085v.128l.256-.085-.043-.128zm38.276-1.788c-.17-.17-.255-.256-.297-.213-.213-.34-.34-.596-.34-.81-.34-.127-.554-.255-.596-.34.383-.213.553-.468.553-.766 0-.128-.34-.468-.978-1.107-.638-.639-1.064-.937-1.191-.98v.256c-.085.128-.425-.809-.766-.851-.085 0-.468.085-1.105.255-.638.17-1.021.255-1.064.255-.127 0-.17-.042-.127-.17 0 .128.042.213.17.298l-.128.128a.322.322 0 0 0-.17-.085c-.17 0-.468.681-.595.681-.128 0 0-.085-.17-.085-.213 0-.34.085-.383.298-.085.34-.128.553-.17.596-.043-.043-.128-.043-.255.085-.128-.128-.17-.213-.17-.298 0 .128-.043.213-.128.213-.893 0-1.574 0-1.956-.043-.213-.042-.596-.213-.723-.213-.128 0-.34.17-.468.17-.213 0-.553-.042-1.021-.17a.607.607 0 0 1-.255.511.386.386 0 0 1-.298-.127c0-.17.213-.256.255-.384-.638-.127-1.063-.17-1.276-.17-.127 0-.382.17-.51.17-.17 0-.128-.17-.255-.17-.043 0-.17.085-.34.256l-.213-.17c-.085.042-.17.084-.213.084-.042 0-.085-.042-.17-.127.085-.085.085-.17 0-.213-.17.34-.425.851-.723.851-.17 0-.255-.085-.255-.255a.52.52 0 0 1-.383.17c-.127 0-.34-.127-.595-.383.085.085 0 .128-.213.128-.17 0-.468-.34-.595-.34-.17 0-.17.17-.298.17-.17 0-.17-.17-.34-.17-.128 0-.425.17-.553.17-.17 0-1.233-.554-1.446-.597-.723-.212-1.701-.298-2.977-.298-.128-.127-.213-.17-.213-.17-.808 0-1.403-.043-1.786-.085-.213-.085-.34-.17-.383-.213a4.005 4.005 0 0 0-1.275-.213c-.17 0-.256.256-.426.256-.68 0-.935 0-.723-.043-.553.085-.723.128-.595.128-.128 0-.213-.043-.34-.128.042-.043.042-.128.042-.255 0 .212-.085.298-.298.298a.609.609 0 0 1-.425-.17c.085.042.085.127.043.212-.085.128-.128.213-.128.256-.042.042-.128.042-.255 0-.128 0-.255 0-.298.042-.042-.042-.085-.085-.042-.128.212-.127.382-.212.425-.34-.128-.085-.17-.128-.213-.128l-.51.511a.819.819 0 0 1-.17-.51h-.298a17.99 17.99 0 0 1-1.999.723c0 .213-.17.34-.553.34V8.9c.085 0 .17.042.256.17l-.213.213a.325.325 0 0 0-.213-.085c0 .042.085.383.085.425.34-.042.426.341.468.341h.34c.043.17.043.34 0 .468.298.384.51.682.68.894-.17.341-.297.597-.34.724 0 0 .17-.085.34-.085s.17.085.17.085l.171.17c-.128.213-.213.341-.255.384v.128c.298.255.51.425.68.553.17.34.298.596.34.809-.255.298-.51.468-.765.553.043.086.085.128.085.17-.085.129-.17.256-.213.299-.17-.085-.255-.213-.255-.34-.042.042-.17.084-.297.084-.128 0-.638-.34-.808-.34-.17 0-.298.085-.34.085 0 .255 0 .383-.043.426-.213-.043-.383-.085-.51-.085 0-.043.084-.086.212-.086-.042 0 0-.085.17-.213-.383-.212-.638-.383-.85-.468-.17.128-.34.256-.51.298a.927.927 0 0 1-.213.34c.127.129.127.171.085.214-.128 0-.213-.085-.213-.256-.213 0-.298.043-.34.085.042 0 .085.043.212.128-.297.128-.467.256-.51.298-.042-.042-.042-.128-.042-.34-.043.042-.128.085-.256.085-.042 0-.127-.085-.255-.213.17-.17.255-.298.255-.383l-.212-.17c-.808 0-1.361-.043-1.701-.086 0 .17 0 .298-.043.34-.042-.042-.042-.17-.042-.34-.34.17-.596.298-.723.426-.043-.043-.086-.17-.086-.34-1.148.17-1.616.255-1.403.255-.17 0-.383-.17-.383-.17.128.17.213.297.255.383l-.127.127c-.255-.127-.425-.17-.468-.17a1.396 1.396 0 0 0-.255.34c.042.043.042-.127.042-.425h-.382c-.128 0-.34.128-.638.426 0 0-.128-.17-.298-.17-.17 0-.723.34-.85.34-.128 0-.213-.17-.34-.17 0 0-.341.213-1.022.68a1.467 1.467 0 0 1-.765.214c-.17 0-.255-.085-.298-.085v.213c-.127 0-.255.212-.383.212-.17 0-.255-.17-.425-.17-.255 0-.468.17-.595.511-.34 0-.596.043-.766.128a5.825 5.825 0 0 1-1.106.596c-.552.553-1.02.937-1.318 1.192-.298.383-.723 1.575-.893 1.618.17-.128.298-.256.383-.298.085.042.17.085.212.128-.255.34-.425.68-.51.979-.213-.085-.298-.128-.34-.128.127.213.17.511.17.852 0 .51-.298 1.958-.298 2.64-.085.127-.127.212-.127.212.127 0 .17.043.17.17.042 0 .085-.042.212-.17.043.043.043.128.043.256.127-.128.213-.128.34 0-.042.128-.085.426-.085.894l.213-.17c.085.085.127.17.127.255-.382.128-.553.426-.553.852 0 .042 0 .17-.042.34v.298c0 .17.17.213.127.256-.127.042-.127.127-.085.34a.595.595 0 0 0 .17.341c.043-.298.086-.468.213-.51l.085.382c-.127.128-.212.256-.212.383 0-.042.042-.127.085-.17.127.17.212.256.212.298a1.26 1.26 0 0 0-.085.767c.128-.043.298 0 .426.212l-.17.17c0-.042.127.128.34.512v-.937c-.213-.383-.383-.596-.426-.639.17-.298.383-.936.553-1.234.085.127.128.17.128.212 0 .128-.128.426-.128.554.043 0 .085-.043.17-.085.043.213.043.426-.085.638a.322.322 0 0 1-.17-.085c0 .043.085.384.085.426.043-.042.128-.213.17-.255l.256.213c.085.298.17.468.255.51-.085.086-.17.086-.213.043.213.128.34.255.383.34v.214c-.298.17-.425.255-.383.255-.128 0-.213-.043-.213-.085 0 .128-.127.426-.127.553 0 .086.127.341.34.724.213.383.34.639.383.767.468.723.765 1.15.85 1.32l.085-.086c.043-.298.086-.51.128-.681.255.468.468.852.595 1.107-.127.17-.255.298-.34.34l.298.299c0-.043.042-.128.085-.17l.128.127c0 .17-.043.256-.17.256.552.127.765.383.637.766.17.128.298.34.426.596 0 0 .255-.085.425-.085.17 0 .298.042.425.17-.042-.042-.042-.128.043-.17.255.213.425.383.468.468-.085.128-.128.17-.128.213l.17-.17c-.042-.043-.042.085-.042.34h.34c0-.127.042-.17.127-.17.043 0 .383.298.936.852-.128.127-.213.255-.17.468.255.17.425.34.51.468-.042.043-.085.043-.212.043-.638-.639-.68-.937-.723-1.107l-.085.639c.467.383.808.766 1.063 1.107.127-.298.212-.426.255-.469.128.256.17.383.17.383 0-.085.043-.17.17-.298.17.213.298.384.34.511.383.128.638.256.766.384.383.468.638.723.766.766-.128-.128-.383-.511-.51-.639.127-.042.254-.042.34.085.17.213.255.298.255.298 0-.212.042-.34.127-.34.043.042.128.085.255.042-.935-1.021-1.658-1.745-2.169-2.128-.042-.043-.042-.17-.042-.341 0 0-.17.085-.34.085-.043 0-.256-.17-.553-.51-.383-.47-.596-.725-.68-.81-.17-.426-.426-.894-.724-1.405 0 .256-.042.511-.17.724h-.34c-.17-.298-.213-.51-.17-.639.042 0 .127.043.297.128.043-.043.128-.043.17-.085-.212 0-.34-.085-.382-.256-.043-.468-.213-.723-.51-.723v-.213l.085-.043c.34.128.467.213.34.213v-.298c-.298.043-.383-.468-.426-.809-.17 0-.297 0-.34-.043v-.553c0-.298.043-.426.085-.34-.382-.98-.553-1.533-.595-1.746v-3.066c-.34.043-.51.213-.51.511 0-.128.042-.043.085.298.042.213-.043.426-.17.681h-.213l-.213-.17c-.085.043-.17.085-.212.085l-.17-.17c.085-.213.042-.511-.17-.894-.17-.383-.256-.554-.256-.469 0-.17.298-.723.17-.723 0 .212-.085.212-.255 0 .128-.426.298-.596.51-.554-.127-.468-.17-.639-.17-.596-.127.128-.255.128-.34 0 0-.085.043-.17.128-.255a.322.322 0 0 0 .17.085c.17 0 .595-.98.723-1.15-.213.043-.34.128-.383.256-.042-.043-.042-.086 0-.128.043-.043-.17 0-.383-.17v-.256c.128-.085.255-.128.34-.17v-.298c-.17 0-.255-.043-.255-.128.128-.128.256-.213.298-.255.043.042.085.17.085.34.085-.042.128-.085.17-.128.043-.127.043-.212 0-.298.255-.298.426-.51.553-.723v-.554c-.127.17-.213.298-.255.426-.128-.298-.213-.511-.213-.554 0-.127.128-.34.128-.383.383-.213.68-.34.808-.426-.213 0-.255-.085-.128-.212.17.042.596-.128.638-.128-.127-.043-.212-.085-.17-.17.043-.17.085-.213.085-.17.255.042.425.042.553 0v.212c-.17.17-.255.298-.255.426.213-.128.468-.17.68-.17.128 0 .851-.682.979-.682.127 0 .212 0 .17.043-.085.128-.085.34-.043.553.213-.127.596-.298 1.191-.425.468-.128.808-.298.978-.554.043 0 .128.085.298.085.042 0 .34-.085.85-.298.553-.213.851-.298.936-.298.128 0 .213.043.17.085.128-.298.213-.468.255-.51.17.17.298.255.34.255.086 0 .383-.085.851-.298.468-.213.766-.298.808-.298.68 0 1.106.042 1.276.128-.085-.043 0-.213.213-.426.042.085 0 .213-.128.34h.383c-.128 0 .17-.085.893-.298.383-.085.808-.085 1.318.043-.17-.128-.127-.213.128-.256a.484.484 0 0 1 .128.341c0-.128.042-.17.127-.17.128 0 .043.213.213.213.127 0 1.106-.298 1.233-.298.213 0 .298.34.34.34.128 0 .596.128.723.128.17 0 .256-.298.298-.298l.34.383c.043 0 .256-.17.426-.17.127 0 .127.255.297.255.17 0 .298-.17.426-.17.17 0 .553.596.68.596.298 0 .51-.043.638-.085.383.298.68.426.936.468a.685.685 0 0 0 .382.128c0-.043.043-.128.086-.17.212.213.34.383.425.51 0-.127.042-.17.17-.17.213.256.34.383.298.383.17 0 .042-.085.17-.085 1.999 1.363 2.551 1.448 2.381 1.448.128 0 0-.085.17-.085.043 0 .34.127.851.426.128.383.298.638.51.723 0-.127 0-.213.043-.255l.213.17v-.766c-.17-.085-.256-.128-.256-.17.128-.256.043-.469-.297-.682-.213-.127-.298-.213-.34-.255 0-.213 0-.383-.043-.469-.043 0-.085.043-.213.17a.851.851 0 0 1-.085-.382c-.042-.426-.085-.64-.127-.682 0 .043 0 .128-.043.17-.042-.042-.085-.17-.042-.297-.426-.384-.766-.682-.979-.895-1.275-1.277-1.913-2.043-1.913-2.256 0-.043.17-.17.552-.34.468-.214.766-.341.894-.47.042 0 0 .171.17.171.042 0 .425-.128 1.105-.383.68-.255 1.191-.426 1.532-.468.042 0 .127 0 .212.042H31.844c.425-.042.893-.127.766-.255-.086-.043.085-.043.467-.085h2.084c.128 0 .51-.256.638-.256.17 0 .17.17.298.17.042 0 .34-.17.893-.51.17.298.34.468.468.51 0-.042.042-.127.127-.255.043.043 0 .34.17.34h1.149c.127 0 .978-.468 1.19-.595a.723.723 0 0 1 0 .425c.596-.468 1.021-.68 1.32-.68.127 0 .297.042.51.127-.128.34-.256.596-.298.766-.34 1.703-.553 2.385-.766 2.725-.085.383-.17.98-.255 1.874-.34 1.064-.638 2.299-.936 3.619a44.39 44.39 0 0 0-.255 1.745l-.255 1.022c-.893 5.407-1.616 9.112-2.169 11.155-.298 1.107-.85 1.916-1.744 2.385-.553.468-.765.809-.765 1.107-.213.127-.34.255-.34.298.127.127.17.213.17.298-.213.127-.34.255-.426.383.128.213.213.34.256.426l-.298.34c-.383-.042-.425.128-.553.298.17.34.255.426.255.298-.212.17-.468.256-.765.298-.128.213-.213.341-.256.469a.322.322 0 0 0-.17-.085c-.127 0-.553.383-.68.383-.128 0-.51-.085-.723-.085 0 .17-.043.255-.128.255a.546.546 0 0 0-.425-.17c.043.042.043.127.043.17 0 .213-.596.468-.638.468v.213l.765-.255c.17 0 .383.17.51.17.213 0 .298-.17.426-.17.042 0 .127 0 .212.042h.17c-.34.469-.85.426-1.19.426-.383.213-.68.34-.893.469-.426.042-.766.085-1.021.085-.383.127-.553.213-.425.213-.128 0-.34-.213-.468-.213-.17 0-.085.213-.213.213-.17 0-.127-.213-.298-.213-.127 0-.297.213-.425.213-.127 0-.085-.213-.255-.213-.17 0 0 .213-.128.213-.042 0-.34 0-.935-.043-.596-.043-1.063-.043-1.361-.043l-.17-.212-.128.085-.17-.17c-.128.127-.17.17-.213.17 0 0-.042-.043-.17-.128v-.213c.17-.17.255-.298.255-.426-.042 0-.127.17-.297.17-.128 0-.17-.255-.34-.255s-.298.468-.426.511c-.553-.383-1.02-.596-1.446-.724.34.298.638.469.893.469 0 .17-.042.255-.17.255-.127 0-.638-.17-.765-.17h-.298c0 .042 0 .127-.043.17-.212-.17-.297-.255-.255-.255-.17 0-.51.085-.638.085l-.255-.256c0 .128-.042.17-.127.17-.17 0-1.276-.51-1.446-.51-.128 0 0 .085-.17.085-.213 0-.34-.128-.34-.34a.325.325 0 0 1-.213.084c-.298 0-.68-.127-1.106-.383-.596-.383-.978-.596-1.148-.638-.426-.17-.851-.341-1.234-.554.043.17.085.298.128.383.17.043.51.298 1.02.681.51.384.894.597 1.149.597.17 0 .17-.086.297-.086.043 0 .17.086.34.298.043.213.043.384-.084.426.127 0 .255-.128.425-.128.042 0 .127.043.213.128a.325.325 0 0 0-.086.213c.128 0 .34-.17.383-.17.085.127.17.17.213.17 0-.213 0-.34-.043-.426.298.256.468.469.596.596.042 0 .042-.17.17-.17.17 0 0 .17.17.17.128 0 .255-.127.383-.425.042.127.085.255.085.34.468.043.468.043.935.554.256.298.426.425.51.425.128 0-.042-.17.128-.17.128 0 .043.17.213.17.128 0 .17-.085.34-.085-.212 0 .043.128.766.341-.043-.213-.34-.383-.808-.596a28.104 28.104 0 0 1-1.191-.511c.085-.085.17-.128.255-.128.128 0 .34.043.638.128.085.043.128.085.128.128.042-.043.297-.213.34-.256 0 .34.978.639 1.106.852-.128.085-.213.085-.34.042v.426c.467.128.722.213.765.256-.128-.128-.128-.213-.043-.256l.256.256v-.128a.857.857 0 0 1 .467-.128c.17 0 0 .256.128.256h.383c0-.043.042-.128.085-.17.042.127.212.255.468.34v.213c-.085.17-.256.255-.468.255-.17 0-.383-.255-.383-.255 0 .17.255.17.425.34-.297 0-.85-.085-.978-.085-.212 0-.34.085-.468.256-.127-.128-.212-.17-.297-.17v.51c.723-.085 1.573-.042 2.636.128.128.213.213.298.298.298.085 0 .128-.042.128-.085 0-.043.042-.085.085-.085.34 0 .553 0 .638.042.127-.042.255-.127.382-.17.34-.043.638-.043.894.085-.256.426-.468.724-.596.937-.17-.298-.298-.468-.34-.468a1.295 1.295 0 0 1-.34.34c-.128.469-.383.724-.723.681-.043.128-.085.213-.128.213-.042-.042-.17-.213-.212-.255.127.255.17.426.17.51l.382-.084c.128 0 .936-.511 1.064-.511.085 0 .127 0 .17.042.042.213.042.34.042.383.128-.127.213-.255.255-.34.043 0 .043.255.256.255.212 0 .467-.255.808-.724.467.128.808.213 1.02.213.34 0 .51-.127.51-.425h-.17c-.17-.043-.382.085-.382-.384-.383.128-.68.128-.936.043.043-.383.17-.554.383-.554.128 0 .17 0 .128.043 0 .256.042.383.085.383.127-.127.51-.17 1.105-.17.17 0 .298-.256.34-.256.128.128.213.256.213.299 0 .127 0 .17-.042.127-.17 0-.34.085-.468.256h.595c.255-.213.468-.383.68-.426.043.085.086.128.086.17.085-.213.17-.34.298-.383-.17 0-.256 0-.298.043-.043-.043-.043-.086-.043-.213.213-.17.596-.34 1.106-.554.128 0 .213 0 .255.043.596-.128 1.106-.213 1.574-.17 0-.17-.085-.17-.298 0-.042-.043-.085-.043-.042-.086.212-.213.297-.34.34-.34.17 0 .34.085.383.085-.256.383-.51.639-.723.681.382.128.638.256.723.383.808-.425 1.36-.766 1.7-.979.128-.085.256-.255.426-.553.128-.213.255-.299.383-.341-.17-.085-.255-.256-.213-.554.043-.34.17-.553.468-.68-.213 0-.383-.043-.51-.086.042-.043.085-.17.127-.213.043 0 .17 0 .298.043-.128-.043-.17-.128-.17-.256.042-.042.085-.213.17-.468.042-.17.17-.298.298-.426a.606.606 0 0 1-.085-.255c0-.298.382-.852.382-.98 0-.17 0-.298-.042-.425.212-.384.297-.554.212-.554l-.255-.213c.298-.213.51-.426.638-.553 0 .042 0 .042-.042.085a.387.387 0 0 1-.128-.298c0-.383.255-.639.766-.681-.043-.128 0-.426.127-.852.17-.639.255-1.022.298-1.15-.043.043-.383.256-.425.299.042.127 0 .255-.043.383-.085-.128-.17-.256-.213-.298.043-.043.085-.298.213-.682.043-.255.17-.383.298-.425-.128 0-.213-.043-.255-.085.085-.128.17-.17.212-.213-.127-.34 0-.596.383-.767-.043-.127-.085-.255-.085-.383 0-.34.51-1.235.51-1.405l-.17.17c-.042-.042-.085-.085-.042-.213.212-.723.382-1.234.553-1.575.127-1.064.212-1.703.297-1.916-.042-.042-.127-.042-.212.043-.043-.043-.043-.085-.043-.213.51-1.065.723-1.874.68-2.427.128 0 .17-.043.17-.128-.127-.128-.17-.213-.127-.298.085-.298.17-.553.213-.724.085-.17.212-.596.34-1.32.128-.638.298-1.064.553-1.277.127-.383.212-.724.255-.937-.128.128-.213.17-.34.17-.17 0-.17-.34-.17-.382l.212-.213.255.255c.043-.383.086-.638.043-.809.213-.383.383-.681.51-.894.128-.553.213-.894.34-1.022 0-.127 0-.255-.042-.34.085-.128.17-.17.213-.213.042-.256.042-.469.042-.596.383-.596.68-1.022.893-1.32.043-.043 0-.128-.085-.34.043-.129.17-.256.426-.341.042-.086 0-.341-.043-.724-.042-.213.085-.34.298-.383.042.042.085.17.085.34.042-.085.17-.34.34-.766.128-.298.213-.469.298-.469.127 0 0 .128.17.128s.17-.213.17-.213a.753.753 0 0 1 .298-.468c.425-.298.723-.468.85-.596.043-.128.043-.256.085-.298.043 0 .085.085.255.085.128 0 .638-.468.766-.468.17 0 .723.212.893.212.17 0 .34-.34.383-.34.298-.043.51-.043.638-.043l.212.298c.213-.213.68-.213 1.319-.042-.043.042.042.042.213.042.17 0 .297-.383.425-.383l.468.468c.127-.17.17-.298.212-.425zM31.25 30.23c-.426.213-.894.553-1.446 1.107-1.064 1.064-1.83 1.745-2.254 2.129-.043.127-.043.212-.086.212 0 0 0-.042.043-.085 0-.042-.043-.085-.128-.085-.127 0-.68.468-.893.596.043.043.255.043.638.043.085 0 .553-.256 1.446-.767 1.063-.638 1.957-1.703 2.68-3.15zm2.381 10.303c-.212-.085-.383-.085-.51.043.042 0 .085.128.085.383.17-.213.298-.34.425-.426zm-.425.81a.52.52 0 0 1-.383-.171c.128-.128.213-.17.255-.213-.297.256-.553.468-.68.639.383-.128.68-.213.808-.256zm-3.232 1.49l-.128.085.043.127.17-.042-.085-.17zm-.34.596c-.128 0-.256.127-.426.127-.042 0-.127 0-.255-.042h-.213l.213.213h.298c.17-.128.297-.256.382-.298zm3.912 4.257c-.042 0-.042-.17-.042-.468-.51.298-.85.426-.979.426.468-.043.723-.128.766-.17 0 .212-.085.425-.085.425.085 0 .213-.085.34-.213zm-8.08-4.343l-.298.128v.128l.34-.128-.042-.128zm4.465 5.408l-.042.127.382.213.043-.127-.383-.213zm-5.358-5.45c-.298.128-.468.255-.51.383.042 0 .17.085.297.213.085-.256.17-.468.213-.596zm-.638-.043h-.383v.17h.383v-.17zM.628 21.842H.5v.255h.128v-.255zm25.134 26.1c-.127 0-.255-.043-.297-.085v.383c0-.043.297-.256.297-.298zm-5.911-4.982a1.585 1.585 0 0 0-.51-.085h-.128c-.043-.043 0-.085 0-.085.212.17.383.298.51.34 0-.212.043-.255.128-.17zM4.795 28.1l-.127.043.085.298h.128l-.086-.34zm13.907 14.477l-.085.255.128.043.085-.255-.128-.043zm6.635 5.194c-.042 0-.085-.085-.085-.255-.468-.128-.85-.17-1.106-.213 0 .256-.042.383-.085.426-.042 0-.085-.043-.212-.128.042-.042.085-.128.085-.298-.128 0-.34.256-.51.256-.128 0-.213-.086-.213-.256-.34.34-.638.34-.936.34-.128.086-.213.128-.255.128.425.213.68.341.723.341.042 0 .085-.085.212-.213l.256.256h.382c0-.256 0-.426.043-.511.213.468.042.468.553.468.127 0 .425-.383.595-.383.425 0 .596 0 .553.042zm-2.85-1.107c-.042-.042-.212-.255-.255-.298 0 .17-.042.256-.127.298h.383zm-3.87-4.13a.765.765 0 0 1-.638-.298c0 .17-.042.256-.17.256-.17 0-.255-.085-.297-.213v.298c.467.085.808.128 1.02.17 0-.042.043-.127.085-.213zm-1.318-.638l-.085.085.213.213.085-.085-.213-.213zm1.914 2.256l-.085.086.383.298.127-.086-.425-.298zm-2.084-2.341c-.128 0-.128.085-.298.085-.127 0-.255-.34-.255-.34 0 .127-.085.17-.213.17-.085-.17-.212-.256-.34-.256 0 .043-.17.383-.17.426.553.17.978.298 1.276.34v-.425zm4.338 5.364l-.34.213.085.128.34-.213-.085-.128zm-5.742-5.28c-.085-.34-.127-.595-.17-.766a2.651 2.651 0 0 0-.51.384c.383.127.595.255.68.383zm3.36 3.833v.127l.553.17.043-.127-.596-.17zM21 47.43c0-.043-.128-.17-.128-.213h-.297v.34c.297 0 .425-.042.425-.127zm-2.211-1.703c.042-.043.042-.085.042-.213 0-.085 0-.128-.042-.128 0 0-.086.085-.256.213.128.085.213.128.256.128zm-4.338-4.726c-.128-.17-.17-.34-.213-.469-.978-.468-1.404-.723-1.318-.723-.128 0-.213.042-.256.085-.085-.17-.255-.298-.467-.426 0 0 .127.128.34.426h-.255c.212.383.467.638.68.766 0-.128.043-.298.17-.51.468.382.766.68.978.85h.34zm3.487 3.619c-.213 0-.34-.043-.383-.085l-.127.425c.34-.127.51-.213.51-.34zm-.595-.256c-.213-.085-.298-.213-.298-.34 0 .042-.085.085-.213.213a11.41 11.41 0 0 1-1.233-.852c.17.17.255.298.213.426 0-.043.042-.085.17-.085.085.127.127.212.127.298-.638.17-.893.255-.68.255.297.043.638.128.978.17.425.043.723.043.936-.085zm-6.21-5.62l-.085.085.298.298.085-.085-.298-.298zM19 46.452c-.893-.469-1.488-.682-1.786-.682.042 0 .17.128.34.384l.213-.17c.212.297.425.468.595.468H19zm-3.445-2.81c-.127.127-.297.17-.553.17-.127 0-.297-.383-.425-.426-.127.128-.212.298-.212.426.382.17.552.255.467.255h.553a.547.547 0 0 0 .17-.426zm1.276 1.83l-.127.043.085.213h.127l-.085-.256zm-1.914-.936c-.552-.341-.978-.554-1.233-.682.425.384.766.554 1.02.554.043 0 .128.042.213.128zm-7.4-7.409h-.17l.085.554h.17l-.085-.554zm-2.296-1.916h-.128l.085.383h.17l-.127-.383zm6.634 7.621c-.085-.085-.127-.212-.127-.425-.213.085-.383.127-.51.17.127 0 .51.255.637.255zm-1.446-1.15l-.085.129.766.553.085-.128-.766-.553zm-1.871-1.617c0-.043-.128-.128-.34-.34 0 .042.085.383.085.425.042 0 .127-.042.255-.085zm.468.426l-.213.085v.128l.255-.128-.042-.085zM51.407 9.92l-.127-.128.085-.085.127.127-.085.085zM48.005 8.26c-.298.213-.468.298-.595.255.127-.255.255-.383.382-.383.085.043.17.085.213.128zm-4.636 1.873c-.042 0-.34-.127-.382-.127.042 0 .17-.086.382-.298v.425zm-1.02-.425l-.128-.043.128-.213.127.043-.127.213zm-.426.34c0-.34.085-.596.085-.596-.042.17.298.554.34.596h-.425zm-2.849-.553c-.043 0-.213.127-.383.127s-.34-.298-.34-.34h.51c0 .128.085.213.213.213zm5.614 6.173l-.128-.085.128-.213.127.043-.127.255zm-5.104-2.682v-.128l.17-.127.085.127-.255.128zm2.68 1.618c0 .128-.34.51-.34.553 0 .17 0 .341.042.469-.128.042-.34.213-.595.426.042-.128.127-.213.17-.298-.085-.086-.128-.17-.128-.256 0-.213.34-.681.34-.852 0-.127-.042-.212-.127-.255.127-.128.255-.17.34-.213.213.213.298.34.298.426zm-4.04-1.277s-.256.127-.383.127c0-.042-.128-.17-.128-.34.043 0 .213.085.51.213zm2.976 3.832a.513.513 0 0 1-.212.212c.085-.425.085-.723.042-.936.128.298.213.51.17.724zm-9.228-8.644a.455.455 0 0 1-.128.213h-.298v-.213h.426zm1.063 2.938l-.128-.042.085-.213.128.042-.085.213zM22.743 8.515v-.127h.255v.127h-.255zm17.65 21.502v-.298h.127v.298h-.128zm-.34 1.745v-.212h.127v.212h-.128zm-.043.81l-.128-.128.085-.085.128.127-.085.085zM22.7 15.625s-.34-.085-.468-.085c0-.086.128-.213.383-.341 0 .043.085.383.085.426zm-1.276-.34c0 .127-.17.297-.17.34h-.34a.61.61 0 0 0 .17-.426c.043 0 .298.085.34.085zm.298 1.106v-.298h.17v.298h-.17zm17.65 17.925l-.128-.042.128-.299h.127l-.127.341zM20.276 15.455V15.2h.128v.255h-.128zm-2.169-.68l-.128-.427h.17l.086.426h-.128zM38.65 36.828v-.255h.127v.255h-.127zm.68.767c-.042 0-.255.255-.425.298-.043-.256.085-.469.383-.597 0 .213 0 .299.042.299zM15.513 14.987v-.17h.51v.17h-.51zm-1.063.468l-.128-.042.128-.298h.127l-.127.34zm0-.383c-.17.213-.34.34-.468.383-.043-.127.127-.34.468-.68v.297zm22.965 24.184v-.213h.17v.213h-.17zM12.876 14.774l-.128-.042.128-.213.128.042-.128.213zm24.071 25.802h-.127l.085-.426h.17l-.128.426zm.936.553c-.17.213-.298.256-.425.128.085-.085.127-.17.127-.213l.298.085zM11.685 15.67l-.127-.086.085-.213.127.043-.085.255zm.723.85l-.085-.084.213-.213.127.085-.255.213zm.723.682l-.085-.042.085-.213.128.042-.128.213zM35.46 40.065l-.128-.043.128-.212.128.042-.128.213zm-22.626-22.14v-.128h.213v.128h-.213zm22.37 22.395l-.127-.042.128-.213.085.043-.085.212zm1.787 2.172a.614.614 0 0 0-.298-.085c.085-.128.17-.17.213-.17.042 0 .085.085.085.255zm-2.552-1.874l-.212-.127.042-.085.255.085-.085.127zm.128.64c-.043 0-.17.084-.298.212v-.34c.128 0 .213.042.298.127zM8.538 16.093l-.128-.042.128-.256.128.043-.128.255zm28.495 28.271a.455.455 0 0 1-.128.213h-.298v-.213h.426zm-.638.767c-.213-.043-.638.298-.851.34v-.681c.298-.085.553-.128.766-.17l.085.51zm-1.616.468v-.128l.212-.127.043.127-.255.128zM6.156 17.457v-.213h.128v.213h-.128zm-.978-.341v-.34h.17v.34h-.17zm1.957 1.873l-.128-.127.128-.086.127.128-.127.085zm-.979-.638c0 .34-.042.553-.127.596l-.213-.213c.043-.128.128-.256.34-.383zM7.22 19.5c-.128.297-.34.425-.596.425 0-.128-.042-.213-.085-.255.128 0 .553-.17.68-.17zm-2.637.51c0 .085-.085.213-.213.34 0-.042-.085-.297-.085-.34.085.085.17.085.298 0zm-.723.213v-.128l.17-.127.042.127-.212.128zm-.043.681l-.085-.085.213-.213.085.085-.213.213zm25.73 25.504c-.17 0-.297-.043-.382-.128.127-.042.212-.085.255-.085.042.085.085.17.127.213zM3.605 21.119h-.17l.085-.512h.17l-.085.511zm.935 1.234l-.127-.043.085-.213.127.043-.085.213zm-.127-.639c-.128.426-.255.682-.383.81v-.512c.042.128.298-.127.17-.425.128.042.17.085.213.127zm23.306 24.141v-.17l.382.128v.128l-.382-.086zM3.009 20.948c-.042 0-.34.085-.383.085 0 .043.086-.128.298-.51l.085.425zm.766 1.873c0-.042-.043-.085-.17-.213.042-.042.042.128.042.511 0 0-.17.085-.553.298-.212.128-.34.298-.34.426-.085-.085-.128-.213-.128-.426.34-.042.596-.298.723-.723.213-.64.383-1.022.426-1.107v1.234zm24.114 25.12l-.128-.127.085-.085.128.128-.085.085zM2.754 23.078l-.128-.085.128-.298.128.042-.128.34zm.766 1.064l-.213-.128.042-.127.213.127-.042.128zm-1.021-.298c-.043 0-.085 0-.213.043h-.212c.042 0 .212-.383.255-.383.127.127.17.212.17.34zm-.808.426l-.085-.681h.17l.085.68h-.17zm1.02 1.022h-.127l.085-.383h.128l-.085.383zm-1.148-1.32c-.297.298-.51.468-.595.468.127-.468.255-.766.383-.936 0 .042.085.212.212.468zm1.744 2.895h-.128l.085-.468h.17l-.127.468zm-1.148-2.129c.042.639 0 1.192-.085 1.576 0 .085-.085.127-.256.127v-.809c.043-.042.043-.042.043-.085.042.043.085.043.085 0v-.766l.213-.043zm1.53 3.79v-.298h.17v.298h-.17zm.639.723v-.255h.127v.255h-.127zm-1.234-.809v-.298h.17v.298h-.17zm-1.658-1.575v-.468h.17v.468h-.17zm.467.639l-.127-.213.127-.043.128.256h-.128zm-.297.085v-.256h.17v.256h-.17zm2.509 2.938h-.17l.127-.554H4.2l-.085.554zM1.605 28.1v-.34h.17v.34h-.17zm3.148 3.236v-.34h.128v.34h-.128zm-1.701-.682c-.213.213-.34.256-.426.128.043-.085.086-.17.086-.213a.8.8 0 0 0 .34.085zm-.255.597c0-.213.085-.341.255-.341.042-.043.042.085.042.34h-.297zm2.934 2.64c.085.084.043.297-.17.68-.468-.638-.68-1.106-.68-1.362 0-.042.127.043.382.256.043.127.043.255.043.34-.085.043-.043.085.085.085h.34zm.68 1.788v-.64h.128v.64h-.127zm4.083 4.044v-.255h.17v.255h-.17zm-6.72-6.471v-.341h.17v.34h-.17zm2.297 2.767v-.298H6.2v.298H6.07zm57.585-3.747l-.255.554.17.085.255-.553-.17-.086zm1.658-3.448c-.042 0-.042.085-.255.085-.212 0-.297-.256-.34-.298v-.213l.085-.085c.17.127.298.213.383.255v-1.745c.042-.554-.383-1.065-.383-1.576a1.004 1.004 0 0 0-.383-.255c0-.128-.17-.383-.17-.554 0-.213.043-.255.085-.213.255.128.383.256.34.298a22.969 22.969 0 0 1-.255-1.192c.128-.128.17-.298.17-.51-.255.212-.382.34-.34.34-.127-1.022-.34-1.873-.638-2.555-.68-1.192-1.148-1.703-1.488-2a17.3 17.3 0 0 0-.978-1.32v.766c-.043.213-.043.298-.043.298-.51-.511-.893-.894-1.106-1.192-.127.17-.34.255-.638.255.17.383.383.681.596.894-.085.043-.17.085-.213.043-.298-.17-.51-.298-.638-.383.255.553.468 1.021.638 1.362a7.83 7.83 0 0 0 .383-.511h.34c.298.298.51.639.553 1.107.043.298.085.639.128.937.042-.34.17-.724.297-1.192.128.127.17.468.128.979-.043.468.127.809.425 1.022-.127.127-.298.085-.468-.085.043.298.468 1.192.468 1.405 0 .212-.042.383-.085.425-.255-.298-.468-.553-.638-.723-.042-.086-.042-.298-.042-.682 0-.213.212-.723.212-.894 0 .085-.127.256-.34.469-.723-1.405-1.063-2.13-1.106-2.172-.085.128-.212.17-.382.17v1.278c.382.255.552.51.552.724 0 .383-.085.936-.212 1.745-.085.34-.128.426-.128.298.255 0 .425.043.468.085-.51.384-.298 1.278-.468 1.49.17-.17.34-.17.468-.042-.213.468-.298 1.022-.34 1.703-.043 1.15-.043 1.746-.043 1.746-.085.127-.17.213-.297.255-.17.596-.256 1.022-.298 1.278-.383.894-.85 1.66-1.319 2.299-.382.298-.68.51-.893.638-.297.384-.51.639-.723.81-.297.383-.85.893-1.573 1.532-.723.596-1.276.937-1.574 1.065-.808.255-1.403.383-1.829.383-.808 0-1.446-.81-1.828-2.47-.213-.979-.34-1.958-.34-3.023 0-.213.255-.425.255-.468 0-.256 0-.426-.043-.468.595-5.62 1.999-9.58 4.168-11.922.765-.809 1.19-1.192 1.318-1.235.383.298.596.682.638 1.107 0 .298 0 .639-.042.937.893-1.064 1.7-1.916 2.339-2.47.042-.17.042-.425.042-.723 0-.383 0-.596-.042-.724-.468-.681-1.02-1.107-1.744-1.235 0 .468-.255.34-.978.383-.34.043-.553.043-.68.043-.17 0-.936-.34-1.149-.34.043 0-.297.255-.935.723-.34.128-.638.256-.851.298-1.999 2.086-3.7 5.45-5.103 10.176-.213 1.064-.34 1.873-.383 2.427-.213 1.575-.34 2.725-.298 3.491-.213.34-.34.511-.34.511 0 .085.127.511.34 1.32.213.894.383 1.533.425 1.916.256.128.426.426.51.809.043.213.043.426.086.639.638.723 1.105 1.192 1.488 1.447.17.213.553.639 1.106 1.192.595.597.936.895 1.02.895.213 0 .426-.256.469-.256.042.213.51.511.51.681 0-.213.127-.298.34-.298.043.043.085.17.085.34.298-.127.51-.17.638-.212.043.043.085.128.085.34h.468c0-.17.043-.255.17-.255a.803.803 0 0 1 .085.34c.043 0 .298-.084.51-.084.17 0 .34.085.51.255l.214-.255c.085.085.212.127.382.127.128 0 .255-.127.468-.383a2.8 2.8 0 0 1 .255.511c.213-.468.383-.894.468-1.235.213.128.34.213.383.256.298-.298.51-.554.595-.724.298.298.426.468.383.468.425-.723.723-1.234.936-1.532.042.042.085.212.085.468.17-.298.51-.596 1.063-.98a.453.453 0 0 1 .042-.34c.043 0 .213.34.426.34.212 0 .297-.084.297-.084.298-.469.426-.895.298-1.278.043-.042.128-.042.213.043.17-.17.255-.639.468-.639.042 0 .127 0 .255.043-.043-.17.042-.426.212-.724.043.298.086.51.086.639-.128-.128-.043-.213.255-.341.553-.298.893-.681 1.063-1.064-.128-.213-.128-.469.042-.767l-.34.34c0-.68.043-1.191.128-1.575.042 0 .255.213.383.213a.387.387 0 0 1-.17-.34c0-.298.34-1.065.34-1.192.042.042.085.17.085.383.212-.128.383-.298.51-.596.085.042.128.127.085.17 0 .298-.085.639-.212.937.212.127.297.255.255.383 0-.256.085-.724.255-1.363.127.128.213.256.213.384 0-.81.212-1.32.637-1.49v-.937zm-4.082 7.195l-.128.298.17.085.17-.34-.212-.043zm1.318-16.35v-.34h.213v.34h-.213zm-.808-.085l-.298-.596.17-.042.298.638h-.17zm.468 1.405l-.128-.298.17-.085.128.383h-.17zm1.148 1.533v-.298h.213v.298h-.213zm-.51.894l-.17-.085.127-.298.17.043-.127.34zm1.488 2.47v-.426h.213v.426h-.213zm-1.063-.596v-.681h.213v.68h-.213zm.595.596v-.298h.213v.298h-.213zm-2.551-2.129v-.468h.212v.468h-.212zm.85 1.448c-.127-.213-.255-.426-.297-.554l.297-.298v.852zm-.68-.469l-.128-.085.128-.298.17.043-.17.34zm3.275 3.279c0 .127-.17.51-.51 1.15a2.917 2.917 0 0 1-.213-1.15c0-.639.127-1.107.425-1.363 0 .17.042.34.085.511a3.752 3.752 0 0 1-.298.596v.681h.085c.128-.127.213-.383.213-.723.128.042.213.127.213.298zm-.979-.298l-.17-.426.17-.043.17.469h-.17zm-.382 0l-.128-.426.17-.043.128.469h-.17zm.085 1.192v-.937h.212v.937h-.212zm-1.361-1.576h-.213l.17-.553h.213l-.17.553zm1.616 1.831v-.596h.213v.596h-.213zm-.043.724h-.212l.127-.681h.213l-.128.681zm.68.724l-.17-.043.17-.425h.17l-.17.468zm-1.615-.852v-.68h.212v.68h-.212zm-.085 4.215c-.213.469-.34.852-.34 1.065 0 0-.086-.043-.298-.128a.72.72 0 0 0-.426 0c.17-.17.894-.766 1.064-.937zm17.181-18.393l-.255.128v.128l.298-.128-.043-.128zm6.72-2.725c0-.383-1.063-1.192-1.403-1.192-.17 0-.17.085-.34.085-.128 0-1.149-.468-1.32-.468-.042 0-.254.255-.637.766-.383.469-.68.81-.936.98-2.126 1.32-3.36 2.128-3.7 2.341a8.822 8.822 0 0 1-.553.596c-1.105.682-1.7 1.065-1.828 1.193-1.021.809-1.574 1.277-1.659 1.362-.893.98-2.126 2.129-2.297 2.81-.042-.042-.042-.17-.042-.298-.298.34-.808 1.192-1.02 1.49-.086-.085-.128-.127-.128-.17 0 .255-.043.51-.17.724-.043 0-.043-.085-.213-.085-.17 0-.255.383-.383.383-.127-.724-.298-1.192-.425-1.448.127-.638.042-1.192-.17-1.66-.085-.213-.383-.554-.85-.98-.469-.425-.681-.766-.681-.979-.383-.128-.638-.213-.766-.213-.212 0-.255.213-.383.383a6.24 6.24 0 0 0-.638-.383c-.17.043-.297 0-.382-.085 0 .085-.043.17-.17.298-.085-.213-.128-.383-.17-.468 0 .255-.043.553-.086.851-.085.043-.17.085-.212.128-.085.17-.128.426-.128.724 0 .639.34 2.342.978 5.11.553 2.256.893 3.66 1.064 4.214.17.511.34 1.022.467 1.533.17.51.383.852.596 1.022-.043.213-.085.34-.043.468a23.156 23.156 0 0 0 2.17 4.513c.212.341.34.596.425.81.212.255.637.595 1.275 1.064.34.298.596.553.808.766.34.128.596.17.766.17.255.128.425.213.553.256.17.17.383.255.68.255.17 0 .596-.085.766-.085.298 0 .425-.553.425-1.66 0-.554 0-.98-.042-1.235-.638-1.533-1.191-2.725-1.659-3.534-.766-1.746-1.318-3.278-1.659-4.598-.085-.298-.127-.937-.127-1.916 0-1.49.51-3.066 1.53-4.641.128-.34.213-.639.256-.852.595-.723 1.063-1.277 1.403-1.575.256-.553.851-1.15 1.744-1.873 1.319-1.022 2.042-1.618 2.212-1.789 0-.127 0-.212-.043-.298.298-.34.553-.51.766-.51.127 0 .212.042.17.085 0-.086-.085 0-.255.212a14.413 14.413 0 0 1-1.021 3.066c-.128.298-.17.554-.213.724a11.732 11.732 0 0 0-.51 4.513c0 .128-.128.468-.128.596 0 .213.128.468.34.681-.212.213-.212.34-.042.34.17.214.298.342.425.427l-.17.17c.043.17.213.383.51.596.043-.043.17-.085.298-.085 0-.256 0-.383-.042-.383.042 0 .255.085.297.085.128-.639.17-1.107.128-1.32.128-.128.17-.213.213-.255.042-.81.255-1.363.638-1.661v-.468c.042-.085.085-.128.127-.128.043 0 .085.085.255.085.213 0 .298-.213.298-.639-.255.128-.383.17-.425.128 0-.128 0-.213.042-.298v-.128c.255 0 .426.043.468.086.128-.256.255-.384.34-.384.298-.851.553-1.192.766-1.192.042-.085.213-.34.595-.724.213-.255.383-.51.426-.809-.213.128-.34.256-.383.384-.043-.043-.085-.128-.043-.17.043-.043.34-.469.936-1.278.34-.468.595-.894.765-1.277.043-.213.043-.426.043-.554.298-.383.553-.809.808-1.192.468-.724.723-1.235.723-1.533zm-7.698 3.236v-.128l.51-.212.043.17-.553.17zm6.89 5.876l-.17.298.17.085.17-.298-.17-.085zm9.484 10.474l-.128.298.17.085.128-.298-.17-.085zm.128 1.064l-.128.34.128.043.17-.298-.17-.085zm-.638 1.107h-.213v.34h.213v-.34zm-.298.81c0-.086-.043-.214-.17-.342-.128.213-.255.341-.298.426.043 0 .34-.085.468-.085zm9.399 23.246c-.213-.128-.34-.213-.468-.255.043.298 0 .51-.085.596-.043 0-.17-.085-.298-.213.34-.554.596-.98.808-1.277 0-.17-.212-.682-.212-.852 0-.17.085-.298.255-.426-.128-2.341-.255-4.087-.298-5.28a110.347 110.347 0 0 0-.595-4.555c-.085-.128-.128-.17-.17-.213-.043-1.064-.213-2.384-.553-4.045-.085-.298-.17-.553-.213-.724l-.638-5.662c-.127-1.533-.212-2.725-.34-3.62-.128-.127-.213-.17-.255-.212.127-1.533.17-2.597.127-3.236-.042-.639-.467-1.83-.467-2.47 0-.298.042-.596.127-.894 0 .17-.042.298-.127.34-.086-.212-.128-.382-.086-.51.128-1.49.213-2.682.17-3.491-.084-.298-.127-.469-.127-.426.383-4.3.595-6.812.723-7.494.213-.383.383-.638.51-.851.213-.639.383-1.065.553-1.32-.212-.213-.297-.085-1.446-.468-.553-.213-.85-.298-.935-.298.255 0-.468.042-2.212.17-.468.51-.723 1.022-.808 1.533-.085.127-.17.213-.298.255 0 .298-.34 1.235-.34 1.533 0 .809 0 1.405.043 1.788-.213.426-.383.724-.51.894-.341-.34-.554-.51-.681-.553-.723-.128-1.148-.17-1.276-.17-2.127 0-3.445.425-3.998 1.32-.212.042-.34.042-.468.042a35.115 35.115 0 0 0-1.786 1.788c-.127.298-.17.511-.212.724-.213.383-.426.639-.596.851.085.213.085.341 0 .426a.13.13 0 0 1 0-.17c.043-.043 0-.085-.127-.085-.213 0-.34.255-.468.766.042.085.042.17.042.213 0 .34-.638.809-.68.852-.085.298-.128.553-.17.68-.383.299-.68.512-.893.597-.043.596-.256 1.277-.553 2.001-.383.894-.766 1.362-1.149 1.49.213 0 .256.085.213.213-.213.596-.383 1.022-.468 1.32-.468.724-.723 1.107-.765 1.192-.085.724-.128 1.277-.085 1.66-.213.64-.383 1.065-.51 1.32-.256 1.704-.384 2.98-.384 3.832 0 .98.256 1.789.766 2.513.893 1.021 1.276 1.447 1.829 1.447.127 0 .17 0 .17-.042 0-.043.042-.043.127-.043.128 0 .256.128.34.426.469.042.724.085.766.127 0-.17.043-.298.085-.34.17.17.298.255.426.255.127 0 .723-.042 1.828-.085 1.106-.042 1.701-.042 1.787-.042.382 0 .68-.213.978-.64.127-.255.297-.467.468-.595.297-.34.552-.596.723-.724.127-.468.17-.809.212-1.022l.255.256c.383-.596.723-.98.936-1.107.043-.384.17-.767.383-1.065.042.043.085.213.085.469.553-.554.85-.98.85-1.235 0-.468 0-.639-.042-.554.17-.127.298-.213.383-.255.127-.383.467-.894.935-1.448-.212-.425-.127-.936.213-1.532.34-.384.595-.682.765-.81.086-.468.128-.808.128-1.064.043.256.085.426.085.511.298.128.51.256.638.426.085.51.255.809.51.937-.212.127-.255.298-.212.468.127.298.17.468.17.51 0-.17.042-.297.085-.34a7.227 7.227 0 0 0 0 1.363c.042.638.085 1.064.085 1.234.383 0 .51.086.468.298-.255.128-.383.256-.34.426.042 0 .085-.085.297-.085.128 0 .213.852.213 2.597.127-.596.213-1.022.255-1.32.128.17.213.256.17.256.128 1.405.213 2.171.213 2.384.17.937.298 1.66.34 2.214.255 1.49.298 2.342.17 2.64.213 0 .34.085.34.298-.127.128-.212.255-.212.298.297.043.468.298.468.681 0 .213-.128.894-.085 1.065 0 .213.34.809.34 1.107.17 0 .34.085.468.213-.17 1.234-.17 2.214 0 2.852.17.596.255.894.255.937.042 1.277.085 3.023.127 5.237.128.042.17.128.17.255 0 .043-.042.17-.17.298-.085-.17-.127-.298-.127-.383v.554c.255.042.425.042.553 0v.34a1.62 1.62 0 0 1-.383.554c-.17-.298-.213-.469-.17-.469-.17.298-.298.724-.383 1.235-.085.554-.043.937.085 1.065-.042.638.043 1.107-.638 2.171-.127.17-.34.554-.553 1.15-.212.596-.383.979-.51 1.107-.425.17-.766.468-.978.894 0 .17 0 .298.042.34-.893.682-1.53 1.107-1.871 1.278.34-.128.553-.17.595-.043a9.174 9.174 0 0 0-1.105.809c-.383.298-.893.554-1.574.724-.17.255-.298.426-.34.553-.043-.042-.043-.085 0-.17.042-.043 0-.085-.128-.085-.127 0-.34.085-.638.298-.382.213-.638.298-.723.34 0 .086 0 .17.043.299.127.298.127.553.085.766-.085.213-.213.34-.425.34-.17 0-.213-.042-.17-.085.042-.383.085-.68.042-.851a.092.092 0 0 1-.085.085c-.213 0-.128-.085-.298-.085-.212 0-.935.596-1.106.596a.386.386 0 0 1-.297-.128c-.723.724-1.191 1.065-1.404 1.065-.212 0-.297-.256-.468-.256-.382 0-.595.852-1.275.852-.043 0-.128.085-.298.213l-.383-.341c0 .085-.085.128-.212.128l-.256.255c-.127-.383-.127-.681-.042-.809-.468.043-.723.256-.808.639.34 0 .553.042.595.128-.383.255-.638.383-.765.383-.213 0-1.106-.256-1.319-.256-.127-.127-.212-.213-.212-.34-.213.213-.383.34-.426.34-.212 0-.085-.127-.255-.127-.213 0-.34.383-.383.383-.085-.043-.127-.256-.127-.596h-.383l-.255.213c-.298-.128-1.404-.043-1.191-.17-.213.127-.255.17-.213.17-.212 0-.212-.213-.425-.213-.17 0-.34.127-.553.127-.553 0-1.276-.085-2.169-.298 0 .17.213.724.17.895-.042-.043-.042-.384-.255-.384-.34 0-.553.128-.68.384l-.213-.213v-.298c.043 0 .085.127.298.127.17 0 .34-.17.553-.553-.34-.128-.596-.256-.766-.298-.298-.256-.553-.469-.68-.639-.979-.34-1.616-.51-1.957-.51-.212 0-.34.255-.382.255l.51.255c.298.17.425.34.425.511 0 .17-.127.383-.425.639-.128-.17-.213-.298-.255-.34-.043.084-.043.17-.043.297 0 .468.638.767 1.02 1.107.171-.34.341-.51.554-.468l.212.17a1.394 1.394 0 0 1-.34.256c.043 0 .17.042.298.17.255-.256.425-.426.553-.468.297.298.425.468.34.468.213.298.213.596 0 .937.043 0 .255.127.425.127 0-.127.128-.383.34-.851l.298.255c.383-.468.723-.724 1.02-.724.214 0 .724.852.766.895l-.212.212c-.468.128-.68.213-.68.213-.086-.127-.128-.213-.17-.255v.468h.297c.298.043.383-.042.68.256l.256-.213c.255.127.425.213.552.34-.127-.213-.212-.383-.255-.553.213-.34.978-.511 2.382-.511.17 0 .68.213.808.383-.383.128-.468.383-.213.767h.213c.213.17.468.255.723.255.298 0 .383-.213.553-.213l.765.085c-.042-.042-.425-.127-.595-.298 0-.426.085-.638.298-.638h1.53c.894.042 1.362.298 1.362.68 0 .171-.043.256-.085.256.17-.085.297-.127.425-.127.213-.341.383-.597.425-.81.085.128.128.341.128.724.042-.042.595-.042 1.616 0 0-.213 0-.298.042-.34.043 0 .043.34.256.34.127 0 .51-.127 1.148-.383.68-.213 1.063-.34 1.106-.34.085 0 .127.042.17.085 0 .042.042.042.127.042.213 0 .298-.298.34-.298 1.404-.383 2.51-.766 3.318-1.15 1.233-.723 2.084-1.32 2.637-1.702 1.828-1.32 2.807-2.385 2.892-3.194.68-.468 1.403-2.256 1.53-3.576.128-.213.256-.34.298-.468.468-3.534.723-5.536.766-6.004zM66.973 37.468a.386.386 0 0 1-.298.128c-.127 0-.212-.128-.212-.384 0 .256-.043.426-.128.469-.042-.043-.042-.085 0-.128.043-.043 0-.085-.127-.085-.256 0-.383.426-.383 1.32.51-.596.893-1.022 1.148-1.32zm-5.911 9.239l-.298.426.17.128.255-.426-.127-.128zm23.603 28.91h-.425v.213h.425v-.213zM65.4 38.064c-2.255 2.001-3.36 3.023-3.36 3.023-.085.085-.213.34-.34.809-.086.298-.298.426-.596.468-.213.596-.34 1.022-.468 1.32-.297.426-.51.724-.723.894-.212.468-.297.767-.34.852-.17-.128-.255-.256-.255-.34-.17.638-.298 1.106-.383 1.404-.042-.042-.042-.17-.042-.468-.128 0-.256.085-.468.298.127.255.17.426.085.553-.128.128-.213.213-.298.256 0 .213.17.894.17 1.107 0 .213-.085.34-.212.426-.128-.341-.17-.682-.128-.98-.425 1.66-.723 3.023-.893 4.088a.234.234 0 0 1-.213-.128c0 .34-.383 1.15-.425 1.32-.043.98-.085 1.745-.128 2.256-.297.043-.382.682-.425 1.107 0 .298.043.81.128 1.576.085.809.127 1.405.127 1.788 0 .468-.042.852-.127 1.15.17.298.297.468.425.596.17.809.298 1.405.383 1.83.085-.383.127-.68.127-.894 0-.17-.297-.766-.17-.979.553.937.893 1.448.936 1.49 0 .894.553 2.342 1.233 2.385 0-.17-.085-.341-.213-.469.213-.042.298-.127.298-.298 0-.17-.255-.851-.255-1.15a.72.72 0 0 1 .128-.425c.297.894.425 1.277.425 1.15.34 0 .51.085.51.255v-.554c0-.212.17-.34.468-.383.213.298.255.596.128.852l-.256-.256c0 .043-.17.383-.17.596 0 .17.638 1.022.68 1.193 0-.086.043-.17.128-.213v-.213c.043-.128.085-.17.17-.17.17.468.34.723.553.808 0-.17.085-.34.213-.468.383.383.68.596.893.596-.127-.213-.085-.426.043-.681.085.128.127.17.127.213 0-.043.043-.128.128-.213l.17.17v.469l-.085.298a.723.723 0 0 0 .255-.256c.128.085.17.128.213.17.34.554.68.895 1.02 1.022a67.704 67.704 0 0 1-.637-1.788c-.086.298-.128.511-.128.639h-.298a7.327 7.327 0 0 1-.127-1.448c-.213.213-.34.34-.383.468-.34-.51-.553-.766-.638-.809-.043.086-.043.17-.043.299 0 .383 0 .596-.042.638a.607.607 0 0 1-.255-.51c0-.214.17-.852.127-1.023-.68-.894-1.02-1.362-1.02-1.447 0-.213.085-.256.085-.298 0 .085-.043.127-.128.17-.298-1.064-.468-1.873-.595-2.384 0 .17-.043.255-.128.255-.34 0-.51-.809-.51-2.384 0-.085 0-.213.042-.34.043-.128.043-.256 0-.341-.127-.511-.212-.894-.255-1.15.085-.255.128-.766.128-1.49a46.692 46.692 0 0 0-.51 4.172c-.043 0-.086-.042-.128-.127v-.554c0-.426-.085-.766-.213-1.064.043-.256.128-.426.17-.511-.17-.256-.212-.554-.17-.937.043-.298.128-.596.17-.894-.212-.298-.298-.681-.298-1.064 0-.213.34-.17.383-.213.128.127.17.298.128.596 0-1.576.085-2.555.212-3.023.213-.681.34-1.405.426-2.129.383-.085.553-.34.51-.724.128-.17.213-.255.255-.213h-.085c-.212-.383-.297-.681-.297-.809 0-.213.085-.425.297-.596.043.34.043.596 0 .81.128-.554.298-.895.468-1.065.128.298.255.468.298.468v-1.022c0-.213-.255-.553-.298-.681.043-.128.085-.17.128-.17.127.213.212.34.255.468.425-.639.765-1.064 1.063-1.362.383-1.065.595-1.874.723-2.385.425-.51.85-1.022 1.276-1.575.595-.766.893-1.32.85-1.703zm15.778 37.595c0 .043-.128.043-.34.043.085 0 .17.085.255.213a.606.606 0 0 0 .085-.256zm-.638-.255l-.17.298.17.085.17-.298-.17-.085zm-.723.213h-.34v.213h.34v-.213zm-7.188-4.684l-.297.213.085.17.298-.255-.086-.128zm2.382 3.151l-.255.128v.17l.34-.128-.085-.17zm-6.124-5.45c-.128-.213-.34-.426-.68-.596v.468c.042-.127.127-.17.17-.212.042.042.042.085 0 .212 0 .086.042.128.17.128h.34zm-1.574-1.447l-.127.127.297.298.128-.127-.298-.298zm5.87 4.938c-.809-.255-1.191-.383-1.064-.383-.213 0-.298.043-.255.128.128-.383.255-.681.34-.809-.212-.17-.383-.34-.468-.51-.042 0-.085.212-.297.212-.213 0-.553-.213-1.021-.681l-.298-.256c-.127.17-.255.256-.383.256-.255 0-.68-.383-1.318-1.107-.213 0-.042.128-.255.128-.043 0-.128-.128-.298-.426-.85.17-.978-.81-1.36-.98-.17 0-.043.128-.213.128-.213 0-.17-.809-.298-.98-.085.214-.128.342-.128.47-.51-.47-.935-.895-1.233-1.278.17.383.085 1.49.255 1.873.34.426.638.724.85.852l.256-.256c.085 0 .213-.085.34-.212.298.298.85 1.192 1.319 1.66.127-.128.255-.17.297-.17-.17-.043-.255-.128-.255-.213.043-.383.085-.468.085-.34.723.979 1.446 2.298 2.51 2.128 0-.042-.213-.255-.17-.383.127-.256.212-.426.254-.554.128.341.17.554.213.64-.042.127-.042.212-.085.255.128.51.34.766.638.766.128 0 .298.085.468.255 0-.255.042-.425.085-.468.127.128.255.213.298.213 0 .553-.086.894-.256 1.022.128.085.256.127.34.17.256-.553.639-.937 1.106-1.15zm.212 1.661c-.043 0-.085.085-.298.085-.17 0-.212-.085-.127-.255v.851c.127 0 .255.085.382.256 0-.596 0-.894.043-.937zm-8.974-5.79l-.042.17.51.298.085-.17-.553-.298zm-.85-1.107h-.213v.638h.213v-.638zm-3.87-.17c-.17-.427-.34-1.065-.51-1.874v1.533c0-.17.042-.298.127-.341.17.298.298.553.383.681zm5.954 5.236l-.128.128.298.255.127-.085-.297-.298zm34.49-46.962l-.17-.085.17-.298.171.042-.17.34zm-.042 7.11v-.468h.213v.468h-.213zm-.212.937v-.681h.17v.68h-.17zm.085 1.192v-.809h.212v.809h-.212zm-.68 1.32v-.34h.17v.34h-.17zM87.173 23.8l-.127-.128.255-.383.17.085-.298.426zm-.085 0c-.297.425-.51.766-.68 1.064.128-.554.213-.937.34-1.192a.678.678 0 0 0 .34.128zm9.23-.724c-.043.17-.043.51 0 1.064.042.383 0 .81-.128 1.277-.128.128-.213.17-.298.213.042.384-.128.894-.51 1.533-.383.639-.553 1.107-.553 1.32 0 .128.042.255.085.383-.043 0-.298.128-.51.128-.128 0-.17 0-.128-.043.042-.085.042-.127 0-.17-.298.894-.553 1.575-.723 2.086-.128 0-.425.511-.596.511-.127 0-.17 0-.127-.042.042-.085.085-.128.042-.17-.255.68-.467 1.106-.638 1.277-.552.553-1.658 1.745-3.317 3.576a36.318 36.318 0 0 1-3.572 3.364 1.128 1.128 0 0 1-.298-.596c-.043-.085-.128-.085-.34-.043v-.298c.17-.128.255-.255.255-.468 0-.213-.085-.469-.213-.767-.17-.425-.255-.638-.255-.68.128 0 .255-.129.425-.342.085-.127.043-.34-.17-.553.043.128.128-.085.255-.639.043-.638.086-1.15.086-1.618.127-.894.255-1.575.34-2.043.297-1.065.893-2.683 1.871-4.769.043-.043.043-.085-.042-.17-.298.638-.596 1.107-.809 1.32-.042-.128-.127-.128-.17-.086.085.128.128.213.128.341 0 .383-.595 1.448-.723 1.746.042-.383.042-.681-.085-.937-.17.128-.255.213-.255.213.808-2.3 1.999-4.513 3.487-6.642 1.659-2.427 3.19-3.79 4.593-4.13.596-.255 1.02-.383 1.276-.383.255 0 .638.128 1.106.426.17.553.298 1.192.34 2-.085.384-.127.895-.085 1.576 0 .724.043 1.107.17 1.107.213 0 .298-.085.34-.085v.426l-.255-.213zm-1.957 10.601v-.17l.255-.128.085.17-.34.128zm-.17.256c-.17.383-.255.681-.255.809l-.213-.681c.17-.17.34-.213.468-.128zm-8.123-8.175a29.26 29.26 0 0 0-1.021 1.703c-.128-.298 0-.638.298-1.107.468-.724.723-1.107.723-1.15v.554zm7.527 9.154c0 .043-.127.256-.425.596 0 .298 0 .554.043.724-.128.128-.213.213-.298.256.042-.554.042-1.022 0-1.363.213-.298.383-.51.553-.639 0 .043.127.213.127.426zm7.443 10.985v-.34h.213v.34h-.213zM84.58 29.165c0 .128-.17.34-.468.639 0 .17.128.468.128.639l-.17.34c-.043 0-.425.128-.553.128v-.383c0-.085.255-.639.765-1.618l.298.255zm6.55 7.962l-.17-.17.127-.128.17.213-.127.085zm-6.55-5.024l-.17-.042.17-.426h.17l-.17.468zm18.373 19.969v-.298h.212v.298h-.212zm.425.51l-.17-.085.128-.298.17.086-.128.298zm-.553-.042v-.298h.213v.298h-.213zm.34 1.192h-.212l.127-1.022h.213l-.128 1.022zm-2.126 2.512v-.34h.213v.34h-.213zm-.298 3.364l-.17-.085.17-.384h.17l-.17.469zm-4.848 9.069l-.085-.213.213-.085.085.17-.213.128zm-6.677 3.406c0-.128.085-.298.298-.468.297.127.51.255.637.298l-.935.17zM61.614 44.365v-.468h.17v.468h-.17zm29.09 30.74c-.297 0-.467-.042-.553-.127.17-.085.298-.128.34-.128 0 .17.086.256.213.256zM59.828 48.028v-1.15h.213v1.15h-.213zm-.255.255c0 .639-.043 1.107-.085 1.32l-.255-.085c.17-.51.297-.937.34-1.235zm-.255 2.725h-.213l.128-.809h.212l-.127.81zm-1.276-.851V48.92h.213v1.235h-.213zm1.063 2.512l-.127-.554h.212l.128.554h-.213zm-.468.468v-.298h.213v.298h-.213zm-.212 1.235l-.17-.085.17-.298.17.085-.17.298zm-1.064-.724l-.17-.043.17-.425h.17l-.17.468zm1.276 2.342v-.426h.213v.426h-.213zm16.8 16.86c0 .213-.043.34-.17.426.042 0-.086-.085-.383-.298-.426-.128-.681-.17-.723-.17-.128 0-.298.085-.426.213-.042 0-.085-.128-.085-.426.128 0 .34.085.383.085l.213-.17c-.213-.213-.34-.384-.34-.426.637.298 1.148.553 1.53.766zm-6.167-2.256v-.17l.297-.17.043.17-.34.17zm-8.889-8.686c0 .213-.085.852-.085 1.15-.128-.086-.213-.128-.298-.128.043-1.874.085-2.768.085-2.725.17.085.256.255.298.553v.81c-.042.212-.042.383-.085.51.043-.042.085-.085.085-.17zm.255 1.362v-.34h.213v.34h-.213zm-3.912-2.64v-.425h.212v.426h-.212zm1.53 2.044v-.425h.213v.425h-.212zm-.042.98l-.17-.085.128-.299.17.086-.128.298zm30.026-39.171l-.256.553.17.043.256-.554-.17-.042zm-.34.724l-.17.298.17.085.17-.34-.17-.043zm23.348-10.56l-.298.128v.213l.383-.17-.085-.17zm9.271 3.79c0-.298-.085-.596-.297-.98-.723-.595-1.319-.979-1.787-1.106-.297-.298-.978-.682-2.041-1.065-1.02-.383-1.786-.596-2.34-.596-.212 0-.254.128-.467.128-.213 0-.638-.213-.638-.213-.17-.043-.383-.043-.638 0-.34.042-.51.085-.553.085-.17 0-.255 0-.212.043.085.127.085.213.042.34-1.276.852-1.914 1.278-1.956 1.278-.043 0-.128-.043-.255-.17l.34-.341c.255-.256.425-.469.468-.639-.638.554-1.064.98-1.319 1.277-.425.213-.765.384-1.02.469a33.07 33.07 0 0 1-1.787 1.958c.043.085 0 .34-.085.724-.297.128-.467.255-.595.298-.043.17-.043.298-.085.383-1.233 1.235-2.127 3.747-2.637 4.556-.383 1.064-.553 2.171-.553 3.321 0 1.66.085 2.768.213 3.321.468 2.044.978 3.62 1.53 4.683.469.767.894 1.32 1.192 1.704.297.085.468.127.553.127 0-.213.127-.34.34-.34.127.085.085.34-.043.723.808 1.065 2.042 1.789 3.658 2.172.297.213.553.383.68.51.17 0 .51.214.68.214.213 0 .596-.256.809-.256.212 0 .383.17.553.469.212 0 .935.17 1.105.17.213 0 .979-.383 1.191-.383.17 0 .383.255.596.255.085 0 .51-.17 1.276-.51.765-.341 1.19-.512 1.318-.512.213 0 .213-.638.255-.68h.34c0 .17-.042.255-.127.255.382-.128 1.573-.511 2.041-.554-.127 0-.255-.468-.298-.596h-.595c-.213 0-.425.255-.638.255-.17 0-.723.256-.936.256-.212 0 0-.256-.17-.256-.297 0-.553.086-.85.213.212 0 .297.043.297.128 0 0-.085.128-.297.34-.17 0-.255-.127-.255-.34 0-.085-.085-.085-.213-.043-.17.043-.298.086-.383.086-.127 0-.51-.043-1.233-.086-.68-.042-1.063-.042-1.191-.042-.553 0-1.318-.17-2.212-.511-.978-.554-1.743-.98-2.211-1.32-.128-.085-.468-.51-1.02-1.32-.511-.809-.766-1.362-.766-1.618 0-.127.042-.255.085-.298a68.24 68.24 0 0 0 2.126 1.576c.51.34 1.021.51 1.531.51.298 0 1.106-.468 2.424-1.447.213-.468.298-.852.256-1.15.085.043.127.17.127.384.638-.81 1.319-1.576 1.957-2.385.808-.98 1.318-1.745 1.573-2.342a.591.591 0 0 0 0-.383c.51-.851.893-1.447 1.106-1.788 0-.043.042-.213.127-.51.596-.98 1.021-2.215 1.319-3.79.298-1.831.425-3.236.383-4.173.127-.213.212-.34.212-.468zm-3.062 0c.128.042.085.255-.127.639v-.384l-.256-.255c-.127.128-.127.298-.042.553.042.043.383.341.383.554 0 .128-.468 1.277-1.404 3.534-.042.255.043.51.213.809-.128 0-.298-.085-.425-.256-.043.043-.085.256-.085.639a.386.386 0 0 1-.298-.128c-.128.34-.213.596-.255.767-1.191 1.66-2.084 2.98-2.722 3.917-1.063 1.362-1.829 2.256-2.297 2.682-.383.213-.68.34-.935.468-.894.724-1.531 1.15-1.83 1.193-.127.085-.212.255-.34.468-.042-.213-.084-.596-.212-1.192s-.17-.937-.17-1.065c0-.383.298-1.873.298-2.384 0-.298-.043-.511-.17-.596.127-.128.255-.128.425.042.042-.085 0-.425-.043-1.064 0-.34.085-.553.298-.596l.213-.213a.604.604 0 0 0-.256-.085c.426-1.32.766-2.129 1.064-2.427 0-.213-.043-.255-.17-.128.255-.213.425-.383.51-.51 1.999-2.981 3.232-4.471 3.657-4.471.213 0 .383.128.596.128.17 0 .425-.511.595-.554 1.404-.639 2.34-.98 2.722-.98.17 0 .85.852 1.063.895zm-5.699 22.012l-.34-.17.085-.17.34.17-.085.17zm-7.315-4.087l-.17-.043.17-.34.17.042-.17.34zm34.917 4.47c0 .511-.255-2-.723-7.493-.085-1.065-.043-2.044.17-3.023-.213-.213-.298-.426-.213-.639.213-.468.255-.851.213-1.15-.213-1.064-.298-1.958-.298-2.682 0-.34.085-.638.255-.851-.085-.128-.17-.213-.212-.34.127-.299.212-.512.255-.64.042-.553.042-1.362.042-2.512 0-.383-.042-.723-.085-.979.128-.17.17-.255.17-.213 0-.042-.042-.681-.17-1.873-.127-1.192-.17-2.044-.212-2.597-.255-.256-.426-.469-.51-.682-.128 0-.681-.34-.851-.34-.17 0-.426.213-.596.213-.085 0-.553-.085-1.446-.213-.893-.128-1.36-.213-1.488-.213-.17 0-.808.851-1.106.98-.085.723-.128 1.277-.17 1.66-.978 1.575-1.786 2.725-2.382 3.448-.382.511-.723.895-1.02 1.193-.128.383-.213.68-.256.851a3.887 3.887 0 0 1-.723.511c-.893 1.064-1.573 1.873-1.956 2.47h-.127v-.98c.042-.383.127-.638.17-.851.127-2.13.127-3.534.085-4.173-.043-.085-.085-.17-.128-.213.085-.596.17-1.064.213-1.362.17-.128.297-.256.425-.34a8.988 8.988 0 0 0-.595-1.363h-.979c-.212 0-.552-.085-.595-.085.128.127.128.212 0 .298-.68.085-.936.127-.765.127-.213 0-.468-.127-.596-.127-.17 0-.936.468-1.148.468.085 2.682.085 4.173.042 4.47.085.469.17.852.213 1.108-.085.298-.17.51-.213.638-.085 1.32-.127 2.3-.127 2.938-.085 3.364-.085 6.344 0 8.899 0 .213-.34.936-.34 1.107 0 .468.127.894.34 1.192-.17.383-.213.766-.085 1.107.553.383.935.724 1.19.98.086.042.383.17.851.297.383.128.596.298.68.511.043-.085.17-.128.34-.128-.084-.851.554-.468.851-.638.17 0 0 .213.17.213.256 0 .426-.17.51-.469 0-.51-.084-.98-.212-1.447.34-1.746.596-3.109.808-4.003.128-.127.213-.255.255-.298.17-1.15.298-2.043.383-2.64.298-.894.51-1.532.68-1.958-.042-.043-.084-.085-.084-.128.212-.638.382-1.064.51-1.362.298-.852.765-1.746 1.403-2.725.808-1.107 1.446-1.916 1.872-2.384.042-.043.255-.384.638-.98.255-.426.51-.724.765-.851.213.298.34.766.34 1.405 0 1.15 0 1.66-.042 1.618.298.213.425.34.425.383v1.746c0 .212-.212.298-.212.34.297 1.065.382 2.214.297 3.491 0 .17-.17.767-.17.98 0 .17.34.596.383.638.17 1.448.213 2.47.17 3.066.043.128.085.17.128.213.042.255.042.596 0 1.022-.043.553-.043.851-.043.979.298-.128.468-.17.51-.085a1.32 1.32 0 0 0-.212.724c0 .34.127.851.383 1.49.297.766.467 1.277.51 1.533.17.127.298.255.383.298.085.468.127.766.17.809.68.809 1.106 1.192 1.318 1.192h1.234c.212-.639.34-1.15.34-1.576zm-1.106-2.895v-.298h.17v.298h-.17zm-.766 1.192v-.383h.17v.383h-.17zm17.395-23.545l-.255.128v.128l.297-.128-.042-.128zm6.72-2.725c0-.383-1.064-1.192-1.404-1.192-.17 0-.17.085-.34.085-.128 0-1.148-.468-1.319-.468-.042 0-.255.255-.638.766-.382.469-.68.81-.935.98-2.127 1.32-3.36 2.128-3.7 2.341a8.822 8.822 0 0 1-.553.596c-1.106.682-1.701 1.065-1.829 1.193-1.02.809-1.573 1.277-1.658 1.362-.894.98-2.127 2.129-2.297 2.81-.043-.042-.043-.17-.043-.298-.297.34-.808 1.192-1.02 1.49-.085-.085-.128-.127-.128-.17 0 .255-.042.51-.17.724-.043 0-.043-.085-.213-.085-.17 0-.255.383-.382.383-.128-.724-.298-1.192-.426-1.448.128-.638.043-1.192-.17-1.66-.085-.213-.383-.554-.85-.98-.468-.425-.68-.766-.68-.979-.384-.128-.639-.213-.766-.213-.213 0-.256.213-.383.383a6.24 6.24 0 0 0-.638-.383c-.17.043-.298 0-.383-.085 0 .085-.042.17-.17.298-.085-.213-.128-.383-.17-.468 0 .255-.043.553-.085.851a.93.93 0 0 0-.213.128c-.085.17-.127.426-.127.724 0 .639.34 2.342.978 5.11.553 2.256.893 3.66 1.063 4.214.17.511.34 1.022.468 1.533.17.51.383.852.595 1.022-.042.213-.085.34-.042.468a23.156 23.156 0 0 0 2.169 4.513c.212.341.34.596.425.81.213.255.638.595 1.276 1.064.34.298.595.553.808.766.34.128.595.17.765.17.256.128.426.213.553.256.17.17.383.255.68.255.17 0 .596-.085.766-.085.298 0 .426-.553.426-1.66 0-.554 0-.98-.043-1.235-.638-1.533-1.19-2.725-1.659-3.534-.765-1.746-1.318-3.278-1.658-4.598-.085-.298-.128-.937-.128-1.916 0-1.49.51-3.066 1.531-4.641.128-.34.213-.639.255-.852.596-.723 1.064-1.277 1.404-1.575.255-.553.85-1.15 1.744-1.873 1.318-1.022 2.041-1.618 2.211-1.789 0-.127 0-.212-.042-.298.297-.34.552-.51.765-.51.128 0 .213.042.17.085 0-.086-.085 0-.255.212a14.413 14.413 0 0 1-1.02 3.066c-.128.298-.17.554-.213.724a11.732 11.732 0 0 0-.51 4.513c0 .128-.128.468-.128.596 0 .213.127.468.34.681-.213.213-.213.34-.043.34.17.214.298.342.426.427l-.17.17c.042.17.212.383.51.596.043-.043.17-.085.298-.085 0-.256 0-.383-.043-.383.043 0 .255.085.298.085.127-.639.17-1.107.127-1.32.128-.128.17-.213.213-.255.043-.81.255-1.363.638-1.661v-.468c.043-.085.085-.128.128-.128.042 0 .085.085.255.085.212 0 .298-.213.298-.639-.256.128-.383.17-.426.128 0-.128 0-.213.043-.298v-.128c.255 0 .425.043.468.086.127-.256.255-.384.34-.384.298-.851.553-1.192.765-1.192.043-.085.213-.34.596-.724.212-.255.383-.51.425-.809-.213.128-.34.256-.383.384-.042-.043-.085-.128-.042-.17.042-.043.34-.469.935-1.278.34-.468.596-.894.766-1.277.042-.213.042-.426.042-.554.298-.383.553-.809.808-1.192.468-.724.723-1.235.723-1.533zm-7.698 3.236v-.128l.51-.212.043.17-.553.17zM166.49 5.45l-.17.085.298.426.128-.085-.256-.426zm3.743-5.067c-.383 0-1.489-.383-1.616-.383-.085 0-.553.043-1.446.17-.978.17-1.659.256-2.042.298 0 .213 0 .384-.042.469-.68.383-1.19.68-1.531.809a19.435 19.435 0 0 0-2.637 1.66c-.383.213-.893.426-1.063.894.51.469 1.106.98 1.063 1.32-.51.213-.723.34-.595.34.34.256.85.895 1.53 1.874.809 1.15 1.49 2.044 2.042 2.597.298.298.51.426.638.384.638-1.831.34-2.725.638-3.534.213-.17.468-.384.808-.596.128-.213.17-.341.17-.384-.34 0-.51 0-.468.043.298-.468.553-.809.85-1.022.128-.34.469-.681 1.022-1.064.552-.383.85-.682.935-.937.723-.553 1.191-.98 1.404-1.362-.128 0-.213-.043-.213-.17.298-.086.468-.299.425-.64-.042-.383 0-.638.128-.766zm-4.125 17.329c-.383.128-.553.213-.596.213-.468 0-.765-.383-.893-1.107-.128-.17-.255-.256-.383-.256 0 .299-.042.511-.085.554-1.106-.468-1.871-.809-2.296-1.022-.51.724-.766 1.448-.766 2.129 0 .128.043.255.085.298-.255.213-.383.51-.383.894 0 .213.34.298.34.34-.17.214-.255.427-.212.597-.085.298-.128.51-.17.724.042.127.042.17.042.213l-.127.17c0 .298.17.766.468 1.405l-.085.042c-.256.17-.383.341-.383.554v5.492c.17.17.212.384.17.682.17.766.255 1.405.213 1.958.255.894.467 1.576.595 2.044.34 1.83.595 2.895.723 3.193.043.383.085.681.043.894.34.98.637 1.746.85 2.214.213.554.383.98.468 1.235.51.809.51 1.064 1.233 1.533.383.213.68.34.808.34.17 0 .256-.042.256-.17l-.086-.128c0-.553-.297-.596-.297-.723 0-.043-.17-.384-.553-.98-.085-.042-.17-.085-.213-.127.298-.384.298-.81.043-1.32 0 .17-.043.255-.128.255s-.127 0-.17-.042l.043-.043h.042c0 .128 0-.128.043-.766.042-.384-.085-.64-.298-.767 0 .213 0 .298-.043.34-.17-.595-.255-.936-.297-.978l.085-1.533c.255.213.425.426.553.596v-1.235c.042-.34-.383-.51-.51-.51a.72.72 0 0 1-.128-.427c0-.127.042-.34.17-.596.042.085.127.128.255.128v-1.916c0-.17-.425-.639-.425-.766 0-.128.297-1.32.297-1.703-.042-.724 0-1.107.043-1.193.128.895.213 1.618.213 2.172.127-1.703.17-2.512.17-2.47 0-.34.17-1.277.127-1.618 0-.042-.17-.596-.17-.766.085-.894.298-2.214.638-4.002.34-1.66.51-2.512.51-2.512 0 .042-.042-.213-.17-.681-.127-.043-.212-.128-.297-.256l.17-.17c.042 0 0 .128.212.128.17 0 .256-.17.256-.554zm-1.489 16.86c0-.042-.085-.383-.085-.425-.128 0-.213.085-.213.298.085 0 .17.042.298.128zm.17-10.346l-.17-.085.128-.383h.17l-.128.468zm-1.063 5.195v-.426h.17v.426h-.17zm.595 6.429l-.17-.043.17-.383h.17l-.17.426zm.256 4.47l-.17-.085.127-.383h.17l-.127.468zm21.902-17.116l-.128.043.086.213h.17l-.128-.256zm7.655 13.242c-.212.043-.51.213-.808.51-.042.043-.34.214-.808.427-.383.17-.595.34-.68.553-.17-.213-.255-.298-.213-.298-.213.213-.34.383-.425.468-.213-.17-.298-.255-.298-.255l-.213.213c.128.298.213.426.256.468l-.128.128s-.043-.256-.213-.256c-.425 0-.723.043-.935.17-.043.341-.128.512-.17.554a.516.516 0 0 1-.043-.425l-.425.34c-.043-.042-.17-.085-.298-.085.043.596-.127.937-.51 1.022-.085-.17-.128-.34-.085-.469-.213.299-.34.511-.426.682-.042-.043-.085-.17-.085-.34 0 .127-.212.425-.212.553a1.004 1.004 0 0 1-.383.255c.042.17.042.298.042.383a.693.693 0 0 1-.127.256c-.17-.17-.255-.426-.213-.724-.383.17-.595.298-.638.383.128.681.17 1.065.128 1.107-.128-.383-.213-.639-.255-.851-.298.34-.468.596-.596.766-.17-.213-.255-.298-.212-.298-.256.383-.723.724-1.361 1.022-.213-.681-.34-.98-.34-.852 0-.128.212-1.235.255-1.533.042-.298 0-1.532-.128-3.661.128-.128.17-.213.17-.17v-3.875c0-.043.043-.468.128-1.32.085-.894.127-1.533.17-1.958l.17-.17c-.043-.043-.043-.086-.043-.128.043-.17.086-.299.17-.384.128.085.128.17.043.256.043-.213.085-.383.043-.511.127-.639.382-1.192.765-1.746l.213.213c-.128-.383-.128-.766 0-1.064.042 0 .127.085.255.213-.128-.341-.17-.554-.128-.597.213-.723.34-1.192.34-1.405.043 0 .128.043.17.128.128-.724.256-1.107.469-1.235 0-.553.085-1.107.297-1.66-.17 0-.255-.085-.255-.213.213-.17.213-.553 0-1.192-.085-.383-.127-.639-.127-.852-.213-.383-.426-.766-.638-1.064-.213 0-.638.128-.808.128-.128 0-1.021-.469-1.191-.469-.17 0-.043.085-.213.085-.17 0-.383-.298-.638-.894-.298-.723-.468-1.064-.468-1.064-.638-.724-1.148-1.107-1.573-1.15-.043-.213-.255-.383-.596-.553 0 .128-.042.213-.085.255-.34-.298-.68-.468-1.02-.425h-.17c-.936-.469-1.617-.852-2.084-1.065-.043.043-.17.426-.213.468-.17 0-.51-.298-.808-.255.298.298.298.553 0 .724a1.665 1.665 0 0 0-.553-.085c0-.17-.043-.298-.085-.341.17-.128.468-.34.468-.383l-.426-.128c-.893.937-.638 1.32-1.105 1.49-.17 0-.298-.042-.34-.085.297-.213.637-.468.595-.851-.68.383-.638 1.192-.808 1.32-.043-.043-.043-.17-.17-.213a1.59 1.59 0 0 0 .085-.511c0 .17-.255.68-.808 1.575-.553.894-.936 1.448-1.149 1.703-.17.128-.297.256-.425.298-.085.34-.128.596-.17.767-.468.68-.936 1.617-1.403 2.81-.17.425-.51 1.405-1.064 2.895-.085.596-.127 1.022-.127 1.32-.128.298-.213.553-.298.766-.043.511-.085.894-.085 1.192-.128.256-.213.469-.34.596-.043.469-.085.852-.085 1.107-.085.852-.128 1.533-.17 2.002-.043.383-.213 1.447-.213 1.575 0 .596.085 1.022.255 1.235a2.261 2.261 0 0 1-.128.468c.468 1.746.809 3.065 1.021 3.96.553.809 1.063 1.362 1.489 1.745.297.298.467.426.51.426h.34c.17-.043.298-.043.34-.043-.127-.085-.127-.127 0-.127.043 0 .086.042.128.085a.272.272 0 0 0 0 .255c.468.298.723.469.68.469h2.17c.127 0 .85-.469 1.02-.469.17 0 .468.085.596.085 0-.17 0-.255.042-.255.85-.213 1.489-.894 1.871-1.277-.042-.17.128-.34.426-.554a.803.803 0 0 1-.085-.34c0-.554.127-.895.425-1.022.17.17.298.255.425.255-.127-.255-.17-.383-.17-.34-.298 0-.468 0-.51-.043.17-.298.255-.51.255-.553 0 .042-.043.085-.085.127-.17-.298-.255-.426-.255-.298.127-.17.212-.298.255-.383.128.255.213.383.298.383.127-.213.255-.383.382-.51-.17 0-.255 0-.255-.043.468-.383.766-.639.893-.767.043.128.085.17.085.213.383-.51.68-.894.936-1.15.128.086.213.128.255.17v.214h-.212c-.128 0-.256.085-.298.255.212.213.298.383.17.511.085-.213.255-.468.468-.681.085.17.127.298.17.383-.043.213-.085.34-.128.469a.588.588 0 0 0 .128.17 3.738 3.738 0 0 0 0 .98l.17-.214.255.511c0 .17-.34.639-.34.767 0 .298 0 .723-.043 1.362v.937l.213.085a3.35 3.35 0 0 1-.085 1.277c0 .128 0 .256.043.34-.043.299-.086.47-.086.597 0 .128.213.34.213.383-.34.98-.298 1.533.17 1.703.043.128 0 .34-.212.639.17.638.255.936.255.979-.043-.085-.085-.128-.085-.17 0 0 .127.213.127.426l-.085-.086c.043.17.043.341.043.554 0 .468-.255 1.405-.766 2.81-.468 1.32-.68 2.342-.595 3.065-.128.17-.17.213-.17.17 0 .256 0 .341.042.214-.085.213-.17.383-.212.468-.043.468 0 .937.127 1.405-.127.213-.17.383-.17.511h.213c.042.043-.128-.043.34.937 0-.128.042-.17.085-.17.17 0 .595.85.723.85.255 0 .383 0 .34-.042 0 .17-.042.256-.17.256.298.128 1.106.894 1.276.894.128 0 0-.085.17-.085.128 0 .298.468.468.468.085 0 .128 0 .128-.042 0-.043.042-.043.085-.043 0 0 .255.17.723.553.51.384.893.554 1.105.554 0 0 .256-.085.723-.298-.255-.852-.51-1.703-.723-2.597-.297-1.065-.51-1.959-.553-2.597a2.213 2.213 0 0 1-.127-.213c0-.17.213-.384.255-.511.34-2.555.553-3.832.85-4.513 0-.256 0-.469-.042-.64l.128-.042c.085.043.127.128.085.298v-.553c0-.213.085-.298.212-.34h.17c-.127-.256-.17-.427-.127-.554l.085-.085a.234.234 0 0 1 .128.212c0-.085.042-.255.17-.51a.325.325 0 0 0 .212.085c-.042-.213.085-.682.426-1.32-.085 0-.128-.043-.085-.17.042-.086.085-.128.127-.17a.325.325 0 0 0 .213.084c-.128-.127-.128-.34.042-.553.213.085.383.042.51-.085-.17 0-.254-.085-.254-.256.042-.213.127-.34.297-.426.043.086.043.17 0 .298-.042.086-.042.128-.042.17.34-.553.638-1.064.893-1.617v-.554c.298-.383.468-.553.468-.553.17 0 .042.128.212.128.043 0 .255-.384.68-1.107.979-.724 1.787-1.363 2.425-2.002.255-.127.468-.255.68-.34.256-.298.426-.511.553-.681-.297-.043-.468-.17-.553-.341.426-.255.638-.468.638-.596zm-14.8.085c-.042 0-.127.085-.255.256.128 0 .213.085.213.212.042-.042.042-.212.042-.468zm-.68 1.107l-.255.256c.17-.043.552.085.552.085l-.297-.34zm-4.04-21.97v-.34h.17v.34h-.17zm-1.617 1.916l-.17-.127.128-.086.127.128-.085.085zm.085 2.725l-.127-.127.085-.128.127.17-.085.085zm16.927 20.31a.93.93 0 0 0-.213.127l-.34-.34c.255.085.425.17.553.212zm-18.33-17.67v-.128l.213-.127.042.127-.255.128zm17.394 17.329l-.127-.043.127-.255.128.042-.128.256zm-7.995-9.58a7.679 7.679 0 0 1-.85 1.022v-.383c-.213.213-.341.383-.426.553-.043-.042.085-.042.383-.042 0 .085-.085.213-.213.34 0 .128.128.213.383.256a.386.386 0 0 0-.298.127l-.212-.17c-.128.128-.17.17-.213.17-.085 0-.128 0-.085-.042.042-.043.042-.085 0-.128-.638.213-.723.894-.893 1.405-.128-.128-.17-.255-.213-.298-.213.17-.383.34-.51.468 0 .128.085.213.297.341-.085.085-.127.17-.127.213.042 0-.085-.128-.298-.34-.255.127-.383.297-.383.553-.042-.043-.255-.085-.297-.213-.213.298-.426.51-.553.681-.596.469-1.063.81-1.446 1.022.085-.043.085-.128.042-.17-1.318.936-2.041 1.405-2.126 1.447-.596.128-.936.213-1.02.213-.766 0-1.404-.724-1.915-2.171-.127-.34-.212-.767-.212-1.32-.043-.809-.043-1.405-.085-1.83-.043-.299-.043-.427-.043-.47 0-.084.128-1.064.425-2.894.043-.384.213-.937.468-1.661.298-.766.425-1.192.425-1.235 0-.213-.127-.34-.34-.34 0-.043.128-.213.426-.511 0-.128-.086-.17-.256-.17.468-.128.723-.511.68-1.193.554-.553.766-1.107.724-1.66.255-.043.425-.256.51-.554.043-.213.128-.425.17-.638.383-.298.723-.724 1.064-1.235 0-.128 0-.213-.043-.256 0 0 .085-.255.255-.255.17 0 .043.128.213.128 1.786-2.087 2.807-3.108 3.02-3.108.17 0-.043.17.084.17.128 0 .34-.213.638-.639-.042.043-.042.128.043.17.042-.042.17-.085.383-.085.127 0 .34.341.595 1.022.213.554.34.98.383 1.278.127.723.17 1.447.17 2.256 0 .298-.043.468-.128.554.043.213.085.298.085.298-.127.17-.212.298-.297.383-.128 1.064-.213 1.916-.34 2.512.042.17.085.255.085.298-.638 2.214-.979 3.406-.979 3.534 0 .17.256 1.362.256 1.745 0 .17-.043.299-.085.341.085.128.127.17.17.213.297.128.595.213.85.213.383 0 1.404-.81 1.616-1.15.043.554 0 .98-.042 1.235h.085zm7.953 10.857h-.17l.085-.426h.17l-.085.426zm-7.613-6.982l-.128-.086.086-.212.17.042-.128.256zm-2.084-1.618l-.127-.043.127-.298h.128l-.128.34zm.893 1.447v-.468c-.042-.17-.042-.256-.042-.298.042 0 .255.085.382.085v.34l-.34.341zm-.723-.851c0 .213-.085.34-.255.34 0-.042-.042-.213-.127-.468.212.043.34.085.382.128zm8.719 9.75l-.085-.085.212-.256.085.085-.212.256zm-1.701-1.363v-.34h.17v.34h-.17zm-8.038-7.663l-.128-.043.128-.256.127.043-.127.256zm.382.638l-.127-.042.127-.256.128.085-.128.213zm-.595-.383v-.255h.17v.255h-.17zm4.168 4.811l-.128-.042.128-.256.127.043-.127.255zm-5.019-4.428c.043 0 .085.043.043.17a.93.93 0 0 1-.128.213c-.127 0-.255-.085-.34-.213.213-.127.383-.17.425-.17zm.51 1.32l-.127-.043.128-.255.127.043-.127.255zm-9.568-9.197l-.128-.042.128-.298h.127l-.127.34zm9.569 9.92a.387.387 0 0 0-.128.299c-.213-.383-.298-.554-.34-.596.127 0 .255.085.468.298zm-1.319-1.064c-.127.17-.255.256-.34.256v-.383c.128 0 .255.042.34.127zm.936 2.214c0 .086-.085.256-.213.554-.17-.17-.212-.34-.127-.554h.34zm-.68.17v-.34h.17v.34h-.17zm.127.128c-.213.299-.298.554-.298.724-.127-.042-.212-.085-.255-.085.128-.34.34-.553.553-.639zm-.765 1.406l-.128-.043.128-.256.127.043-.127.256zm-.936-.469c-.085 0-.213.085-.383.256a.692.692 0 0 1-.255-.128c.298-.213.51-.383.638-.511v.383zm5.614 11.709c-.128-.043-.213-.085-.255-.085 0-.043.127-.383.127-.511 0 .128.043.34.128.596zm25.305-18.606l-.213.468.128.043.212-.469-.127-.042zm2.679-11.368c0-.384-.128-1.15-.34-2.3-.213-1.064-.34-1.703-.468-1.958-.043-.128-.213-.383-.51-.766-.213-.298-.298-.469-.256-.597-.297-.298-.638-.553-.935-.809-.383-.34-.808-.596-1.234-.723-.212-.256-.34-.469-.382-.639-.043 0-.17.043-.383.085.34.298.34.639 0 .937-.128-.298-.255-.511-.298-.681-.127 0-.255-.043-.298-.086l-.212.17c-.043-.042-.17-.084-.298-.084-.128 0-.255.085-.383.213-.042.383-.085.638-.17.766a2.063 2.063 0 0 1-.383.553c-.085-.17-.127-.298-.127-.383 0 .085-.043.213-.085.426-.043.128-.043.255 0 .298-.17.426-.213.766-.17 1.064-.51 1.576-.766 2.47-.766 2.683 0 .17-.042.298-.17.426.213 0 .34.085.298.212l-.17.17a.322.322 0 0 1-.17-.084c0 .213-.128.723-.128.851 0-.042.085.17.298.639-.128.128-.213.17-.256.213 0 .468-.127 1.66-.127 1.66 0 .17.212.639.212.81-.085.553-.127.978-.17 1.234-.042.553-.085.851-.042.894l-.128.085c0 1.235.17 1.916.51 2.129-.127.043-.255.213-.382.468v2.768c0 .042.042.34.127.98.085.595.128 1.021.128 1.234-1.276.894-2.722 1.533-4.38 1.916l-.383.255c-2.084 0-3.743-1.405-3.743-3.576l.085-.085c-.127-.34-.127-.596-.085-.767.213-.553.34-.851.34-.809v-1.064c.256-1.235.51-2.172.723-2.768-.042-.255-.085-.383-.085-.383a31.542 31.542 0 0 0 1.361-2.767c.043-.043.043-.298.043-.724 0-.852-.638-2.257-1.148-2.555.042-.042.085-.127.042-.17 0 .085-.042.128-.085.128-.043 0-.17-.17-.383-.554-.51-.298-.893-.51-1.148-.724-.383.213-.51.298-.383.298-.468-.468-.765-.723-.893-.766-.042.043-.128.511-.468.681-.127-.127-.212-.17-.297-.17 0 .213-.085.34-.256.34-.17 0-.255-.042-.212-.085-.128.554-.213.98-.17 1.193-.213.255-.34.596-.383 1.064.127.255.17.51.085.766 0 .128-.425.554-.425.682v.34c.042 0 .127-.042.212-.085.085.298.128.639.085 1.022-.042.426-.212.681-.467.724-.043.638-.128 1.064-.213 1.277.127.128.17.256.127.34a5.907 5.907 0 0 0-.255 1.704c0 .894.128 1.788.34 2.767.51 1.746.894 2.98 1.191 3.747 0 .128 0 .256-.042.383.212.383.468.937.765 1.703.638.596 1.106 1.065 1.404 1.448.978.553 1.701.894 2.169 1.107.127-.298.212-.426.255-.383v.383h2.084c0-.298 0-.426-.043-.383.213.213.383.298.553.298.085 0 .426-.085 1.02-.298.596-.213.937-.298 1.022-.298.17 0 .808-.469.935-.469.085-.298.128-.468.128-.596.383.213.51.298.383.298.127-.34.212-.553.34-.596.085.128.127.17.127.213 0-.213.043-.298.17-.298a.493.493 0 0 0 .213.298c.128-.213.255-.298.383-.298.298.34.468.511.51.554.17.638.34 1.405.85 1.745.128.511.256.894.341 1.15.213.128.383.213.51.298.128.298.426.681.936 1.15.51.51.936.851 1.233.979.213.553 1.064 1.064 1.702 1.064.17 0 .723-.724.85-.851-.383.042-.85-.17-1.403-.682-.468-.425-.85-.851-1.063-1.234-.043-.256-.043-.469-.043-.596-.213-.384-.425-.64-.595-.852-.213-.426-.468-1.235-.766-2.384-.298-1.065-.425-1.66-.425-1.789 0-.17.17-.638.212-.808.043-.341.043-.597.043-.724l.298.298c-.085-.213.042-.554.425-.98.383-.468.595-.808.595-1.021 0-.128-.042-.213-.085-.341.255-.213.468-.383.638-.468-.127-.17-.127-.341 0-.554.128-.213.213-.383.34-.553l.213.17c0-.213.043-.383.17-.511-.127.128-.212.128-.34 0 .17-.34.425-1.192.638-1.49.17.17.255.255.213.255 0-.213-.128-.553-.128-.553.298-.043.51-.469.553-1.363 0 .043-.043.085-.17.128l-.17-.17c0-.085.127-.128.382-.128 0-.128-.17-.383-.17-.426.298-.298.426-.51.426-.638-.128.085-.213.085-.256.042 0-.213.043-.34.17-.426a.325.325 0 0 0 .213.086c0-.341.298-1.235.298-1.576.042-2.512.085-3.619.085-3.363zM206 24.566c-.085 1.065-.17 1.917-.213 2.513-.468.213-.51.98-.723 1.618-.212.553-.382.851-.425 1.15.085.127.043.212-.085.212-.085 0-.128 0-.128-.042.043-.085.043-.128 0-.17l-.17.212-.425-.425c.213-.17.298-.298.34-.426.085-.894.128-1.618.085-2.172a51.98 51.98 0 0 1 .723-4.726c.298-.638.553-1.107.766-1.447h.553s.553 2.129 0 3.704H206zm-.298 8.474c-.127-.085-.212-.128-.255-.128l.255-.255v.383zm-16.714-9.836v-.255h.17v.255h-.17zm12.164 13.2l-.128-.043.085-.256.17.043-.127.255zm-.298.383l-.128-.256.128-.042.127.298h-.127zm-7.613 2.128l-.34-.085v-.17l.383.128-.043.127zm23.987-24.269l-.298.128v.213l.383-.17-.085-.17zm9.271 3.79c0-.298-.085-.596-.298-.98-.723-.595-1.318-.979-1.786-1.106-.298-.298-.978-.682-2.041-1.065-1.021-.383-1.787-.596-2.34-.596-.212 0-.255.128-.467.128-.213 0-.638-.213-.638-.213-.17-.043-.383-.043-.638 0-.34.042-.51.085-.553.085-.17 0-.255 0-.213.043.085.127.085.213.043.34-1.276.852-1.914 1.278-1.956 1.278-.043 0-.128-.043-.256-.17l.34-.341c.256-.256.426-.469.468-.639-.638.554-1.063.98-1.318 1.277-.425.213-.766.384-1.02.469a33.07 33.07 0 0 1-1.787 1.958c.043.085 0 .34-.085.724-.298.128-.468.255-.595.298-.043.17-.043.298-.085.383-1.234 1.235-2.127 3.747-2.637 4.556-.383 1.064-.553 2.171-.553 3.321 0 1.66.085 2.768.213 3.321.467 2.044.978 3.62 1.53 4.683.468.767.894 1.32 1.191 1.704.298.085.468.127.553.127 0-.213.128-.34.34-.34.128.085.086.34-.042.723.808 1.065 2.041 1.789 3.657 2.172.298.213.553.383.68.51.171 0 .511.214.681.214.213 0 .596-.256.808-.256.213 0 .383.17.553.469.213 0 .936.17 1.106.17.213 0 .978-.383 1.19-.383.171 0 .384.255.596.255.085 0 .51-.17 1.276-.51.766-.341 1.191-.512 1.319-.512.212 0 .212-.638.255-.68h.34c0 .17-.043.255-.128.255.383-.128 1.574-.511 2.042-.554-.128 0-.255-.468-.298-.596h-.595c-.213 0-.426.255-.638.255-.17 0-.723.256-.936.256-.213 0 0-.256-.17-.256-.298 0-.553.086-.85.213.212 0 .297.043.297.128 0 0-.085.128-.298.34-.17 0-.255-.127-.255-.34 0-.085-.085-.085-.212-.043-.17.043-.298.086-.383.086-.128 0-.51-.043-1.233-.086-.681-.042-1.064-.042-1.191-.042-.553 0-1.319-.17-2.212-.511-.978-.554-1.744-.98-2.211-1.32-.128-.085-.468-.51-1.021-1.32-.51-.809-.766-1.362-.766-1.618 0-.127.043-.255.085-.298a68.242 68.242 0 0 0 2.127 1.576c.51.34 1.02.51 1.531.51.298 0 1.106-.468 2.424-1.447.213-.468.298-.852.255-1.15.085.043.128.17.128.384.638-.81 1.318-1.576 1.956-2.385.808-.98 1.319-1.745 1.574-2.342a.591.591 0 0 0 0-.383c.51-.851.893-1.447 1.106-1.788 0-.043.042-.213.127-.51.596-.98 1.02-2.215 1.319-3.79.297-1.831.425-3.236.382-4.173.128-.213.213-.34.213-.468zm-3.062 0c.127.042.085.255-.128.639v-.384l-.255-.255c-.127.128-.127.298-.042.553.042.043.382.341.382.554 0 .128-.467 1.277-1.403 3.534-.043.255.042.51.213.809-.128 0-.298-.085-.426-.256-.042.043-.085.256-.085.639a.386.386 0 0 1-.297-.128c-.128.34-.213.596-.256.767-1.19 1.66-2.084 2.98-2.722 3.917-1.063 1.362-1.828 2.256-2.296 2.682-.383.213-.68.34-.936.468-.893.724-1.53 1.15-1.829 1.193-.127.085-.212.255-.34.468-.042-.213-.085-.596-.212-1.192-.128-.596-.17-.937-.17-1.065 0-.383.297-1.873.297-2.384 0-.298-.042-.511-.17-.596.128-.128.255-.128.425.042.043-.085 0-.425-.042-1.064 0-.34.085-.553.298-.596l.212-.213c-.085-.043-.17-.085-.255-.085.425-1.32.766-2.129 1.063-2.427 0-.213-.042-.255-.17-.128.255-.213.425-.383.51-.51 2-2.981 3.233-4.471 3.658-4.471.213 0 .383.128.595.128.17 0 .426-.511.596-.554 1.403-.639 2.339-.98 2.722-.98.17 0 .85.852 1.063.895zm-5.699 22.012l-.34-.17.085-.17.34.17-.085.17zm-7.315-4.087l-.17-.043.17-.34.17.042-.17.34z" fill="#222" fill-rule="nonzero"/></svg>