<svg width="36" height="36" viewBox="0 0 36 36" fill="none" xmlns="http://www.w3.org/2000/svg">
<path d="M12.735 8.875C12.7361 9.12026 12.6888 9.36333 12.5959 9.59031C12.5029 9.81729 12.3662 10.0237 12.1935 10.1979C12.0207 10.372 11.8154 10.5104 11.5892 10.6051C11.3629 10.6998 11.1203 10.7491 10.875 10.75C9.848 10.75 9.015 9.91 9.015 8.875C9.015 7.84 9.848 7 10.875 7C11.902 7 12.735 7.84 12.735 8.875ZM12.75 12.25H9V24.25H12.75V12.25ZM18.736 12.25H15.01V24.25H18.737V17.95C18.737 14.448 23.259 14.162 23.259 17.95V24.25H27V16.652C27 10.742 20.308 10.957 18.736 13.866V12.25Z" fill="#222222"/>
</svg>
