<svg width="32" height="24" viewBox="0 0 32 24" fill="none" xmlns="http://www.w3.org/2000/svg">
<g clip-path="url(#clip0)">
<path d="M31.6632 11.1616L20.9179 0.355679C20.4463 -0.118562 19.7053 -0.118562 19.2674 0.355679C18.7958 0.829921 18.7958 1.57516 19.2674 2.01552L28.0253 10.8229L1.17895 10.8229C0.538946 10.8229 -1.37091e-06 11.3649 -1.37091e-06 12.0085C-1.37091e-06 12.6521 0.538946 13.1941 1.17895 13.1941L27.9916 13.1941L19.2337 22.0014C18.7621 22.4757 18.7621 23.2209 19.2337 23.6613C19.4695 23.8984 19.7726 24 20.0758 24C20.3789 24 20.6821 23.8984 20.9179 23.6613L31.6632 12.8553C31.8989 12.6182 32 12.3472 32 12.0085C32 11.6697 31.8653 11.3987 31.6632 11.1616Z" fill="white"/>
</g>
<defs>
<clipPath id="clip0">
<rect width="32" height="24" fill="white"/>
</clipPath>
</defs>
</svg>
