<svg width="225" height="171" xmlns="http://www.w3.org/2000/svg"><g fill="none" fill-rule="evenodd"><path d="M0 0h225v171H0z"/><path d="M152.06 58.831c-.61-4.12-1.984-7.897-4.12-11.331-2.137-3.434-4.807-6.448-8.012-9.042-3.205-2.595-6.83-4.617-10.874-6.066-4.044-1.45-8.279-2.175-12.705-2.175-8.088 0-14.955 1.564-20.602 4.693-5.647 3.128-10.225 7.325-13.735 12.59s-6.066 11.255-7.669 17.97C72.741 72.185 71.94 79.128 71.94 86.3c0 6.868.801 13.544 2.403 20.03 1.603 6.486 4.159 12.324 7.669 17.512 3.51 5.19 8.088 9.348 13.735 12.476 5.647 3.129 12.514 4.693 20.602 4.693 10.988 0 19.573-3.357 25.753-10.072 6.181-6.715 9.958-15.566 11.332-26.554h34.795c-.916 10.224-3.281 19.457-7.096 27.698-3.816 8.241-8.852 15.261-15.109 21.06-6.257 5.8-13.582 10.225-21.976 13.278-8.393 3.052-17.626 4.578-27.699 4.578-12.514 0-23.769-2.175-33.765-6.524-9.996-4.35-18.427-10.34-25.295-17.97-6.867-7.63-12.132-16.596-15.795-26.898C37.831 109.308 36 98.205 36 86.301c0-12.209 1.831-23.54 5.494-33.994s8.928-19.572 15.795-27.355c6.868-7.783 15.3-13.888 25.295-18.313C92.58 2.213 103.835 0 116.35 0c9.004 0 17.512 1.297 25.524 3.892 8.013 2.594 15.185 6.371 21.519 11.33 6.333 4.96 11.56 11.103 15.68 18.429 4.12 7.325 6.715 15.718 7.783 25.18H152.06z" fill="#222" fill-rule="nonzero" opacity=".05"/></g></svg>