<svg width="36" height="36" viewBox="0 0 36 36" fill="none" xmlns="http://www.w3.org/2000/svg">
<path d="M16.312 17.42C16.7947 17.7957 17.3889 17.9997 18.0005 17.9997C18.6121 17.9997 19.2063 17.7957 19.689 17.42L27.5 11.345C27.2266 10.932 26.8552 10.593 26.419 10.3583C25.9828 10.1236 25.4953 10.0005 25 10H11C9.958 10 9.04 10.536 8.501 11.345L16.312 17.42ZM28 13.489V23C28 24.654 26.655 26 25 26H11C9.346 26 8 24.654 8 23V13.489L15.084 18.999C15.9175 19.648 16.9436 20.0005 18 20.0005C19.0564 20.0005 20.0825 19.648 20.916 18.999L28 13.489Z" fill="#AB7B00"/>
</svg>
