<?xml version="1.0" encoding="UTF-8" standalone="no"?>
<svg width="130px" height="111px" viewBox="0 0 130 111" version="1.1" xmlns="http://www.w3.org/2000/svg" xmlns:xlink="http://www.w3.org/1999/xlink">
    <!-- Generator: Sketch 3.6.1 (26313) - http://www.bohemiancoding.com/sketch -->
    <title>11</title>
    <desc>Created with Sketch.</desc>
    <defs></defs>
    <g id="Page-1" stroke="none" stroke-width="1" fill="none" fill-rule="evenodd">
        <g id="Desktop2" transform="translate(-982.000000, -1052.000000)" fill="#D71955">
            <path d="M1032.304,1052.96 C1032.304,1053.536 1032.184,1053.896 1031.944,1054.04 C1031.704,1054.184 1031.392,1054.4 1031.008,1054.688 C1029.66399,1054.88 1028.27201,1055.74399 1026.832,1057.28 C1026.256,1057.664 1025.34401,1058.336 1024.096,1059.296 C1020.63998,1063.04002 1016.22403,1068.17597 1010.848,1074.704 C1010.752,1074.32 1010.704,1074.08 1010.704,1073.984 C1014.06402,1069.85598 1017.37598,1065.72802 1020.64,1061.6 C1024.67202,1056.89598 1028.07999,1053.82401 1030.864,1052.384 L1031.872,1052.384 C1031.872,1052.768 1032.016,1052.96 1032.304,1052.96 L1032.304,1052.96 Z M1027.12,1107.248 L1026.832,1108.256 L1026.4,1108.112 L1026.832,1107.248 L1027.12,1107.248 Z M1026.832,1108.544 L1026.544,1109.552 L1026.256,1109.408 L1026.544,1108.544 L1026.832,1108.544 Z M1027.12,1115.312 L1026.688,1115.312 L1026.688,1114.592 L1027.12,1114.592 L1027.12,1115.312 Z M1039.504,1125.68 C1039.504,1125.968 1039.24,1126.4 1038.712,1126.976 C1038.184,1127.552 1037.776,1127.84 1037.488,1127.84 L1035.328,1127.84 L1034.752,1127.12 C1034.848,1126.736 1035.04,1126.208 1035.328,1125.536 C1036.096,1124.768 1036.864,1124.384 1037.632,1124.384 C1038.88001,1124.384 1039.504,1124.816 1039.504,1125.68 L1039.504,1125.68 Z M1047.712,1146.272 C1027.2639,1151.26402 1016.656,1153.76 1015.888,1153.76 C1015.696,1153.76 1015.432,1153.712 1015.096,1153.616 C1014.76,1153.52 1014.496,1153.472 1014.304,1153.472 C1014.016,1153.472 1012.48001,1153.928 1009.696,1154.84 C1006.91199,1155.752 1005.424,1156.208 1005.232,1156.208 C1005.04,1156.208 1004.992,1156.112 1005.088,1155.92 C1005.184,1155.728 1005.088,1155.632 1004.8,1155.632 C1001.34398,1155.632 998.560011,1156.49599 996.448,1158.224 C995.679996,1158.224 994.528008,1158.608 992.992,1159.376 L993.136,1159.52 C993.424001,1159.52 993.903997,1159.376 994.576,1159.088 L995.584,1159.088 C995.968002,1159.472 996.16,1159.904 996.16,1160.384 C996.16,1160.864 995.728004,1161.344 994.864,1161.824 C993.999996,1162.304 993.280003,1162.544 992.704,1162.544 L990.544,1162.544 L990.544,1161.536 C991.600005,1161.152 992.128,1160.576 992.128,1159.808 C992.032,1159.712 991.744002,1159.664 991.264,1159.664 C990.975999,1159.664 990.832,1159.712 990.832,1159.808 C990.832,1160 990.736001,1160.096 990.544,1160.096 C990.351999,1160.096 990.28,1160.048 990.328,1159.952 C990.376,1159.856 990.256001,1159.808 989.968,1159.808 C989.775999,1159.808 989.68,1159.904 989.68,1160.096 C989.68,1160.288 989.584001,1160.384 989.392,1160.384 C989.488,1160.384 989.320002,1160.288 988.888,1160.096 C988.455998,1159.904 987.520007,1159.808 986.08,1159.808 C986.08,1159.424 986.175999,1159.136 986.368,1158.944 C985.887998,1158.752 985.168005,1158.32 984.208,1157.648 C984.208,1156.976 984.471997,1156.232 985,1155.416 C985.528003,1154.6 985.792,1154.192 985.792,1154.192 C985.792,1153.52 985.696001,1152.8 985.504,1152.032 C985.311999,1151.552 984.784004,1151.216 983.92,1151.024 C982.671994,1149.00799 982.048,1148.096 982.048,1148.288 C982.048,1146.84799 986.463956,1144.11202 995.296,1140.08 L995.296,1139.216 C994.815998,1139.408 994.480001,1139.504 994.288,1139.504 L993.712,1138.784 C995.536009,1137.05599 997.887986,1135.712 1000.768,1134.752 C1003.45601,1134.08 1006.19199,1133.408 1008.976,1132.736 C1006.76799,1133.504 1003.64802,1134.99199 999.616,1137.2 C999.808001,1137.488 1000.192,1137.632 1000.768,1137.632 C1000.96,1137.632 1002.39999,1137.10401 1005.088,1136.048 C1007.77601,1134.99199 1009.216,1134.464 1009.408,1134.464 C1009.696,1134.464 1009.792,1134.56 1009.696,1134.752 C1009.6,1134.944 1009.648,1135.04 1009.84,1135.04 C1010.032,1135.04 1010.416,1134.944 1010.992,1134.752 C1011.568,1134.56 1012.096,1134.464 1012.576,1134.464 C1012.672,1132.25599 1012.816,1128.65602 1013.008,1123.664 L1016.464,1097.456 C1016.272,1096.976 1016.08,1096.592 1015.888,1096.304 C1014.928,1097.55201 1014.496,1098.368 1014.592,1098.752 L1014.016,1098.176 C1010.94398,1100.48001 1008.16001,1103.45598 1005.664,1107.104 C1003.55199,1110.17602 1001.44001,1113.29598 999.328,1116.464 C999.135999,1116.752 999.04,1117.184 999.04,1117.76 C998.655998,1117.952 998.128003,1118.384 997.456,1119.056 C996.591996,1120.11201 995.296009,1121.79199 993.568,1124.096 C993.568,1123.52 993.472001,1123.184 993.28,1123.088 C993.184,1123.184 993.088,1123.304 992.992,1123.448 C992.896,1123.592 992.8,1123.712 992.704,1123.808 C992.704,1124 993.375993,1122.70401 994.72,1119.92 C994.912001,1119.44 994.96,1119.008 994.864,1118.624 C995.632004,1118.528 996.399996,1117.23201 997.168,1114.736 C997.360001,1114.64 997.216002,1114.592 996.736,1114.592 C995.871996,1114.592 994.816006,1115.45599 993.568,1117.184 C993.183998,1117.088 992.800002,1116.656 992.416,1115.888 C992.223999,1115.888 992.08,1115.936 991.984,1116.032 C991.888,1116.128 990.592012,1117.85598 988.096,1121.216 C988.192,1120.64 988.575997,1119.872 989.248,1118.912 C989.248,1118.624 989.2,1118.432 989.104,1118.336 C986.607988,1119.58401 985.455999,1120.208 985.648,1120.208 L984.208,1120.208 C984.208,1120.112 984.16,1119.92 984.064,1119.632 C983.968,1119.344 983.92,1119.056 983.92,1118.768 C983.92,1118.384 983.968,1118.096 984.064,1117.904 C985.216006,1116.55999 985.792,1115.792 985.792,1115.6 C985.792,1114.928 985.408004,1113.82401 984.64,1112.288 C984.255998,1112.576 984.016,1112.72 983.92,1112.72 C984.304002,1112.336 984.400001,1112.048 984.208,1111.856 C984.496001,1111.568 984.879998,1111.424 985.36,1111.424 C985.552001,1111.328 985.6,1110.944 985.504,1110.272 C985.888002,1108.92799 986.559995,1107.05601 987.52,1104.656 C987.904002,1104.272 988.527996,1103.696 989.392,1102.928 C989.488,1102.64 989.631999,1102.208 989.824,1101.632 C995.87203,1093.18396 1001.19998,1086.36803 1005.808,1081.184 C1010.51202,1076.28798 1017.95195,1068.41605 1028.128,1057.568 C1028.512,1057.568 1029.04,1057.424 1029.712,1057.136 C1029.712,1057.328 1029.52,1057.904 1029.136,1058.864 C1028.848,1059.536 1028.944,1060.112 1029.424,1060.592 C1030.48001,1059.92 1032.06399,1058.96001 1034.176,1057.712 C1034.272,1057.904 1034.176,1058.144 1033.888,1058.432 C1033.984,1058.528 1034.176,1058.96 1034.464,1059.728 C1034.656,1060.112 1034.896,1060.304 1035.184,1060.304 C1035.856,1060.304 1036.192,1059.968 1036.192,1059.296 C1036.192,1059.008 1036.096,1058.552 1035.904,1057.928 C1035.712,1057.304 1035.616,1056.992 1035.616,1056.992 C1037.82401,1055.83999 1038.928,1055.264 1038.928,1055.264 C1039.216,1055.264 1039.504,1055.312 1039.792,1055.408 C1040.08,1055.504 1040.224,1055.552 1040.224,1055.552 C1040.512,1056.60801 1040.416,1057.568 1039.936,1058.432 C1040.128,1059.008 1040.224,1059.344 1040.224,1059.44 C1038.87999,1060.4 1038.208,1061.50399 1038.208,1062.752 C1038.208,1063.52 1038.448,1064.192 1038.928,1064.768 C1038.544,1065.152 1038.112,1065.776 1037.632,1066.64 L1037.632,1067.36 C1037.536,1067.456 1037.68,1067.504 1038.064,1067.504 C1038.256,1067.504 1038.688,1067.264 1039.36,1066.784 C1040.032,1066.304 1040.512,1066.016 1040.8,1065.92 C1040.992,1066.112 1041.088,1066.352 1041.088,1066.64 C1041.088,1066.832 1040.46401,1067.69599 1039.216,1069.232 C1037.67999,1071.05601 1036.72,1072.448 1036.336,1073.408 C1035.952,1074.368 1035.472,1075.90399 1034.896,1078.016 C1034.704,1078.88 1034.464,1080.17599 1034.176,1081.904 C1032.73599,1088.81603 1030.38402,1099.27993 1027.12,1113.296 C1027.312,1111.66399 1027.552,1109.26402 1027.84,1106.096 C1027.744,1106 1027.696,1105.88 1027.696,1105.736 C1027.696,1105.592 1027.648,1105.472 1027.552,1105.376 C1027.456,1105.664 1027.216,1106.096 1026.832,1106.672 L1029.424,1092.848 C1029.136,1092.56 1028.944,1092.416 1028.848,1092.416 C1028.752,1092.416 1028.656,1092.56 1028.56,1092.848 C1027.984,1097.45602 1027.408,1100.95999 1026.832,1103.36 C1026.736,1103.936 1026.496,1104.75199 1026.112,1105.808 C1026.016,1105.904 1025.944,1106.024 1025.896,1106.168 C1025.848,1106.312 1025.68,1106.384 1025.392,1106.384 C1025.104,1106.384 1024.96,1106.288 1024.96,1106.096 L1024.96,1105.808 C1024.288,1107.44001 1023.808,1109.59999 1023.52,1112.288 C1023.04,1116.41602 1022.752,1118.672 1022.656,1119.056 C1022.56,1120.11201 1022.32,1121.64799 1021.936,1123.664 C1021.744,1123.952 1021.456,1124.384 1021.072,1124.96 C1020.976,1124.672 1020.736,1124.24 1020.352,1123.664 C1020.256,1123.76 1020.208,1124.048 1020.208,1124.528 C1020.208,1124.816 1020.544,1125.248 1021.216,1125.824 C1021.312,1126.208 1021.312,1126.832 1021.216,1127.696 L1022.368,1127.84 L1022.368,1127.12 C1022.368,1127.12 1022.464,1127.264 1022.656,1127.552 C1022.944,1127.168 1024.28799,1126.784 1026.688,1126.4 C1027.168,1126.4 1027.84,1126.352 1028.704,1126.256 C1029.664,1125.68 1030.95999,1125.056 1032.592,1124.384 C1032.592,1125.344 1032.784,1126.112 1033.168,1126.688 C1032.784,1126.88 1032.256,1127.408 1031.584,1128.272 C1035.52002,1132.20802 1037.872,1134.176 1038.64,1134.176 C1038.832,1134.176 1039.024,1134.08 1039.216,1133.888 C1039.216,1134.176 1039.12,1134.416 1038.928,1134.608 C1039.6,1135.184 1040.75199,1135.952 1042.384,1136.912 C1042.48,1137.2 1042.24,1137.68 1041.664,1138.352 C1042.048,1138.736 1042.432,1138.928 1042.816,1138.928 L1043.536,1138.928 C1043.824,1138.832 1043.968,1138.784 1043.968,1138.784 C1040.51198,1140.41601 1038.784,1141.424 1038.784,1141.808 C1038.784,1142 1039.55199,1143.15199 1041.088,1145.264 C1040.128,1145.552 1038.64001,1146.08 1036.624,1146.848 C1036.528,1146.848 1036.576,1146.944 1036.768,1147.136 C1040.80002,1146.272 1043.296,1145.84 1044.256,1145.84 C1044.448,1145.84 1045,1145.912 1045.912,1146.056 C1046.824,1146.2 1047.424,1146.272 1047.712,1146.272 L1047.712,1146.272 Z M998.896,1119.2 L998.608,1119.488 L998.176,1119.056 L998.464,1118.768 L998.896,1119.2 Z M1011.712,1133.888 L1009.984,1134.608 L1009.984,1134.176 L1011.568,1133.6 L1011.712,1133.888 Z M991.984,1123.664 L991.696,1124.384 L991.264,1124.24 L991.552,1123.52 L991.984,1123.664 Z M1000.192,1157.648 L999.472,1158.368 L999.184,1158.08 L999.904,1157.36 L1000.192,1157.648 Z M1032.16,1087.808 L1032.16,1086.8 L1031.728,1086.8 L1031.728,1087.808 L1032.16,1087.808 Z M1031.872,1089.104 L1031.872,1088.384 L1031.44,1088.384 L1031.44,1089.104 L1031.872,1089.104 Z M1031.44,1092.56 L1031.44,1091.552 L1031.008,1091.552 L1031.008,1092.56 L1031.44,1092.56 Z M1030.576,1125.824 L1030.288,1125.68 L1029.856,1126.4 L1030.288,1126.544 L1030.576,1125.824 Z M1016.32,1115.744 L1015.888,1115.6 L1015.6,1116.32 L1016.032,1116.464 L1016.32,1115.744 Z M1031.872,1127.12 C1031.68,1127.12 1031.44,1127.072 1031.152,1126.976 C1030.864,1126.88 1030.624,1126.832 1030.432,1126.832 C1029.37599,1126.832 1028.464,1127.45599 1027.696,1128.704 C1027.408,1128.32 1027.168,1128.128 1026.976,1128.128 C1027.264,1128.128 1026.25601,1128.512 1023.952,1129.28 C1024.816,1129.76 1025.344,1130 1025.536,1130 C1025.728,1130 1026.136,1129.808 1026.76,1129.424 C1027.384,1129.04 1027.792,1128.848 1027.984,1128.848 C1028.272,1128.848 1028.704,1129.232 1029.28,1130 C1030.62401,1129.232 1031.296,1128.848 1031.296,1128.848 C1031.296,1128.08 1031.488,1127.504 1031.872,1127.12 L1031.872,1127.12 Z M1018.336,1152.752 L1018.336,1152.32 L1017.616,1152.32 L1017.616,1152.752 L1018.336,1152.752 Z M1095.808,1052.96 C1095.808,1053.536 1095.688,1053.896 1095.448,1054.04 C1095.208,1054.184 1094.896,1054.4 1094.512,1054.688 C1093.16799,1054.88 1091.77601,1055.74399 1090.336,1057.28 C1089.76,1057.664 1088.84801,1058.336 1087.6,1059.296 C1084.14398,1063.04002 1079.72803,1068.17597 1074.352,1074.704 C1074.256,1074.32 1074.208,1074.08 1074.208,1073.984 C1077.56802,1069.85598 1080.87998,1065.72802 1084.144,1061.6 C1088.17602,1056.89598 1091.58399,1053.82401 1094.368,1052.384 L1095.376,1052.384 C1095.376,1052.768 1095.52,1052.96 1095.808,1052.96 L1095.808,1052.96 Z M1090.624,1107.248 L1090.336,1108.256 L1089.904,1108.112 L1090.336,1107.248 L1090.624,1107.248 Z M1090.336,1108.544 L1090.048,1109.552 L1089.76,1109.408 L1090.048,1108.544 L1090.336,1108.544 Z M1090.624,1115.312 L1090.192,1115.312 L1090.192,1114.592 L1090.624,1114.592 L1090.624,1115.312 Z M1103.008,1125.68 C1103.008,1125.968 1102.744,1126.4 1102.216,1126.976 C1101.688,1127.552 1101.28,1127.84 1100.992,1127.84 L1098.832,1127.84 L1098.256,1127.12 C1098.352,1126.736 1098.544,1126.208 1098.832,1125.536 C1099.6,1124.768 1100.368,1124.384 1101.136,1124.384 C1102.38401,1124.384 1103.008,1124.816 1103.008,1125.68 L1103.008,1125.68 Z M1111.216,1146.272 C1090.7679,1151.26402 1080.16,1153.76 1079.392,1153.76 C1079.2,1153.76 1078.936,1153.712 1078.6,1153.616 C1078.264,1153.52 1078,1153.472 1077.808,1153.472 C1077.52,1153.472 1075.98401,1153.928 1073.2,1154.84 C1070.41599,1155.752 1068.928,1156.208 1068.736,1156.208 C1068.544,1156.208 1068.496,1156.112 1068.592,1155.92 C1068.688,1155.728 1068.592,1155.632 1068.304,1155.632 C1064.84798,1155.632 1062.06401,1156.49599 1059.952,1158.224 C1059.184,1158.224 1058.03201,1158.608 1056.496,1159.376 L1056.64,1159.52 C1056.928,1159.52 1057.408,1159.376 1058.08,1159.088 L1059.088,1159.088 C1059.472,1159.472 1059.664,1159.904 1059.664,1160.384 C1059.664,1160.864 1059.232,1161.344 1058.368,1161.824 C1057.504,1162.304 1056.784,1162.544 1056.208,1162.544 L1054.048,1162.544 L1054.048,1161.536 C1055.10401,1161.152 1055.632,1160.576 1055.632,1159.808 C1055.536,1159.712 1055.248,1159.664 1054.768,1159.664 C1054.48,1159.664 1054.336,1159.712 1054.336,1159.808 C1054.336,1160 1054.24,1160.096 1054.048,1160.096 C1053.856,1160.096 1053.784,1160.048 1053.832,1159.952 C1053.88,1159.856 1053.76,1159.808 1053.472,1159.808 C1053.28,1159.808 1053.184,1159.904 1053.184,1160.096 C1053.184,1160.288 1053.088,1160.384 1052.896,1160.384 C1052.992,1160.384 1052.824,1160.288 1052.392,1160.096 C1051.96,1159.904 1051.02401,1159.808 1049.584,1159.808 C1049.584,1159.424 1049.68,1159.136 1049.872,1158.944 C1049.392,1158.752 1048.672,1158.32 1047.712,1157.648 C1047.712,1156.976 1047.976,1156.232 1048.504,1155.416 C1049.032,1154.6 1049.296,1154.192 1049.296,1154.192 C1049.296,1153.52 1049.2,1152.8 1049.008,1152.032 C1048.816,1151.552 1048.288,1151.216 1047.424,1151.024 C1046.17599,1149.00799 1045.552,1148.096 1045.552,1148.288 C1045.552,1146.84799 1049.96796,1144.11202 1058.8,1140.08 L1058.8,1139.216 C1058.32,1139.408 1057.984,1139.504 1057.792,1139.504 L1057.216,1138.784 C1059.04001,1137.05599 1061.39199,1135.712 1064.272,1134.752 C1066.96001,1134.08 1069.69599,1133.408 1072.48,1132.736 C1070.27199,1133.504 1067.15202,1134.99199 1063.12,1137.2 C1063.312,1137.488 1063.696,1137.632 1064.272,1137.632 C1064.464,1137.632 1065.90399,1137.10401 1068.592,1136.048 C1071.28001,1134.99199 1072.72,1134.464 1072.912,1134.464 C1073.2,1134.464 1073.296,1134.56 1073.2,1134.752 C1073.104,1134.944 1073.152,1135.04 1073.344,1135.04 C1073.536,1135.04 1073.92,1134.944 1074.496,1134.752 C1075.072,1134.56 1075.6,1134.464 1076.08,1134.464 C1076.176,1132.25599 1076.32,1128.65602 1076.512,1123.664 L1079.968,1097.456 C1079.776,1096.976 1079.584,1096.592 1079.392,1096.304 C1078.432,1097.55201 1078,1098.368 1078.096,1098.752 L1077.52,1098.176 C1074.44798,1100.48001 1071.66401,1103.45598 1069.168,1107.104 C1067.05599,1110.17602 1064.94401,1113.29598 1062.832,1116.464 C1062.64,1116.752 1062.544,1117.184 1062.544,1117.76 C1062.16,1117.952 1061.632,1118.384 1060.96,1119.056 C1060.096,1120.11201 1058.80001,1121.79199 1057.072,1124.096 C1057.072,1123.52 1056.976,1123.184 1056.784,1123.088 C1056.688,1123.184 1056.592,1123.304 1056.496,1123.448 C1056.4,1123.592 1056.304,1123.712 1056.208,1123.808 C1056.208,1124 1056.87999,1122.70401 1058.224,1119.92 C1058.416,1119.44 1058.464,1119.008 1058.368,1118.624 C1059.136,1118.528 1059.904,1117.23201 1060.672,1114.736 C1060.864,1114.64 1060.72,1114.592 1060.24,1114.592 C1059.376,1114.592 1058.32001,1115.45599 1057.072,1117.184 C1056.688,1117.088 1056.304,1116.656 1055.92,1115.888 C1055.728,1115.888 1055.584,1115.936 1055.488,1116.032 C1055.392,1116.128 1054.09601,1117.85598 1051.6,1121.216 C1051.696,1120.64 1052.08,1119.872 1052.752,1118.912 C1052.752,1118.624 1052.704,1118.432 1052.608,1118.336 C1050.11199,1119.58401 1048.96,1120.208 1049.152,1120.208 L1047.712,1120.208 C1047.712,1120.112 1047.664,1119.92 1047.568,1119.632 C1047.472,1119.344 1047.424,1119.056 1047.424,1118.768 C1047.424,1118.384 1047.472,1118.096 1047.568,1117.904 C1048.72001,1116.55999 1049.296,1115.792 1049.296,1115.6 C1049.296,1114.928 1048.912,1113.82401 1048.144,1112.288 C1047.76,1112.576 1047.52,1112.72 1047.424,1112.72 C1047.808,1112.336 1047.904,1112.048 1047.712,1111.856 C1048,1111.568 1048.384,1111.424 1048.864,1111.424 C1049.056,1111.328 1049.104,1110.944 1049.008,1110.272 C1049.392,1108.92799 1050.064,1107.05601 1051.024,1104.656 C1051.408,1104.272 1052.032,1103.696 1052.896,1102.928 C1052.992,1102.64 1053.136,1102.208 1053.328,1101.632 C1059.37603,1093.18396 1064.70398,1086.36803 1069.312,1081.184 C1074.01602,1076.28798 1081.45595,1068.41605 1091.632,1057.568 C1092.016,1057.568 1092.544,1057.424 1093.216,1057.136 C1093.216,1057.328 1093.024,1057.904 1092.64,1058.864 C1092.352,1059.536 1092.448,1060.112 1092.928,1060.592 C1093.98401,1059.92 1095.56799,1058.96001 1097.68,1057.712 C1097.776,1057.904 1097.68,1058.144 1097.392,1058.432 C1097.488,1058.528 1097.68,1058.96 1097.968,1059.728 C1098.16,1060.112 1098.4,1060.304 1098.688,1060.304 C1099.36,1060.304 1099.696,1059.968 1099.696,1059.296 C1099.696,1059.008 1099.6,1058.552 1099.408,1057.928 C1099.216,1057.304 1099.12,1056.992 1099.12,1056.992 C1101.32801,1055.83999 1102.432,1055.264 1102.432,1055.264 C1102.72,1055.264 1103.008,1055.312 1103.296,1055.408 C1103.584,1055.504 1103.728,1055.552 1103.728,1055.552 C1104.016,1056.60801 1103.92,1057.568 1103.44,1058.432 C1103.632,1059.008 1103.728,1059.344 1103.728,1059.44 C1102.38399,1060.4 1101.712,1061.50399 1101.712,1062.752 C1101.712,1063.52 1101.952,1064.192 1102.432,1064.768 C1102.048,1065.152 1101.616,1065.776 1101.136,1066.64 L1101.136,1067.36 C1101.04,1067.456 1101.184,1067.504 1101.568,1067.504 C1101.76,1067.504 1102.192,1067.264 1102.864,1066.784 C1103.536,1066.304 1104.016,1066.016 1104.304,1065.92 C1104.496,1066.112 1104.592,1066.352 1104.592,1066.64 C1104.592,1066.832 1103.96801,1067.69599 1102.72,1069.232 C1101.18399,1071.05601 1100.224,1072.448 1099.84,1073.408 C1099.456,1074.368 1098.976,1075.90399 1098.4,1078.016 C1098.208,1078.88 1097.968,1080.17599 1097.68,1081.904 C1096.23999,1088.81603 1093.88802,1099.27993 1090.624,1113.296 C1090.816,1111.66399 1091.056,1109.26402 1091.344,1106.096 C1091.248,1106 1091.2,1105.88 1091.2,1105.736 C1091.2,1105.592 1091.152,1105.472 1091.056,1105.376 C1090.96,1105.664 1090.72,1106.096 1090.336,1106.672 L1092.928,1092.848 C1092.64,1092.56 1092.448,1092.416 1092.352,1092.416 C1092.256,1092.416 1092.16,1092.56 1092.064,1092.848 C1091.488,1097.45602 1090.912,1100.95999 1090.336,1103.36 C1090.24,1103.936 1090,1104.75199 1089.616,1105.808 C1089.52,1105.904 1089.448,1106.024 1089.4,1106.168 C1089.352,1106.312 1089.184,1106.384 1088.896,1106.384 C1088.608,1106.384 1088.464,1106.288 1088.464,1106.096 L1088.464,1105.808 C1087.792,1107.44001 1087.312,1109.59999 1087.024,1112.288 C1086.544,1116.41602 1086.256,1118.672 1086.16,1119.056 C1086.064,1120.11201 1085.824,1121.64799 1085.44,1123.664 C1085.248,1123.952 1084.96,1124.384 1084.576,1124.96 C1084.48,1124.672 1084.24,1124.24 1083.856,1123.664 C1083.76,1123.76 1083.712,1124.048 1083.712,1124.528 C1083.712,1124.816 1084.048,1125.248 1084.72,1125.824 C1084.816,1126.208 1084.816,1126.832 1084.72,1127.696 L1085.872,1127.84 L1085.872,1127.12 C1085.872,1127.12 1085.968,1127.264 1086.16,1127.552 C1086.448,1127.168 1087.79199,1126.784 1090.192,1126.4 C1090.672,1126.4 1091.344,1126.352 1092.208,1126.256 C1093.168,1125.68 1094.46399,1125.056 1096.096,1124.384 C1096.096,1125.344 1096.288,1126.112 1096.672,1126.688 C1096.288,1126.88 1095.76,1127.408 1095.088,1128.272 C1099.02402,1132.20802 1101.376,1134.176 1102.144,1134.176 C1102.336,1134.176 1102.528,1134.08 1102.72,1133.888 C1102.72,1134.176 1102.624,1134.416 1102.432,1134.608 C1103.104,1135.184 1104.25599,1135.952 1105.888,1136.912 C1105.984,1137.2 1105.744,1137.68 1105.168,1138.352 C1105.552,1138.736 1105.936,1138.928 1106.32,1138.928 L1107.04,1138.928 C1107.328,1138.832 1107.472,1138.784 1107.472,1138.784 C1104.01598,1140.41601 1102.288,1141.424 1102.288,1141.808 C1102.288,1142 1103.05599,1143.15199 1104.592,1145.264 C1103.632,1145.552 1102.14401,1146.08 1100.128,1146.848 C1100.032,1146.848 1100.08,1146.944 1100.272,1147.136 C1104.30402,1146.272 1106.8,1145.84 1107.76,1145.84 C1107.952,1145.84 1108.504,1145.912 1109.416,1146.056 C1110.328,1146.2 1110.928,1146.272 1111.216,1146.272 L1111.216,1146.272 Z M1062.4,1119.2 L1062.112,1119.488 L1061.68,1119.056 L1061.968,1118.768 L1062.4,1119.2 Z M1075.216,1133.888 L1073.488,1134.608 L1073.488,1134.176 L1075.072,1133.6 L1075.216,1133.888 Z M1055.488,1123.664 L1055.2,1124.384 L1054.768,1124.24 L1055.056,1123.52 L1055.488,1123.664 Z M1063.696,1157.648 L1062.976,1158.368 L1062.688,1158.08 L1063.408,1157.36 L1063.696,1157.648 Z M1095.664,1087.808 L1095.664,1086.8 L1095.232,1086.8 L1095.232,1087.808 L1095.664,1087.808 Z M1095.376,1089.104 L1095.376,1088.384 L1094.944,1088.384 L1094.944,1089.104 L1095.376,1089.104 Z M1094.944,1092.56 L1094.944,1091.552 L1094.512,1091.552 L1094.512,1092.56 L1094.944,1092.56 Z M1094.08,1125.824 L1093.792,1125.68 L1093.36,1126.4 L1093.792,1126.544 L1094.08,1125.824 Z M1079.824,1115.744 L1079.392,1115.6 L1079.104,1116.32 L1079.536,1116.464 L1079.824,1115.744 Z M1095.376,1127.12 C1095.184,1127.12 1094.944,1127.072 1094.656,1126.976 C1094.368,1126.88 1094.128,1126.832 1093.936,1126.832 C1092.87999,1126.832 1091.968,1127.45599 1091.2,1128.704 C1090.912,1128.32 1090.672,1128.128 1090.48,1128.128 C1090.768,1128.128 1089.76001,1128.512 1087.456,1129.28 C1088.32,1129.76 1088.848,1130 1089.04,1130 C1089.232,1130 1089.64,1129.808 1090.264,1129.424 C1090.888,1129.04 1091.296,1128.848 1091.488,1128.848 C1091.776,1128.848 1092.208,1129.232 1092.784,1130 C1094.12801,1129.232 1094.8,1128.848 1094.8,1128.848 C1094.8,1128.08 1094.992,1127.504 1095.376,1127.12 L1095.376,1127.12 Z M1081.84,1152.752 L1081.84,1152.32 L1081.12,1152.32 L1081.12,1152.752 L1081.84,1152.752 Z" id="11"></path>
        </g>
    </g>
</svg>