<?xml version="1.0" encoding="UTF-8" standalone="no"?>
<svg width="157px" height="111px" viewBox="0 0 157 111" version="1.1" xmlns="http://www.w3.org/2000/svg" xmlns:xlink="http://www.w3.org/1999/xlink">
    <!-- Generator: Sketch 3.6.1 (26313) - http://www.bohemiancoding.com/sketch -->
    <title>12</title>
    <desc>Created with Sketch.</desc>
    <defs></defs>
    <g id="Page-1" stroke="none" stroke-width="1" fill="none" fill-rule="evenodd">
        <g id="Desktop2" transform="translate(-970.000000, -859.000000)" fill="#D71955">
            <path d="M1020.304,859.96 C1020.304,860.536003 1020.184,860.895999 1019.944,861.04 C1019.704,861.184001 1019.392,861.399999 1019.008,861.688 C1017.66399,861.880001 1016.27201,862.743992 1014.832,864.28 C1014.256,864.664002 1013.34401,865.335995 1012.096,866.296 C1008.63998,870.040019 1004.22403,875.175967 998.848,881.704 C998.752,881.319998 998.704,881.08 998.704,880.984 C1002.06402,876.855979 1005.37598,872.728021 1008.64,868.6 C1012.67202,863.895976 1016.07999,860.824007 1018.864,859.384 L1019.872,859.384 C1019.872,859.768002 1020.016,859.96 1020.304,859.96 L1020.304,859.96 Z M1015.12,914.248 L1014.832,915.256 L1014.4,915.112 L1014.832,914.248 L1015.12,914.248 Z M1014.832,915.544 L1014.544,916.552 L1014.256,916.408 L1014.544,915.544 L1014.832,915.544 Z M1015.12,922.312 L1014.688,922.312 L1014.688,921.592 L1015.12,921.592 L1015.12,922.312 Z M1027.504,932.68 C1027.504,932.968001 1027.24,933.399997 1026.712,933.976 C1026.184,934.552003 1025.776,934.84 1025.488,934.84 L1023.328,934.84 L1022.752,934.12 C1022.848,933.735998 1023.04,933.208003 1023.328,932.536 C1024.096,931.767996 1024.864,931.384 1025.632,931.384 C1026.88001,931.384 1027.504,931.815996 1027.504,932.68 L1027.504,932.68 Z M1035.712,953.272 C1015.2639,958.264025 1004.656,960.76 1003.888,960.76 C1003.696,960.76 1003.432,960.712 1003.096,960.616 C1002.76,960.52 1002.496,960.472 1002.304,960.472 C1002.016,960.472 1000.48001,960.927995 997.696,961.84 C994.911986,962.752005 993.424001,963.208 993.232,963.208 C993.039999,963.208 992.992,963.112001 993.088,962.92 C993.184,962.727999 993.088001,962.632 992.8,962.632 C989.343983,962.632 986.560011,963.495991 984.448,965.224 C983.679996,965.224 982.528008,965.607996 980.992,966.376 L981.136,966.52 C981.424001,966.52 981.903997,966.376001 982.576,966.088 L983.584,966.088 C983.968002,966.472002 984.16,966.903998 984.16,967.384 C984.16,967.864002 983.728004,968.343998 982.864,968.824 C981.999996,969.304002 981.280003,969.544 980.704,969.544 L978.544,969.544 L978.544,968.536 C979.600005,968.151998 980.128,967.576004 980.128,966.808 C980.032,966.712 979.744002,966.664 979.264,966.664 C978.975999,966.664 978.832,966.712 978.832,966.808 C978.832,967.000001 978.736001,967.096 978.544,967.096 C978.351999,967.096 978.28,967.048 978.328,966.952 C978.376,966.856 978.256001,966.808 977.968,966.808 C977.775999,966.808 977.68,966.903999 977.68,967.096 C977.68,967.288001 977.584001,967.384 977.392,967.384 C977.488,967.384 977.320002,967.288001 976.888,967.096 C976.455998,966.903999 975.520007,966.808 974.08,966.808 C974.08,966.423998 974.175999,966.136001 974.368,965.944 C973.887998,965.751999 973.168005,965.320003 972.208,964.648 C972.208,963.975997 972.471997,963.232004 973,962.416 C973.528003,961.599996 973.792,961.192 973.792,961.192 C973.792,960.519997 973.696001,959.800004 973.504,959.032 C973.311999,958.551998 972.784004,958.216001 971.92,958.024 C970.671994,956.00799 970.048,955.095999 970.048,955.288 C970.048,953.847993 974.463956,951.11202 983.296,947.08 L983.296,946.216 C982.815998,946.408001 982.480001,946.504 982.288,946.504 L981.712,945.784 C983.536009,944.055991 985.887986,942.712005 988.768,941.752 C991.456013,941.079997 994.191986,940.408003 996.976,939.736 C994.767989,940.504004 991.64802,941.991989 987.616,944.2 C987.808001,944.488001 988.191997,944.632 988.768,944.632 C988.960001,944.632 990.399987,944.104005 993.088,943.048 C995.776013,941.991995 997.215999,941.464 997.408,941.464 C997.696001,941.464 997.792,941.559999 997.696,941.752 C997.6,941.944001 997.647999,942.04 997.84,942.04 C998.032001,942.04 998.415997,941.944001 998.992,941.752 C999.568003,941.559999 1000.096,941.464 1000.576,941.464 C1000.672,939.255989 1000.816,935.656025 1001.008,930.664 L1004.464,904.456 C1004.272,903.975998 1004.08,903.592001 1003.888,903.304 C1002.928,904.552006 1002.496,905.367998 1002.592,905.752 L1002.016,905.176 C998.943985,907.480012 996.160012,910.455982 993.664,914.104 C991.551989,917.176015 989.440011,920.295984 987.328,923.464 C987.135999,923.752001 987.04,924.183997 987.04,924.76 C986.655998,924.952001 986.128003,925.383997 985.456,926.056 C984.591996,927.112005 983.296009,928.791988 981.568,931.096 C981.568,930.519997 981.472001,930.184 981.28,930.088 C981.184,930.184 981.088,930.303999 980.992,930.448 C980.896,930.592001 980.8,930.712 980.704,930.808 C980.704,931.000001 981.375993,929.704014 982.72,926.92 C982.912001,926.439998 982.96,926.008002 982.864,925.624 C983.632004,925.528 984.399996,924.232012 985.168,921.736 C985.360001,921.64 985.216002,921.592 984.736,921.592 C983.871996,921.592 982.816006,922.455991 981.568,924.184 C981.183998,924.088 980.800002,923.656004 980.416,922.888 C980.223999,922.888 980.08,922.936 979.984,923.032 C979.888,923.128 978.592012,924.855983 976.096,928.216 C976.192,927.639997 976.575997,926.872005 977.248,925.912 C977.248,925.623999 977.2,925.432 977.104,925.336 C974.607988,926.584006 973.455999,927.208 973.648,927.208 L972.208,927.208 C972.208,927.112 972.16,926.920001 972.064,926.632 C971.968,926.343999 971.92,926.056001 971.92,925.768 C971.92,925.383998 971.968,925.096001 972.064,924.904 C973.216006,923.559993 973.792,922.792001 973.792,922.6 C973.792,921.927997 973.408004,920.824008 972.64,919.288 C972.255998,919.576001 972.016,919.72 971.92,919.72 C972.304002,919.335998 972.400001,919.048001 972.208,918.856 C972.496001,918.567999 972.879998,918.424 973.36,918.424 C973.552001,918.328 973.6,917.944003 973.504,917.272 C973.888002,915.927993 974.559995,914.056012 975.52,911.656 C975.904002,911.271998 976.527996,910.696004 977.392,909.928 C977.488,909.639999 977.631999,909.208003 977.824,908.632 C983.87203,900.183958 989.199977,893.368026 993.808,888.184 C998.512024,883.287976 1005.95195,875.416054 1016.128,864.568 C1016.512,864.568 1017.04,864.424001 1017.712,864.136 C1017.712,864.328001 1017.52,864.903995 1017.136,865.864 C1016.848,866.536003 1016.944,867.111998 1017.424,867.592 C1018.48001,866.919997 1020.06399,865.960006 1022.176,864.712 C1022.272,864.904001 1022.176,865.143999 1021.888,865.432 C1021.984,865.528 1022.176,865.959996 1022.464,866.728 C1022.656,867.112002 1022.896,867.304 1023.184,867.304 C1023.856,867.304 1024.192,866.968003 1024.192,866.296 C1024.192,866.007999 1024.096,865.552003 1023.904,864.928 C1023.712,864.303997 1023.616,863.992 1023.616,863.992 C1025.82401,862.839994 1026.928,862.264 1026.928,862.264 C1027.216,862.264 1027.504,862.312 1027.792,862.408 C1028.08,862.504 1028.224,862.552 1028.224,862.552 C1028.512,863.608005 1028.416,864.567996 1027.936,865.432 C1028.128,866.008003 1028.224,866.344 1028.224,866.44 C1026.87999,867.400005 1026.208,868.503994 1026.208,869.752 C1026.208,870.520004 1026.448,871.191997 1026.928,871.768 C1026.544,872.152002 1026.112,872.775996 1025.632,873.64 L1025.632,874.36 C1025.536,874.456 1025.68,874.504 1026.064,874.504 C1026.256,874.504 1026.688,874.264002 1027.36,873.784 C1028.032,873.303998 1028.512,873.016 1028.8,872.92 C1028.992,873.112001 1029.088,873.351999 1029.088,873.64 C1029.088,873.832001 1028.46401,874.695992 1027.216,876.232 C1025.67999,878.056009 1024.72,879.447995 1024.336,880.408 C1023.952,881.368005 1023.472,882.903989 1022.896,885.016 C1022.704,885.880004 1022.464,887.175991 1022.176,888.904 C1020.73599,895.816035 1018.38402,906.27993 1015.12,920.296 C1015.312,918.663992 1015.552,916.264016 1015.84,913.096 C1015.744,913 1015.696,912.880001 1015.696,912.736 C1015.696,912.591999 1015.648,912.472 1015.552,912.376 C1015.456,912.664001 1015.216,913.095997 1014.832,913.672 L1017.424,899.848 C1017.136,899.559999 1016.944,899.416 1016.848,899.416 C1016.752,899.416 1016.656,899.559999 1016.56,899.848 C1015.984,904.456023 1015.408,907.959988 1014.832,910.36 C1014.736,910.936003 1014.496,911.751995 1014.112,912.808 C1014.016,912.904 1013.944,913.023999 1013.896,913.168 C1013.848,913.312001 1013.68,913.384 1013.392,913.384 C1013.104,913.384 1012.96,913.288001 1012.96,913.096 L1012.96,912.808 C1012.288,914.440008 1011.808,916.599987 1011.52,919.288 C1011.04,923.416021 1010.752,925.671998 1010.656,926.056 C1010.56,927.112005 1010.32,928.64799 1009.936,930.664 C1009.744,930.952001 1009.456,931.383997 1009.072,931.96 C1008.976,931.671999 1008.736,931.240003 1008.352,930.664 C1008.256,930.76 1008.208,931.047998 1008.208,931.528 C1008.208,931.816001 1008.544,932.247997 1009.216,932.824 C1009.312,933.208002 1009.312,933.831996 1009.216,934.696 L1010.368,934.84 L1010.368,934.12 C1010.368,934.12 1010.464,934.263999 1010.656,934.552 C1010.944,934.167998 1012.28799,933.784002 1014.688,933.4 C1015.168,933.4 1015.84,933.352 1016.704,933.256 C1017.664,932.679997 1018.95999,932.056003 1020.592,931.384 C1020.592,932.344005 1020.784,933.111997 1021.168,933.688 C1020.784,933.880001 1020.256,934.407996 1019.584,935.272 C1023.52002,939.20802 1025.872,941.176 1026.64,941.176 C1026.832,941.176 1027.024,941.080001 1027.216,940.888 C1027.216,941.176001 1027.12,941.415999 1026.928,941.608 C1027.6,942.184003 1028.75199,942.951995 1030.384,943.912 C1030.48,944.200001 1030.24,944.679997 1029.664,945.352 C1030.048,945.736002 1030.432,945.928 1030.816,945.928 L1031.536,945.928 C1031.824,945.832 1031.968,945.784 1031.968,945.784 C1028.51198,947.416008 1026.784,948.423998 1026.784,948.808 C1026.784,949.000001 1027.55199,950.151989 1029.088,952.264 C1028.128,952.552001 1026.64001,953.079996 1024.624,953.848 C1024.528,953.848 1024.576,953.943999 1024.768,954.136 C1028.80002,953.271996 1031.296,952.84 1032.256,952.84 C1032.448,952.84 1033,952.911999 1033.912,953.056 C1034.824,953.200001 1035.424,953.272 1035.712,953.272 L1035.712,953.272 Z M986.896,926.2 L986.608,926.488 L986.176,926.056 L986.464,925.768 L986.896,926.2 Z M999.712,940.888 L997.984,941.608 L997.984,941.176 L999.568,940.6 L999.712,940.888 Z M979.984,930.664 L979.696,931.384 L979.264,931.24 L979.552,930.52 L979.984,930.664 Z M988.192,964.648 L987.472,965.368 L987.184,965.08 L987.904,964.36 L988.192,964.648 Z M1020.16,894.808 L1020.16,893.8 L1019.728,893.8 L1019.728,894.808 L1020.16,894.808 Z M1019.872,896.104 L1019.872,895.384 L1019.44,895.384 L1019.44,896.104 L1019.872,896.104 Z M1019.44,899.56 L1019.44,898.552 L1019.008,898.552 L1019.008,899.56 L1019.44,899.56 Z M1018.576,932.824 L1018.288,932.68 L1017.856,933.4 L1018.288,933.544 L1018.576,932.824 Z M1004.32,922.744 L1003.888,922.6 L1003.6,923.32 L1004.032,923.464 L1004.32,922.744 Z M1019.872,934.12 C1019.68,934.12 1019.44,934.072 1019.152,933.976 C1018.864,933.88 1018.624,933.832 1018.432,933.832 C1017.37599,933.832 1016.464,934.455994 1015.696,935.704 C1015.408,935.319998 1015.168,935.128 1014.976,935.128 C1015.264,935.128 1014.25601,935.511996 1011.952,936.28 C1012.816,936.760002 1013.344,937 1013.536,937 C1013.728,937 1014.136,936.808002 1014.76,936.424 C1015.384,936.039998 1015.792,935.848 1015.984,935.848 C1016.272,935.848 1016.704,936.231996 1017.28,937 C1018.62401,936.231996 1019.296,935.848 1019.296,935.848 C1019.296,935.079996 1019.488,934.504002 1019.872,934.12 L1019.872,934.12 Z M1006.336,959.752 L1006.336,959.32 L1005.616,959.32 L1005.616,959.752 L1006.336,959.752 Z M1121.104,862.84 L1119.664,863.416 L1119.664,862.984 L1120.96,862.408 L1121.104,862.84 Z M1117.216,860.536 L1116.352,860.968 L1116.352,860.536 L1117.072,860.104 L1117.216,860.536 Z M1120.528,864.712 L1119.664,865.144 L1119.664,864.712 L1120.384,864.424 L1120.528,864.712 Z M1126.144,873.64 L1126,874.072 L1124.992,873.784 L1124.992,873.352 L1126.144,873.64 Z M1118.368,867.304 L1118.08,867.592 L1117.648,867.16 L1117.936,866.872 L1118.368,867.304 Z M1125.28,875.368 C1125.184,875.368 1124.968,875.463999 1124.632,875.656 C1124.296,875.848001 1123.984,875.944 1123.696,875.944 C1123.696,875.944 1123.504,875.752002 1123.12,875.368 L1123.12,875.944 C1123.12,876.136001 1122.976,876.232 1122.688,876.232 C1122.208,876.232 1122.016,876.136001 1122.112,875.944 C1123.74401,875.175996 1124.464,874.792 1124.272,874.792 C1124.656,874.792 1124.992,874.983998 1125.28,875.368 L1125.28,875.368 Z M1088.416,869.896 L1087.984,870.184 L1087.12,868.888 L1087.408,868.6 L1088.416,869.896 Z M1089.712,872.344 L1089.424,872.632 L1088.992,872.2 L1089.28,871.912 L1089.712,872.344 Z M1097.632,893.8 L1097.2,893.8 L1096.912,892.936 L1097.344,892.792 L1097.632,893.8 Z M1116.64,916.408 C1115.968,916.408 1114.86401,916.623998 1113.328,917.056 C1111.79199,917.488002 1110.976,917.704 1110.88,917.704 L1109.584,917.704 C1112.36801,916.647995 1114.71999,916.215999 1116.64,916.408 L1116.64,916.408 Z M1097.344,904.888 L1097.056,905.608 L1096.624,905.464 L1096.912,904.744 L1097.344,904.888 Z M1122.688,936.568 L1121.104,936.568 L1121.104,936.136 L1122.688,936.136 L1122.688,936.568 Z M1061.488,882.856 L1060.768,883.576 L1060.48,883.288 L1061.2,882.568 L1061.488,882.856 Z M1060.048,884.872 L1058.752,886.168 L1058.464,885.736 L1059.76,884.584 L1060.048,884.872 Z M1065.664,890.92 C1065.664,891.112001 1065.232,892.263989 1064.368,894.376 C1063.696,894.568001 1063.312,894.664 1063.216,894.664 C1062.928,894.664 1062.664,894.616 1062.424,894.52 C1062.184,894.424 1062.064,894.376 1062.064,894.376 C1062.064,894.376 1061.992,894.256001 1061.848,894.016 C1061.704,893.775999 1061.632,893.560001 1061.632,893.368 C1061.632,891.927993 1062.54399,890.584006 1064.368,889.336 C1065.232,889.816002 1065.664,890.343997 1065.664,890.92 L1065.664,890.92 Z M1054.288,890.056 L1053.856,890.344 L1053.136,889.336 L1053.568,889.048 L1054.288,890.056 Z M1124.128,931.528 C1124.128,931.912002 1123.984,932.247999 1123.696,932.536 C1123.216,932.151998 1122.736,931.96 1122.256,931.96 C1121.584,932.152001 1120.768,932.631996 1119.808,933.4 L1119.232,932.824 C1118.656,932.824 1118.176,932.632002 1117.792,932.248 L1117.36,932.824 C1114.57599,932.247997 1113.04,931.96 1112.752,931.96 C1112.272,931.96 1111.6,932.103999 1110.736,932.392 C1111.312,933.064003 1112.65599,933.519999 1114.768,933.76 C1116.88001,934.000001 1118.32,934.407997 1119.088,934.984 L1118.224,934.984 C1118.224,935.272001 1118.08,935.679997 1117.792,936.208 C1117.504,936.736003 1117.36,937.095999 1117.36,937.288 C1117.36,936.999999 1117.504,937.287996 1117.792,938.152 C1117.984,938.536002 1118.32,938.728 1118.8,938.728 C1118.8,938.824 1118.752,939.015999 1118.656,939.304 C1118.56,939.592001 1118.512,939.784 1118.512,939.88 C1118.8,940.072001 1119.28,940.455997 1119.952,941.032 C1119.184,941.896004 1118.10401,942.376 1116.712,942.472 C1115.31999,942.568 1114.528,943.095995 1114.336,944.056 C1114.24,944.056 1114.096,943.960001 1113.904,943.768 C1113.712,943.575999 1113.472,943.48 1113.184,943.48 C1112.992,943.48 1112.944,943.575999 1113.04,943.768 C1113.136,943.960001 1113.04,944.056 1112.752,944.056 C1112.56,944.056 1112.464,943.960001 1112.464,943.768 C1112.464,943.575999 1112.416,943.48 1112.32,943.48 C1111.936,944.152003 1111.408,944.488 1110.736,944.488 C1109.776,944.584 1109.2,944.68 1109.008,944.776 C1109.008,945.352003 1109.152,945.64 1109.44,945.64 C1108.48,945.64 1111.83996,945.400002 1119.52,944.92 L1120.528,944.92 C1120.336,945.112001 1120.24,945.543997 1120.24,946.216 C1118.22399,946.600002 1115.20002,947.031998 1111.168,947.512 C1110.976,947.512 1110.664,947.631999 1110.232,947.872 C1109.8,948.112001 1109.44,948.232 1109.152,948.232 C1108.96,948.232 1108.888,948.136001 1108.936,947.944 C1108.984,947.751999 1108.864,947.656 1108.576,947.656 C1108.384,947.656 1107.976,947.775999 1107.352,948.016 C1106.728,948.256001 1106.224,948.376 1105.84,948.376 C1103.34399,948.568001 1100.99201,949.143995 1098.784,950.104 C1096.95999,950.392001 1094.32002,950.919996 1090.864,951.688 C1087.40798,952.456004 1081.74404,954.231986 1073.872,957.016 C1071.85599,957.976005 1068.49602,959.559989 1063.792,961.768 C1062.832,962.248002 1061.29601,963.159993 1059.184,964.504 C1057.83999,965.464005 1056.64001,965.944 1055.584,965.944 C1054.52799,965.944 1053.52,965.416005 1052.56,964.36 C1052.08,964.264 1051.384,964.072001 1050.472,963.784 C1049.56,963.495999 1049.008,963.352 1048.816,963.352 C1048.624,963.352 1048.12,963.447999 1047.304,963.64 C1046.488,963.832001 1045.984,963.928 1045.792,963.928 C1045.792,963.928 1045.36,963.688002 1044.496,963.208 C1043.824,962.919999 1043.2,962.967998 1042.624,963.352 C1042.528,963.256 1042.336,963.112001 1042.048,962.92 C1042.624,962.92 1043.104,962.728002 1043.488,962.344 C1043.296,961.959998 1042.96,961.336004 1042.48,960.472 C1042.192,960.472 1041.856,960.663998 1041.472,961.048 C1041.472,961.240001 1041.664,961.431999 1042.048,961.624 C1041.76,961.72 1041.616,962.103997 1041.616,962.776 C1041.52,962.199997 1041.088,961.912 1040.32,961.912 C1040.128,961.912 1039.912,962.007999 1039.672,962.2 C1039.432,962.392001 1039.216,962.488 1039.024,962.488 C1039.12,962.488 1038.976,962.296002 1038.592,961.912 C1037.92,962.488003 1037.584,962.776 1037.584,962.776 C1037.104,962.776 1036.48,962.392004 1035.712,961.624 L1035.712,960.616 C1035.904,960.423999 1036.24,960.088002 1036.72,959.608 C1036.624,959.512 1036.192,959.464 1035.424,959.464 C1035.232,959.464 1034.824,959.727997 1034.2,960.256 C1033.576,960.784003 1033.168,961.048 1032.976,961.048 C1032.784,961.048 1032.11201,960.520005 1030.96,959.464 C1030.864,959.656001 1030.816,959.847999 1030.816,960.04 C1030.336,959.751999 1029.712,959.416002 1028.944,959.032 C1028.944,957.975995 1030.52798,956.48801 1033.696,954.568 C1033.696,954.568 1034.08,953.992006 1034.848,952.84 C1034.848,952.744 1034.8,952.648 1034.704,952.552 C1035.664,951.495995 1037.03199,950.152008 1038.808,948.52 C1040.58401,946.887992 1042.52799,945.448006 1044.64,944.2 C1046.46401,943.143995 1048.28799,942.088005 1050.112,941.032 C1050.4,940.455997 1050.784,939.592006 1051.264,938.44 C1050.976,938.920002 1050.688,939.591996 1050.4,940.456 C1050.784,940.744001 1050.976,940.888 1050.976,940.888 C1051.36,940.888 1052.77599,940.264006 1055.224,939.016 C1057.67201,937.767994 1059.232,936.904002 1059.904,936.424 C1059.808,936.616001 1060,936.712 1060.48,936.712 C1060.672,936.712 1060.768,936.76 1060.768,936.856 C1060.768,936.952 1060.864,937 1061.056,937 C1062.20801,937 1064.31998,936.232008 1067.392,934.696 C1067.392,934.696 1067.56,934.528002 1067.896,934.192 C1068.232,933.855998 1068.544,933.688 1068.832,933.688 C1069.024,933.688 1069.144,933.736 1069.192,933.832 C1069.24,933.928 1069.408,933.976 1069.696,933.976 C1070.176,933.976 1071.03999,933.256007 1072.288,931.816 C1071.23199,931.527999 1069.31201,931.767996 1066.528,932.536 C1067.104,932.247999 1068.06399,931.624005 1069.408,930.664 C1070.176,929.223993 1071.37599,927.064014 1073.008,924.184 C1074.25601,922.647992 1075.93599,920.056018 1078.048,916.408 C1080.16001,911.703976 1081.696,906.280031 1082.656,900.136 L1082.656,895.24 C1082.656,892.839988 1082.224,889.912017 1081.36,886.456 C1081.36,885.591996 1081.216,884.296009 1080.928,882.568 C1080.64,881.703996 1080.112,880.432008 1079.344,878.752 C1078.576,877.071992 1077.856,875.992002 1077.184,875.512 C1076.12799,874.839997 1074.64001,873.784007 1072.72,872.344 L1071.568,872.344 C1071.856,872.344 1071.04001,872.679997 1069.12,873.352 C1068.352,873.640001 1067.24801,874.167996 1065.808,874.936 C1065.136,875.704004 1064.17601,876.759993 1062.928,878.104 C1060.91199,879.928009 1059.28001,882.999978 1058.032,887.32 C1057.264,887.800002 1056.496,888.04 1055.728,888.04 C1055.44,888.04 1054.816,887.368007 1053.856,886.024 L1052.128,886.312 L1052.128,887.32 C1052.416,887.512001 1052.8,887.799998 1053.28,888.184 C1052.704,888.184 1052.56,888.375998 1052.848,888.76 C1052.752,888.664 1052.608,888.496001 1052.416,888.256 C1052.224,888.015999 1052.08,887.848 1051.984,887.752 C1051.792,887.944001 1051.552,888.471996 1051.264,889.336 C1051.072,889.24 1050.976,888.664005 1050.976,887.608 C1050.88,887.512 1050.4,887.607999 1049.536,887.896 C1049.344,888.664004 1049.056,889.959991 1048.672,891.784 C1048.48,891.784 1048.24,891.879999 1047.952,892.072 C1048.048,892.840004 1047.808,893.895993 1047.232,895.24 C1046.56,895.047999 1046.224,894.136008 1046.224,892.504 C1046.224,891.831997 1046.272,891.400001 1046.368,891.208 C1046.848,889.959994 1047.376,888.568008 1047.952,887.032 L1047.952,886.024 C1047.76,886.024 1047.664,886.215998 1047.664,886.6 C1047.568,886.6 1047.328,886.695999 1046.944,886.888 C1046.656,886.599999 1046.272,886.168003 1045.792,885.592 C1046.08,885.592 1046.416,885.735999 1046.8,886.024 C1047.376,886.024 1047.712,885.784002 1047.808,885.304 C1048.48,883.767992 1049.296,881.368016 1050.256,878.104 C1049.584,878.776003 1048.67201,880.11999 1047.52,882.136 L1046.944,881.56 C1046.848,881.656 1046.704,881.847999 1046.512,882.136 C1046.32,882.424001 1046.176,882.616 1046.08,882.712 C1045.984,882.616 1045.792,882.448001 1045.504,882.208 C1045.216,881.967999 1045.024,881.8 1044.928,881.704 C1045.6,879.975991 1046.176,878.536006 1046.656,877.384 C1046.944,876.999998 1047.232,876.472003 1047.52,875.8 C1048.57601,871.76798 1052.46397,867.78402 1059.184,863.848 C1059.28,863.559999 1059.568,863.176002 1060.048,862.696 C1062.83201,861.159992 1065.37599,860.008004 1067.68,859.24 C1067.872,859.144 1069.40799,859.096 1072.288,859.096 C1072.576,859.096 1073.72799,859.383997 1075.744,859.96 C1077.76001,860.536003 1078.864,860.824 1079.056,860.824 C1079.632,860.824 1081.50398,861.471994 1084.672,862.768 C1087.84002,864.064006 1089.784,864.951998 1090.504,865.432 C1091.224,865.912002 1092.20799,866.727994 1093.456,867.88 C1094.99201,869.992011 1096.38399,872.919981 1097.632,876.664 C1098.304,878.104007 1099.16799,880.311985 1100.224,883.288 C1100.512,884.824008 1100.992,887.031986 1101.664,889.912 C1101.472,889.623999 1101.088,888.424011 1100.512,886.312 C1100.032,884.775992 1099.648,884.008 1099.36,884.008 C1099.072,884.008 1098.904,884.056 1098.856,884.152 C1098.808,884.248 1098.736,884.296 1098.64,884.296 C1098.928,883.719997 1098.88,882.856006 1098.496,881.704 C1097.824,879.879991 1096.81601,877.288017 1095.472,873.928 C1092.49599,868.167971 1090.14401,865.288 1088.416,865.288 C1086.68799,865.288 1085.824,865.575997 1085.824,866.152 C1085.824,866.056 1086.16,866.679993 1086.832,868.024 C1086.544,867.735999 1086.304,867.735999 1086.112,868.024 C1086.88,869.368007 1087.93599,871.479986 1089.28,874.36 C1089.664,874.36 1089.904,874.264001 1090,874.072 C1089.904,873.976 1089.808,873.832001 1089.712,873.64 C1089.616,873.447999 1089.52,873.304 1089.424,873.208 C1089.424,873.208 1089.544,873.327999 1089.784,873.568 C1090.024,873.808001 1090.288,873.928 1090.576,873.928 C1090.768,873.928 1090.84,873.88 1090.792,873.784 C1090.744,873.688 1090.864,873.64 1091.152,873.64 C1091.92,873.64 1092.496,874.095995 1092.88,875.008 C1093.264,875.920005 1093.624,876.543998 1093.96,876.88 C1094.296,877.216002 1094.464,877.671997 1094.464,878.248 C1094.56,879.016004 1094.464,879.639998 1094.176,880.12 L1094.176,880.264 C1094.464,880.36 1094.896,880.743997 1095.472,881.416 C1096.81601,884.104013 1097.488,887.031984 1097.488,890.2 C1097.488,890.776003 1097.272,891.423996 1096.84,892.144 C1096.408,892.864004 1096.24,893.607996 1096.336,894.376 C1096.048,894.087999 1095.904,894.135998 1095.904,894.52 C1095.904,894.808001 1096,894.976 1096.192,895.024 C1096.384,895.072 1096.528,895.096 1096.624,895.096 C1096.432,895.768003 1096.528,896.391997 1096.912,896.968 C1097.2,896.775999 1097.344,896.104006 1097.344,894.952 C1097.44,896.200006 1097.488,898.071988 1097.488,900.568 C1097.296,900.760001 1097.056,900.999999 1096.768,901.288 C1096.576,902.632007 1096.24,904.503988 1095.76,906.904 C1095.856,907.096001 1095.904,907.335999 1095.904,907.624 C1095.904,908.008002 1095.64,908.751994 1095.112,909.856 C1094.584,910.960006 1094.272,911.751998 1094.176,912.232 C1094.272,912.328 1094.344,912.447999 1094.392,912.592 C1094.44,912.736001 1094.512,912.856 1094.608,912.952 C1094.992,912.375997 1095.472,911.368007 1096.048,909.928 C1096.528,907.815989 1096.768,906.616001 1096.768,906.328 C1096.864,906.616001 1097.056,906.951998 1097.344,907.336 C1097.344,907.336 1098.30399,904.648027 1100.224,899.272 L1100.944,899.272 L1100.944,900.28 C1100.848,899.127994 1099.93601,903.015955 1098.208,911.944 C1096.86399,914.728014 1094.75201,918.999971 1091.872,924.76 C1093.02401,924.952001 1094.65599,924.856002 1096.768,924.472 C1094.46399,924.952002 1091.24802,925.767994 1087.12,926.92 C1087.12,927.112001 1087.216,927.208 1087.408,927.208 C1087.888,927.208 1089.42399,926.920003 1092.016,926.344 C1094.03201,925.959998 1096.67198,925.144006 1099.936,923.896 C1100.032,924.376002 1099.984,924.616 1099.792,924.616 L1099.72,924.616 C1099.672,924.616 1099.696,924.616 1099.792,924.616 C1099.888,924.712 1100.032,924.76 1100.224,924.76 C1101.088,924.664 1101.28,924.376002 1100.8,923.896 C1100.896,923.896 1101.208,923.944 1101.736,924.04 C1102.264,924.136 1102.624,924.184 1102.816,924.184 C1099.35998,925.144005 1095.80802,926.007996 1092.16,926.776 C1091.968,926.776 1091.632,926.943998 1091.152,927.28 C1090.672,927.616002 1090.336,927.784 1090.144,927.784 C1089.856,927.784 1089.784,927.688001 1089.928,927.496 C1090.072,927.303999 1090.048,927.208 1089.856,927.208 C1090.048,927.208 1088.65601,927.639996 1085.68,928.504 C1085.488,928.504 1085.2,928.935996 1084.816,929.8 C1083.75999,929.223997 1083.232,928.936 1083.232,928.936 C1083.04,928.936 1082.56,929.415995 1081.792,930.376 C1081.888,930.472 1082.224,930.52 1082.8,930.52 C1083.088,930.52 1085.65598,929.968006 1090.504,928.864 C1095.35202,927.759994 1097.872,927.208 1098.064,927.208 C1098.352,927.208 1098.472,927.303999 1098.424,927.496 C1098.376,927.688001 1098.448,927.784 1098.64,927.784 C1097.68,927.784 1099.31198,927.400004 1103.536,926.632 L1104.112,927.208 C1104.88,927.015999 1106.17599,926.92 1108,926.92 C1110.11201,926.92 1111.504,927.063999 1112.176,927.352 C1112.56,927.640001 1113.088,928.023998 1113.76,928.504 C1113.28,928.408 1112.12801,928.36 1110.304,928.36 C1111.168,928.36 1107.76004,928.839995 1100.08,929.8 L1100.512,930.232 L1111.6,929.944 C1111.792,929.944 1112.176,930.063999 1112.752,930.304 C1113.328,930.544001 1113.76,930.664 1114.048,930.664 C1116.25601,930.76 1119.61598,931.047998 1124.128,931.528 L1124.128,931.528 Z M1053.136,937.576 L1052.416,938.152 L1052.128,937.864 L1052.704,937.288 L1053.136,937.576 Z M1060.048,965.656 L1059.184,965.944 L1059.184,965.512 L1059.904,965.224 L1060.048,965.656 Z M1058.896,966.52 L1057.744,966.52 L1057.744,966.088 L1058.896,966.088 L1058.896,966.52 Z M1066.96,963.064 C1065.80799,964.696008 1063.57602,966.183993 1060.264,967.528 C1056.95198,968.872007 1054.09601,969.544 1051.696,969.544 C1050.15999,969.544 1049.008,969.208003 1048.24,968.536 C1048.24,968.343999 1048.504,967.984003 1049.032,967.456 C1049.56,966.927997 1049.824,966.568001 1049.824,966.376 C1049.824,966.183999 1049.68,965.992001 1049.392,965.8 C1049.776,964.935996 1050.256,964.504 1050.832,964.504 C1051.408,964.504 1051.936,964.743998 1052.416,965.224 C1052.224,965.512001 1051.648,965.608 1050.688,965.512 C1050.688,965.608 1050.64,965.656 1050.544,965.656 L1050.544,966.088 C1050.544,967.432007 1050.976,968.104 1051.84,968.104 C1052.128,968.104 1052.488,968.056 1052.92,967.96 C1053.352,967.864 1053.712,967.816 1054,967.816 L1054.576,967.816 C1054.768,967.72 1054.912,967.672 1055.008,967.672 C1054.912,967.672 1054.72,967.767999 1054.432,967.96 L1054.288,967.96 C1054.288,968.056 1054.336,968.104 1054.432,968.104 L1054.864,968.104 C1056.30401,968.104 1058.29599,967.552006 1060.84,966.448 C1063.38401,965.343994 1065.088,964.216006 1065.952,963.064 L1066.96,963.064 Z M1053.856,967.096 L1051.984,967.096 L1051.984,966.664 L1053.856,966.664 L1053.856,967.096 Z M1032.544,962.344 L1030.96,962.344 L1030.96,961.912 L1032.544,961.912 L1032.544,962.344 Z M1093.744,882.568 L1093.456,881.272 L1092.88,881.272 L1093.312,882.568 L1093.744,882.568 Z M1072.864,861.544 C1069.11998,861.063998 1066.912,860.824 1066.24,860.824 C1065.664,860.824 1064.65601,861.063998 1063.216,861.544 C1062.256,861.832001 1061.392,862.407996 1060.624,863.272 L1062.064,863.272 C1062.256,863.272 1062.808,863.080002 1063.72,862.696 C1064.632,862.311998 1065.232,862.072 1065.52,861.976 C1067.44001,861.88 1069.88799,861.736001 1072.864,861.544 L1072.864,861.544 Z M1097.344,908.488 L1096.912,908.488 L1096.624,909.496 L1097.056,909.64 L1097.344,908.488 Z M1096.768,910.36 L1096.768,909.64 L1096.336,909.64 L1096.336,910.36 L1096.768,910.36 Z M1111.456,933.544 L1111.456,932.968 L1110.16,932.968 L1110.16,933.544 L1111.456,933.544 Z M1108.432,932.536 L1107.712,932.104 L1107.568,932.536 L1108.288,932.968 L1108.432,932.536 Z M1093.456,918.568 L1093.024,918.136 L1092.736,918.424 L1093.168,918.856 L1093.456,918.568 Z M1107.568,933.4 L1107.568,932.968 L1106.272,933.256 L1106.272,933.832 L1107.568,933.4 Z M1093.024,907.48 C1092.448,906.231994 1092.16,905.799998 1092.16,906.184 C1091.488,907.720008 1090.57601,909.831987 1089.424,912.52 C1090.096,912.52 1090.192,912.759998 1089.712,913.24 C1089.328,913.24 1089.184,913.383999 1089.28,913.672 C1089.664,914.440004 1089.76,915.063998 1089.568,915.544 C1088.03199,917.944012 1085.92001,921.543976 1083.232,926.344 C1083.424,926.344 1083.64,926.439999 1083.88,926.632 C1084.12,926.824001 1084.336,926.92 1084.528,926.92 C1084.72,926.727999 1084.768,926.584 1084.672,926.488 C1085.056,926.199999 1085.536,925.768003 1086.112,925.192 C1088.51201,920.583977 1090.23999,916.936013 1091.296,914.248 C1091.68,912.999994 1092.016,911.704007 1092.304,910.36 C1092.208,909.879998 1092.208,909.208004 1092.304,908.344 C1092.784,908.055999 1093.024,907.768001 1093.024,907.48 L1093.024,907.48 Z M1094.176,914.104 C1092.63999,916.888014 1090.48001,920.871974 1087.696,926.056 C1087.792,926.056 1087.984,925.912001 1088.272,925.624 C1088.56,925.335999 1088.848,925.192 1089.136,925.192 C1089.328,925.192 1089.4,925.24 1089.352,925.336 C1089.304,925.432 1089.424,925.48 1089.712,925.48 C1090,925.48 1090.288,925.336001 1090.576,925.048 C1090.864,924.759999 1091.056,924.616 1091.152,924.616 C1091.44,923.367994 1091.872,921.73601 1092.448,919.72 C1091.968,920.872006 1091.10401,922.263992 1089.856,923.896 C1089.664,923.703999 1089.616,923.56 1089.712,923.464 C1090.192,922.407995 1090.93599,920.824011 1091.944,918.712 C1092.95201,916.599989 1093.696,915.064005 1094.176,914.104 L1094.176,914.104 Z M1081.504,916.84 C1080.832,916.84 1080.496,917.175997 1080.496,917.848 L1080.496,918.856 C1081.168,918.183997 1081.504,917.512003 1081.504,916.84 L1081.504,916.84 Z M1087.84,924.04 L1087.408,923.752 L1086.832,924.76 L1087.12,925.048 L1087.84,924.04 Z M1084.816,927.928 L1084.816,927.352 L1084.096,927.352 L1084.096,927.928 L1084.816,927.928 Z M1084.096,928.36 L1084.096,927.928 L1082.944,927.928 L1082.944,928.36 L1084.096,928.36 Z M1076.896,920.44 L1076.464,920.152 L1074.736,922.744 L1075.168,923.032 L1076.896,920.44 Z M1082.368,928.36 L1082.224,927.928 L1081.648,928.36 L1081.648,928.648 L1082.368,928.36 Z M1078.48,922.456 C1077.52,923.512005 1075.64801,925.911981 1072.864,929.656 L1073.872,929.656 C1074.832,928.023992 1076.36799,925.624016 1078.48,922.456 L1078.48,922.456 Z M1074.16,924.472 L1073.728,924.472 L1073.296,925.336 L1073.728,925.624 L1074.16,924.472 Z M1073.152,930.952 L1073.152,930.52 L1072.144,930.52 L1072.144,930.952 L1073.152,930.952 Z M1049.536,943.48 C1047.13599,944.536005 1045.31201,945.399997 1044.064,946.072 C1044.064,946.264001 1043.968,946.503999 1043.776,946.792 C1042.62399,947.272002 1039.88802,949.287982 1035.568,952.84 C1035.76,952.84 1036,952.983999 1036.288,953.272 C1037.152,953.272 1038.20799,953.032002 1039.456,952.552 C1040.032,952.071998 1040.752,951.448004 1041.616,950.68 C1041.808,950.295998 1042.048,949.864002 1042.336,949.384 C1044.35201,947.943993 1046.75199,945.976012 1049.536,943.48 L1049.536,943.48 Z" id="12"></path>
        </g>
    </g>
</svg>