<?xml version="1.0" encoding="UTF-8" standalone="no"?>
<svg width="165px" height="115px" viewBox="0 0 165 115" version="1.1" xmlns="http://www.w3.org/2000/svg" xmlns:xlink="http://www.w3.org/1999/xlink">
    <!-- Generator: Sketch 3.6.1 (26313) - http://www.bohemiancoding.com/sketch -->
    <title>13</title>
    <desc>Created with Sketch.</desc>
    <defs></defs>
    <g id="Page-1" stroke="none" stroke-width="1" fill="none" fill-rule="evenodd">
        <g id="Desktop2" transform="translate(-963.000000, -662.000000)" fill="#D71955">
            <path d="M1013.304,666.96 C1013.304,667.536003 1013.184,667.895999 1012.944,668.04 C1012.704,668.184001 1012.392,668.399999 1012.008,668.688 C1010.66399,668.880001 1009.27201,669.743992 1007.832,671.28 C1007.256,671.664002 1006.34401,672.335995 1005.096,673.296 C1001.63998,677.040019 997.224027,682.175967 991.848,688.704 C991.752,688.319998 991.704,688.08 991.704,687.984 C995.064017,683.855979 998.375984,679.728021 1001.64,675.6 C1005.67202,670.895976 1009.07999,667.824007 1011.864,666.384 L1012.872,666.384 C1012.872,666.768002 1013.016,666.96 1013.304,666.96 L1013.304,666.96 Z M1008.12,721.248 L1007.832,722.256 L1007.4,722.112 L1007.832,721.248 L1008.12,721.248 Z M1007.832,722.544 L1007.544,723.552 L1007.256,723.408 L1007.544,722.544 L1007.832,722.544 Z M1008.12,729.312 L1007.688,729.312 L1007.688,728.592 L1008.12,728.592 L1008.12,729.312 Z M1020.504,739.68 C1020.504,739.968001 1020.24,740.399997 1019.712,740.976 C1019.184,741.552003 1018.776,741.84 1018.488,741.84 L1016.328,741.84 L1015.752,741.12 C1015.848,740.735998 1016.04,740.208003 1016.328,739.536 C1017.096,738.767996 1017.864,738.384 1018.632,738.384 C1019.88001,738.384 1020.504,738.815996 1020.504,739.68 L1020.504,739.68 Z M1028.712,760.272 C1008.2639,765.264025 997.656004,767.76 996.888,767.76 C996.695999,767.76 996.432002,767.712 996.096,767.616 C995.759998,767.52 995.496001,767.472 995.304,767.472 C995.015999,767.472 993.480014,767.927995 990.696,768.84 C987.911986,769.752005 986.424001,770.208 986.232,770.208 C986.039999,770.208 985.992,770.112001 986.088,769.92 C986.184,769.727999 986.088001,769.632 985.8,769.632 C982.343983,769.632 979.560011,770.495991 977.448,772.224 C976.679996,772.224 975.528008,772.607996 973.992,773.376 L974.136,773.52 C974.424001,773.52 974.903997,773.376001 975.576,773.088 L976.584,773.088 C976.968002,773.472002 977.16,773.903998 977.16,774.384 C977.16,774.864002 976.728004,775.343998 975.864,775.824 C974.999996,776.304002 974.280003,776.544 973.704,776.544 L971.544,776.544 L971.544,775.536 C972.600005,775.151998 973.128,774.576004 973.128,773.808 C973.032,773.712 972.744002,773.664 972.264,773.664 C971.975999,773.664 971.832,773.712 971.832,773.808 C971.832,774.000001 971.736001,774.096 971.544,774.096 C971.351999,774.096 971.28,774.048 971.328,773.952 C971.376,773.856 971.256001,773.808 970.968,773.808 C970.775999,773.808 970.68,773.903999 970.68,774.096 C970.68,774.288001 970.584001,774.384 970.392,774.384 C970.488,774.384 970.320002,774.288001 969.888,774.096 C969.455998,773.903999 968.520007,773.808 967.08,773.808 C967.08,773.423998 967.175999,773.136001 967.368,772.944 C966.887998,772.751999 966.168005,772.320003 965.208,771.648 C965.208,770.975997 965.471997,770.232004 966,769.416 C966.528003,768.599996 966.792,768.192 966.792,768.192 C966.792,767.519997 966.696001,766.800004 966.504,766.032 C966.311999,765.551998 965.784004,765.216001 964.92,765.024 C963.671994,763.00799 963.048,762.095999 963.048,762.288 C963.048,760.847993 967.463956,758.11202 976.296,754.08 L976.296,753.216 C975.815998,753.408001 975.480001,753.504 975.288,753.504 L974.712,752.784 C976.536009,751.055991 978.887986,749.712005 981.768,748.752 C984.456013,748.079997 987.191986,747.408003 989.976,746.736 C987.767989,747.504004 984.64802,748.991989 980.616,751.2 C980.808001,751.488001 981.191997,751.632 981.768,751.632 C981.960001,751.632 983.399987,751.104005 986.088,750.048 C988.776013,748.991995 990.215999,748.464 990.408,748.464 C990.696001,748.464 990.792,748.559999 990.696,748.752 C990.6,748.944001 990.647999,749.04 990.84,749.04 C991.032001,749.04 991.415997,748.944001 991.992,748.752 C992.568003,748.559999 993.095998,748.464 993.576,748.464 C993.672,746.255989 993.815999,742.656025 994.008,737.664 L997.464,711.456 C997.271999,710.975998 997.080001,710.592001 996.888,710.304 C995.927995,711.552006 995.496,712.367998 995.592,712.752 L995.016,712.176 C991.943985,714.480012 989.160012,717.455982 986.664,721.104 C984.551989,724.176015 982.440011,727.295984 980.328,730.464 C980.135999,730.752001 980.04,731.183997 980.04,731.76 C979.655998,731.952001 979.128003,732.383997 978.456,733.056 C977.591996,734.112005 976.296009,735.791988 974.568,738.096 C974.568,737.519997 974.472001,737.184 974.28,737.088 C974.184,737.184 974.088,737.303999 973.992,737.448 C973.896,737.592001 973.8,737.712 973.704,737.808 C973.704,738.000001 974.375993,736.704014 975.72,733.92 C975.912001,733.439998 975.96,733.008002 975.864,732.624 C976.632004,732.528 977.399996,731.232012 978.168,728.736 C978.360001,728.64 978.216002,728.592 977.736,728.592 C976.871996,728.592 975.816006,729.455991 974.568,731.184 C974.183998,731.088 973.800002,730.656004 973.416,729.888 C973.223999,729.888 973.08,729.936 972.984,730.032 C972.888,730.128 971.592012,731.855983 969.096,735.216 C969.192,734.639997 969.575997,733.872005 970.248,732.912 C970.248,732.623999 970.2,732.432 970.104,732.336 C967.607988,733.584006 966.455999,734.208 966.648,734.208 L965.208,734.208 C965.208,734.112 965.16,733.920001 965.064,733.632 C964.968,733.343999 964.92,733.056001 964.92,732.768 C964.92,732.383998 964.968,732.096001 965.064,731.904 C966.216006,730.559993 966.792,729.792001 966.792,729.6 C966.792,728.927997 966.408004,727.824008 965.64,726.288 C965.255998,726.576001 965.016,726.72 964.92,726.72 C965.304002,726.335998 965.400001,726.048001 965.208,725.856 C965.496001,725.567999 965.879998,725.424 966.36,725.424 C966.552001,725.328 966.6,724.944003 966.504,724.272 C966.888002,722.927993 967.559995,721.056012 968.52,718.656 C968.904002,718.271998 969.527996,717.696004 970.392,716.928 C970.488,716.639999 970.631999,716.208003 970.824,715.632 C976.87203,707.183958 982.199977,700.368026 986.808,695.184 C991.512024,690.287976 998.951949,682.416054 1009.128,671.568 C1009.512,671.568 1010.04,671.424001 1010.712,671.136 C1010.712,671.328001 1010.52,671.903995 1010.136,672.864 C1009.848,673.536003 1009.944,674.111998 1010.424,674.592 C1011.48001,673.919997 1013.06399,672.960006 1015.176,671.712 C1015.272,671.904001 1015.176,672.143999 1014.888,672.432 C1014.984,672.528 1015.176,672.959996 1015.464,673.728 C1015.656,674.112002 1015.896,674.304 1016.184,674.304 C1016.856,674.304 1017.192,673.968003 1017.192,673.296 C1017.192,673.007999 1017.096,672.552003 1016.904,671.928 C1016.712,671.303997 1016.616,670.992 1016.616,670.992 C1018.82401,669.839994 1019.928,669.264 1019.928,669.264 C1020.216,669.264 1020.504,669.312 1020.792,669.408 C1021.08,669.504 1021.224,669.552 1021.224,669.552 C1021.512,670.608005 1021.416,671.567996 1020.936,672.432 C1021.128,673.008003 1021.224,673.344 1021.224,673.44 C1019.87999,674.400005 1019.208,675.503994 1019.208,676.752 C1019.208,677.520004 1019.448,678.191997 1019.928,678.768 C1019.544,679.152002 1019.112,679.775996 1018.632,680.64 L1018.632,681.36 C1018.536,681.456 1018.68,681.504 1019.064,681.504 C1019.256,681.504 1019.688,681.264002 1020.36,680.784 C1021.032,680.303998 1021.512,680.016 1021.8,679.92 C1021.992,680.112001 1022.088,680.351999 1022.088,680.64 C1022.088,680.832001 1021.46401,681.695992 1020.216,683.232 C1018.67999,685.056009 1017.72,686.447995 1017.336,687.408 C1016.952,688.368005 1016.472,689.903989 1015.896,692.016 C1015.704,692.880004 1015.464,694.175991 1015.176,695.904 C1013.73599,702.816035 1011.38402,713.27993 1008.12,727.296 C1008.312,725.663992 1008.552,723.264016 1008.84,720.096 C1008.744,720 1008.696,719.880001 1008.696,719.736 C1008.696,719.591999 1008.648,719.472 1008.552,719.376 C1008.456,719.664001 1008.216,720.095997 1007.832,720.672 L1010.424,706.848 C1010.136,706.559999 1009.944,706.416 1009.848,706.416 C1009.752,706.416 1009.656,706.559999 1009.56,706.848 C1008.984,711.456023 1008.408,714.959988 1007.832,717.36 C1007.736,717.936003 1007.496,718.751995 1007.112,719.808 C1007.016,719.904 1006.944,720.023999 1006.896,720.168 C1006.848,720.312001 1006.68,720.384 1006.392,720.384 C1006.104,720.384 1005.96,720.288001 1005.96,720.096 L1005.96,719.808 C1005.288,721.440008 1004.808,723.599987 1004.52,726.288 C1004.04,730.416021 1003.752,732.671998 1003.656,733.056 C1003.56,734.112005 1003.32,735.64799 1002.936,737.664 C1002.744,737.952001 1002.456,738.383997 1002.072,738.96 C1001.976,738.671999 1001.736,738.240003 1001.352,737.664 C1001.256,737.76 1001.208,738.047998 1001.208,738.528 C1001.208,738.816001 1001.544,739.247997 1002.216,739.824 C1002.312,740.208002 1002.312,740.831996 1002.216,741.696 L1003.368,741.84 L1003.368,741.12 C1003.368,741.12 1003.464,741.263999 1003.656,741.552 C1003.944,741.167998 1005.28799,740.784002 1007.688,740.4 C1008.168,740.4 1008.84,740.352 1009.704,740.256 C1010.664,739.679997 1011.95999,739.056003 1013.592,738.384 C1013.592,739.344005 1013.784,740.111997 1014.168,740.688 C1013.784,740.880001 1013.256,741.407996 1012.584,742.272 C1016.52002,746.20802 1018.872,748.176 1019.64,748.176 C1019.832,748.176 1020.024,748.080001 1020.216,747.888 C1020.216,748.176001 1020.12,748.415999 1019.928,748.608 C1020.6,749.184003 1021.75199,749.951995 1023.384,750.912 C1023.48,751.200001 1023.24,751.679997 1022.664,752.352 C1023.048,752.736002 1023.432,752.928 1023.816,752.928 L1024.536,752.928 C1024.824,752.832 1024.968,752.784 1024.968,752.784 C1021.51198,754.416008 1019.784,755.423998 1019.784,755.808 C1019.784,756.000001 1020.55199,757.151989 1022.088,759.264 C1021.128,759.552001 1019.64001,760.079996 1017.624,760.848 C1017.528,760.848 1017.576,760.943999 1017.768,761.136 C1021.80002,760.271996 1024.296,759.84 1025.256,759.84 C1025.448,759.84 1026,759.911999 1026.912,760.056 C1027.824,760.200001 1028.424,760.272 1028.712,760.272 L1028.712,760.272 Z M979.896,733.2 L979.608,733.488 L979.176,733.056 L979.464,732.768 L979.896,733.2 Z M992.712,747.888 L990.984,748.608 L990.984,748.176 L992.568,747.6 L992.712,747.888 Z M972.984,737.664 L972.696,738.384 L972.264,738.24 L972.552,737.52 L972.984,737.664 Z M981.192,771.648 L980.472,772.368 L980.184,772.08 L980.904,771.36 L981.192,771.648 Z M1013.16,701.808 L1013.16,700.8 L1012.728,700.8 L1012.728,701.808 L1013.16,701.808 Z M1012.872,703.104 L1012.872,702.384 L1012.44,702.384 L1012.44,703.104 L1012.872,703.104 Z M1012.44,706.56 L1012.44,705.552 L1012.008,705.552 L1012.008,706.56 L1012.44,706.56 Z M1011.576,739.824 L1011.288,739.68 L1010.856,740.4 L1011.288,740.544 L1011.576,739.824 Z M997.32,729.744 L996.888,729.6 L996.6,730.32 L997.032,730.464 L997.32,729.744 Z M1012.872,741.12 C1012.68,741.12 1012.44,741.072 1012.152,740.976 C1011.864,740.88 1011.624,740.832 1011.432,740.832 C1010.37599,740.832 1009.464,741.455994 1008.696,742.704 C1008.408,742.319998 1008.168,742.128 1007.976,742.128 C1008.264,742.128 1007.25601,742.511996 1004.952,743.28 C1005.816,743.760002 1006.344,744 1006.536,744 C1006.728,744 1007.136,743.808002 1007.76,743.424 C1008.384,743.039998 1008.792,742.848 1008.984,742.848 C1009.272,742.848 1009.704,743.231996 1010.28,744 C1011.62401,743.231996 1012.296,742.848 1012.296,742.848 C1012.296,742.079996 1012.488,741.504002 1012.872,741.12 L1012.872,741.12 Z M999.336,766.752 L999.336,766.32 L998.616,766.32 L998.616,766.752 L999.336,766.752 Z M1113.096,673.584 L1112.808,673.728 L1112.232,673.152 L1112.52,672.864 L1113.096,673.584 Z M1116.408,677.76 L1115.976,677.76 L1115.976,676.752 L1116.408,676.752 L1116.408,677.76 Z M1084.872,664.512 L1084.008,664.944 L1084.008,664.512 L1084.728,664.224 L1084.872,664.512 Z M1090.488,679.488 L1089.768,679.488 L1089.768,679.056 L1090.488,679.056 L1090.488,679.488 Z M1083.432,664.656 C1082.76,664.656 1081.992,664.799999 1081.128,665.088 L1080.552,664.512 C1079.01599,664.704001 1076.32802,665.183996 1072.488,665.952 C1069.12798,666.624003 1067.352,666.96 1067.16,666.96 L1065.144,666.96 C1065.528,666.287997 1067.15999,665.712002 1070.04,665.232 C1073.68802,664.655997 1077.09598,664.368 1080.264,664.368 C1081.32001,664.368 1082.37599,664.463999 1083.432,664.656 L1083.432,664.656 Z M1094.088,688.128 L1093.368,689.136 L1093.08,688.848 L1093.656,687.984 L1094.088,688.128 Z M1064.712,663.936 C1063.46399,664.608003 1061.68801,665.519994 1059.384,666.672 C1059.384,666.672 1059.24,666.552001 1058.952,666.312 C1058.664,666.071999 1058.52,665.808001 1058.52,665.52 C1058.52,663.791991 1060.39198,662.928 1064.136,662.928 C1064.136,663.216001 1064.328,663.551998 1064.712,663.936 L1064.712,663.936 Z M1101.288,704.112 L1100.28,704.832 L1100.136,704.4 L1101,703.824 L1101.288,704.112 Z M1085.592,698.784 L1084.872,699.072 L1084.872,698.784 L1085.448,698.352 L1085.592,698.784 Z M1052.04,665.808 L1051.608,665.808 L1051.608,665.088 L1052.04,665.088 L1052.04,665.808 Z M1058.952,669.696 C1058.952,669.984001 1058.64,670.583995 1058.016,671.496 C1057.392,672.408005 1056.84,672.864 1056.36,672.864 C1056.168,672.864 1055.64,672.768001 1054.776,672.576 C1053.912,672.383999 1053.288,672.288 1052.904,672.288 C1052.904,672.095999 1052.712,671.808002 1052.328,671.424 C1052.616,670.751997 1053,670.176002 1053.48,669.696 L1054.344,669.696 C1054.536,669.888001 1054.632,670.271997 1054.632,670.848 C1054.632,670.944 1054.824,670.992 1055.208,670.992 C1055.496,670.992 1056.35999,670.560004 1057.8,669.696 L1058.952,669.696 Z M1127.352,732.912 C1127.352,734.064006 1127.064,735.59999 1126.488,737.52 C1126.392,737.231999 1126.272,736.824003 1126.128,736.296 C1125.984,735.767997 1125.912,735.360001 1125.912,735.072 C1125.528,735.360001 1125.336,735.647999 1125.336,735.936 C1125.336,735.359997 1125.432,734.400007 1125.624,733.056 C1125.528,732.863999 1125.336,732.432003 1125.048,731.76 C1124.76,731.087997 1124.52,730.560002 1124.328,730.176 C1123.944,731.520007 1123.8,733.055991 1123.896,734.784 C1123.512,735.360003 1123.32,736.031996 1123.32,736.8 C1123.32,737.568004 1123.752,738 1124.616,738.096 L1124.616,739.248 C1124.424,739.536001 1124.232,740.159995 1124.04,741.12 C1123.464,741.312001 1123.128,741.767996 1123.032,742.488 C1122.936,743.208004 1122.768,743.783998 1122.528,744.216 C1122.288,744.648002 1121.928,745.247996 1121.448,746.016 C1121.64,746.112 1121.88,746.064001 1122.168,745.872 C1122.168,745.679999 1121.736,746.015996 1120.872,746.88 C1120.776,746.88 1120.824,746.975999 1121.016,747.168 C1121.112,747.072 1121.256,747 1121.448,746.952 C1121.64,746.904 1121.784,746.832 1121.88,746.736 C1121.496,747.120002 1120.872,747.695996 1120.008,748.464 L1119.288,749.184 C1119.384,749.28 1119.576,749.376 1119.864,749.472 C1120.152,749.568 1120.296,749.664 1120.296,749.76 C1120.104,750.048001 1119.816,750.000002 1119.432,749.616 C1118.08799,751.248008 1116.16801,753.551985 1113.672,756.528 C1113.384,756.528 1113,756.576 1112.52,756.672 C1109.63999,759.168012 1106.71201,761.183992 1103.736,762.72 C1097.01597,766.176017 1092.93601,767.904 1091.496,767.904 C1091.016,767.904 1090.296,768.047999 1089.336,768.336 C1089.72,768.624001 1090.008,768.768 1090.2,768.768 C1089.24,769.824005 1087.12802,770.591998 1083.864,771.072 C1081.65599,771.168 1079.44801,771.311999 1077.24,771.504 C1076.664,771.792001 1076.328,771.96 1076.232,772.008 C1076.136,772.056 1073.44803,772.367997 1068.168,772.944 C1068.744,772.751999 1069.70399,772.368003 1071.048,771.792 C1070.76,771.696 1069.75201,771.648 1068.024,771.648 C1067.928,771.648 1067.784,771.576001 1067.592,771.432 C1067.4,771.287999 1067.16,771.216 1066.872,771.216 C1066.68,771.216 1066.56,771.287999 1066.512,771.432 C1066.464,771.576001 1066.344,771.648 1066.152,771.648 C1064.51999,771.648 1063.32,771.552001 1062.552,771.36 C1060.91999,770.879998 1060.344,770.64 1060.824,770.64 C1060.632,770.64 1060.296,770.711999 1059.816,770.856 C1059.336,771.000001 1059,771.072 1058.808,771.072 C1059.096,771.072 1059.336,770.976001 1059.528,770.784 C1059.144,770.399998 1058.808,770.208 1058.52,770.208 C1058.712,770.208 1060.10399,769.632006 1062.696,768.48 L1062.696,768.336 C1062.6,768.24 1061.68801,768.287999 1059.96,768.48 C1059.384,768.48 1058.32801,768.408001 1056.792,768.264 C1055.25599,768.119999 1054.008,768.048 1053.048,768.048 C1055.06401,767.567998 1058.13598,766.944004 1062.264,766.176 C1061.592,766.176 1060.872,765.840003 1060.104,765.168 C1059.816,765.552002 1059.528,765.744 1059.24,765.744 C1059.048,765.744 1058.904,765.648001 1058.808,765.456 C1058.712,765.263999 1058.568,765.168 1058.376,765.168 C1057.992,765.168 1057.656,765.407998 1057.368,765.888 C1057.08,766.368002 1056.648,766.608 1056.072,766.608 C1055.784,766.608 1055.208,766.512001 1054.344,766.32 C1053.48,766.127999 1052.904,766.032 1052.616,766.032 C1053,766.032 1052.04001,766.127999 1049.736,766.32 C1049.928,766.704002 1049.832,766.896 1049.448,766.896 C1049.256,766.896 1048.896,766.800001 1048.368,766.608 C1047.84,766.415999 1047.48,766.32 1047.288,766.32 C1047.096,766.32 1046.49601,766.463999 1045.488,766.752 C1044.47999,767.040001 1043.88,767.184 1043.688,767.184 L1042.68,766.896 C1042.488,766.896 1042.056,766.944 1041.384,767.04 C1040.712,767.136 1040.304,767.184 1040.16,767.184 C1040.016,767.184 1038.96001,767.255999 1036.992,767.4 C1035.02399,767.544001 1033.56,767.616 1032.6,767.616 C1033.272,767.327999 1034.13599,767.184 1035.192,767.184 C1035.288,767.184 1037.87997,766.848003 1042.968,766.176 C1045.17601,765.887999 1046.85599,765.744 1048.008,765.744 L1048.44,765.312 C1048.152,765.119999 1047.624,765.072 1046.856,765.168 C1047.624,764.783998 1048.104,764.256003 1048.296,763.584 C1049.83201,763.68 1050.696,763.728 1050.888,763.728 C1050.792,763.535999 1050.456,763.152003 1049.88,762.576 C1049.304,762.672 1048.536,762.672 1047.576,762.576 C1046.32799,762.48 1045.512,762.432 1045.128,762.432 C1045.512,762.432 1045.944,762.144003 1046.424,761.568 C1045.36799,761.472 1043.71201,761.304001 1041.456,761.064 C1039.19999,760.823999 1038.024,760.704 1037.928,760.704 C1037.736,760.704 1036.05602,760.823999 1032.888,761.064 C1029.71998,761.304001 1027.992,761.424 1027.704,761.424 C1027.512,761.424 1027.368,761.352001 1027.272,761.208 C1027.176,761.063999 1027.032,760.992 1026.84,760.992 L1025.976,760.992 C1025.496,761.088 1025.16,761.136 1024.968,761.136 C1024.008,761.136 1023.24,761.040001 1022.664,760.848 C1021.992,760.271997 1021.704,759.984 1021.8,759.984 C1024.77601,759.599998 1029.04797,758.976004 1034.616,758.112 L1037.784,758.112 C1038.744,758.112 1040.32799,757.920002 1042.536,757.536 C1041.768,757.055998 1041.144,756.816 1040.664,756.816 C1040.472,756.816 1040.352,756.864 1040.304,756.96 C1040.256,757.056 1040.136,757.104 1039.944,757.104 C1039.368,757.104 1038.45601,756.960001 1037.208,756.672 C1035.95999,756.383999 1035,756.24 1034.328,756.24 C1034.232,756.24 1033.992,756.120001 1033.608,755.88 C1033.224,755.639999 1032.936,755.52 1032.744,755.52 C1032.552,755.52 1032.432,755.568 1032.384,755.664 C1032.336,755.76 1032.168,755.808 1031.88,755.808 C1032.264,755.808 1031.59201,755.376004 1029.864,754.512 L1035.768,754.512 C1035.864,754.512 1036.248,754.416001 1036.92,754.224 C1037.592,754.031999 1038.264,753.936 1038.936,753.936 C1039.128,753.936 1040.42399,753.840001 1042.824,753.648 C1045.22401,753.455999 1046.52,753.36 1046.712,753.36 L1063.272,751.488 C1063.656,751.488 1063.656,751.344001 1063.272,751.056 C1063.944,751.152 1065.04799,751.104001 1066.584,750.912 C1068.12001,750.719999 1068.888,750.624 1068.888,750.624 C1068.312,750.624 1069.46399,750.336003 1072.344,749.76 C1073.208,749.76 1074.31199,749.712 1075.656,749.616 C1084.00804,746.639985 1088.376,745.056001 1088.76,744.864 C1093.65602,742.84799 1097.30399,740.688012 1099.704,738.384 C1099.608,738.288 1099.512,738.24 1099.416,738.24 C1100.47201,737.951999 1101.67199,736.944009 1103.016,735.216 C1103.304,735.216 1103.736,735.024002 1104.312,734.64 L1104.312,734.064 C1104.312,734.16 1104.408,734.303999 1104.6,734.496 C1105.176,734.303999 1105.464,733.824004 1105.464,733.056 C1105.464,733.344001 1105.56,733.583999 1105.752,733.776 C1106.136,733.391998 1106.712,732.624006 1107.48,731.472 L1107.192,730.176 C1107.192,730.272 1107.144,730.415999 1107.048,730.608 C1106.952,730.800001 1106.856,730.944 1106.76,731.04 L1106.76,729.888 C1105.8,728.831995 1103.90401,727.920004 1101.072,727.152 C1098.23999,726.383996 1095.67201,726 1093.368,726 C1090.10398,726 1087.22401,726.191998 1084.728,726.576 C1084.344,726.48 1083.816,726.48 1083.144,726.576 C1080.16799,727.728006 1078.68,728.304 1078.68,728.304 C1078.488,728.304 1078.176,728.184001 1077.744,727.944 C1077.312,727.703999 1077,727.584 1076.808,727.584 C1076.52,727.584 1076.376,727.632 1076.376,727.728 C1076.376,727.824 1076.28,727.872 1076.088,727.872 C1075.896,727.872 1075.488,727.464004 1074.864,726.648 C1074.24,725.831996 1073.784,725.424 1073.496,725.424 C1073.112,725.424 1072.92,725.567999 1072.92,725.856 C1072.92,725.663999 1072.848,725.352002 1072.704,724.92 C1072.56,724.487998 1072.488,724.224 1072.488,724.128 C1071.14399,723.551997 1070.28,722.880004 1069.896,722.112 C1068.64799,719.999989 1066.82401,718.752002 1064.424,718.368 C1064.52,718.272 1064.688,718.176 1064.928,718.08 C1065.168,717.984 1065.336,717.888 1065.432,717.792 C1064.952,717.503999 1064.472,717.36 1063.992,717.36 C1063.704,717.36 1062.60001,718.079993 1060.68,719.52 C1058.08799,721.44001 1056.36,722.687997 1055.496,723.264 C1055.784,722.879998 1058.18398,720.480022 1062.696,716.064 C1062.504,715.871999 1062.36,715.776 1062.264,715.776 L1061.112,715.776 C1061.4,715.776 1061.88,715.584002 1062.552,715.2 C1062.552,714.623997 1062.216,714.336 1061.544,714.336 C1061.352,714.336 1058.61603,716.207981 1053.336,719.952 C1053.432,720.048 1053.96,720.335998 1054.92,720.816 C1054.92,721.296002 1054.824,721.631999 1054.632,721.824 C1052.61599,722.976006 1051.416,723.552 1051.032,723.552 C1051.224,723.552 1050.74401,723.264003 1049.592,722.688 C1049.976,721.535994 1050.072,720.672003 1049.88,720.096 C1053.81602,717.503987 1060.00796,713.904023 1068.456,709.296 C1067.496,709.2 1066.15201,708.480007 1064.424,707.136 C1065.384,707.232 1066.82399,707.232 1068.744,707.136 C1070.85601,706.943999 1071.792,706.848 1071.552,706.848 C1071.312,706.848 1072.34399,706.320005 1074.648,705.264 C1075.416,705.168 1076.51999,704.880002 1077.96,704.4 C1079.01601,703.823997 1080.59999,703.008005 1082.712,701.952 C1084.92001,700.03199 1088.47198,697.200019 1093.368,693.456 C1094.90401,692.303994 1095.624,691.488002 1095.528,691.008 C1097.73601,688.99199 1098.84,687.456005 1098.84,686.4 C1098.84,685.343995 1098.6,684.480003 1098.12,683.808 C1098.024,683.712 1097.832,683.568001 1097.544,683.376 C1097.064,683.664001 1096.824,684.575992 1096.824,686.112 C1097.016,683.711988 1096.34401,681.936006 1094.808,680.784 C1094.04,680.495999 1092.93601,680.064003 1091.496,679.488 C1090.632,679.007998 1090.008,678.768 1089.624,678.768 C1088.76,678.768 1088.328,678.816 1088.328,678.912 C1088.328,678.623999 1088.28,678.432 1088.184,678.336 C1088.088,678.336 1087.896,678.503998 1087.608,678.84 C1087.32,679.176002 1087.08,679.344 1086.888,679.344 C1086.6,679.344 1085.90401,679.224001 1084.8,678.984 C1083.69599,678.743999 1083.048,678.624 1082.856,678.624 C1082.856,678.624 1082.23201,678.719999 1080.984,678.912 C1080.792,679.104001 1080.792,679.343999 1080.984,679.632 C1079.73599,679.439999 1079.112,679.439999 1079.112,679.632 C1079.208,679.536 1079.16,679.344001 1078.968,679.056 C1078.2,679.440002 1077.432,679.68 1076.664,679.776 C1076.568,679.776 1076.568,679.919999 1076.664,680.208 C1076.664,680.400001 1076.52,680.496 1076.232,680.496 C1076.04,680.496 1075.968,680.448 1076.016,680.352 C1076.064,680.256 1075.944,680.208 1075.656,680.208 C1075.464,680.208 1074.64801,680.519997 1073.208,681.144 C1071.76799,681.768003 1070.904,682.08 1070.616,682.08 L1069.392,682.08 L1068.024,682.08 L1067.592,682.368 C1070.95202,680.159989 1073.112,679.056 1074.072,679.056 C1074.264,679.056 1074.336,679.104 1074.288,679.2 C1074.24,679.296 1074.36,679.344 1074.648,679.344 C1075.032,679.344 1075.56,679.056003 1076.232,678.48 C1076.136,678.384 1076.04,678.336 1075.944,678.336 C1074.21599,678.528001 1071.24002,679.007996 1067.016,679.776 C1066.632,679.872 1066.008,680.111998 1065.144,680.496 C1064.664,680.976002 1063.944,681.647996 1062.984,682.512 C1064.13601,682.800001 1064.904,682.944 1065.288,682.944 L1064.856,683.16 C1064.568,683.304001 1064.328,683.376 1064.136,683.376 C1063.848,683.376 1063.488,683.256001 1063.056,683.016 C1062.624,682.775999 1062.312,682.656 1062.12,682.656 C1061.832,682.656 1061.688,682.727999 1061.688,682.872 C1061.688,683.016001 1061.544,683.088 1061.256,683.088 C1060.19999,683.088 1058.61601,682.368007 1056.504,680.928 C1056.216,681.312002 1055.832,681.935996 1055.352,682.8 C1055.16,682.607999 1054.872,682.512 1054.488,682.512 C1054.488,682.319999 1054.536,682.128001 1054.632,681.936 C1054.44,681.647999 1054.008,681.240003 1053.336,680.712 C1052.664,680.183997 1052.328,679.776001 1052.328,679.488 C1052.328,679.776001 1052.85599,678.816011 1053.912,676.608 C1052.75999,676.319999 1051.60801,676.607996 1050.456,677.472 C1050.072,677.087998 1049.784,676.896 1049.592,676.896 C1052.18401,675.359992 1053.672,674.592 1054.056,674.592 L1054.344,674.592 C1054.248,674.688 1054.296,674.736 1054.488,674.736 C1054.872,674.736 1055.66399,674.472003 1056.864,673.944 C1058.06401,673.415997 1058.664,673.008001 1058.664,672.72 C1058.568,672.527999 1058.376,672.432 1058.088,672.432 C1059.24001,671.759997 1060.94399,670.992004 1063.2,670.128 C1065.45601,669.263996 1067.68799,668.448004 1069.896,667.68 C1072.68001,666.719995 1075.12799,666.24 1077.24,666.24 L1090.92,666.24 L1091.496,666.672 C1093.03201,666.672 1094.85599,666.815999 1096.968,667.104 C1097.832,667.104 1099.12799,667.295998 1100.856,667.68 C1102.58401,668.544004 1105.07998,669.791992 1108.344,671.424 C1109.112,672.000003 1110.26399,672.767995 1111.8,673.728 L1111.512,673.872 C1111.8,674.544003 1112.61599,675.359995 1113.96,676.32 C1113.672,676.416 1113.288,676.607999 1112.808,676.896 L1113.384,677.472 C1113.672,677.760001 1114.152,678.287996 1114.824,679.056 C1115.016,679.632003 1115.448,680.495994 1116.12,681.648 C1116.024,681.840001 1116.024,682.271997 1116.12,682.944 C1116.6,683.616003 1116.84,683.904 1116.84,683.808 C1116.84,684.576004 1116.504,685.103999 1115.832,685.392 C1116.12,685.872002 1116.504,686.064 1116.984,685.968 C1117.656,685.872 1118.04,685.824 1118.136,685.824 C1118.328,685.824 1118.424,686.063998 1118.424,686.544 C1118.424,687.024002 1118.04,687.599997 1117.272,688.272 C1116.504,688.944003 1116.072,689.328 1115.976,689.424 C1116.072,689.616001 1116.12,689.807999 1116.12,690 C1116.12,690.480002 1115.784,691.055997 1115.112,691.728 C1114.248,692.688005 1113.816,693.216 1113.816,693.312 C1114.008,694.560006 1114.104,695.184 1114.104,695.184 C1112.85599,696.432006 1111.12801,698.303988 1108.92,700.8 C1108.248,701.568004 1106.90401,702.239997 1104.888,702.816 C1104.888,702.816 1104.816,702.935999 1104.672,703.176 C1104.528,703.416001 1104.312,703.536 1104.024,703.536 C1103.832,703.536 1103.736,703.488 1103.736,703.392 C1103.736,703.199999 1103.64,703.104 1103.448,703.104 C1103.16,703.104 1102.896,703.223999 1102.656,703.464 C1102.416,703.704001 1102.248,703.824 1102.152,703.824 C1102.056,703.824 1101.864,703.680001 1101.576,703.392 C1104.36001,701.47199 1107.38398,698.976015 1110.648,695.904 C1110.84,695.808 1110.696,695.76 1110.216,695.76 C1109.928,695.76 1108.48801,696.695991 1105.896,698.568 C1103.30399,700.440009 1101.816,701.759996 1101.432,702.528 C1101.432,702.432 1101.336,702.240001 1101.144,701.952 L1095.096,705.84 C1095.864,705.936 1097.06399,706.223998 1098.696,706.704 C1098.888,706.704 1099.152,706.847999 1099.488,707.136 C1099.824,707.424001 1100.088,707.568 1100.28,707.568 C1100.472,707.568 1100.976,707.256003 1101.792,706.632 C1102.608,706.007997 1103.208,705.600001 1103.592,705.408 C1103.976,705.215999 1104.144,705.000001 1104.096,704.76 C1104.048,704.519999 1104.024,704.304001 1104.024,704.112 C1104.12,704.112 1104.312,704.303998 1104.6,704.688 L1104.888,704.688 C1104.984,704.592 1104.936,704.544 1104.744,704.544 C1105.416,703.871997 1106.71199,702.864007 1108.632,701.52 C1108.92,701.52 1109.256,701.472 1109.64,701.376 C1110.79201,700.607996 1111.56,700.272 1111.944,700.368 L1111.944,701.376 L1101,708.576 C1101.096,708.672 1101.216,708.744 1101.36,708.792 C1101.504,708.84 1101.576,708.864 1101.576,708.864 C1104.45601,709.056001 1107.67198,710.639985 1111.224,713.616 C1114.29602,716.208013 1116.83999,719.183983 1118.856,722.544 L1118.856,723.84 C1119.048,724.128001 1119.24,724.367999 1119.432,724.56 L1119.864,724.128 L1121.16,724.128 C1121.256,724.512002 1121.376,724.943998 1121.52,725.424 C1121.664,725.904002 1121.88,726.144 1122.168,726.144 C1122.36,726.144 1122.408,726.096 1122.312,726 L1122.6,726 C1123.464,726 1123.944,726.479995 1124.04,727.44 L1124.04,729.888 C1124.136,730.464003 1124.472,730.752 1125.048,730.752 C1125.624,730.752 1126.2,730.512002 1126.776,730.032 C1127.16,731.280006 1127.352,732.239997 1127.352,732.912 L1127.352,732.912 Z M1063.272,720.816 C1063.272,721.680004 1062.69601,722.303998 1061.544,722.688 L1060.68,722.688 L1060.68,721.68 C1061.256,721.487999 1062.11999,721.200002 1063.272,720.816 L1063.272,720.816 Z M1049.88,763.008 L1049.736,763.44 L1048.872,763.152 L1048.872,762.72 L1049.88,763.008 Z M1052.76,767.904 L1052.616,768.336 L1052.04,767.904 L1052.04,767.616 L1052.76,767.904 Z M1050.888,768.048 L1049.592,767.76 L1049.592,767.328 L1050.888,767.616 L1050.888,768.048 Z M1042.824,762.864 L1040.952,762.864 L1040.952,762.432 L1042.824,762.432 L1042.824,762.864 Z M1046.856,763.872 C1046.856,763.872 1046.616,764.111998 1046.136,764.592 C1046.424,764.880001 1046.568,765.119999 1046.568,765.312 C1044.55199,765.312 1041.43202,765.216001 1037.208,765.024 C1039.99201,765.216001 1043.20798,764.832005 1046.856,763.872 L1046.856,763.872 Z M1038.36,763.152 C1038.072,763.152 1037.688,763.223999 1037.208,763.368 C1036.728,763.512001 1036.344,763.584 1036.056,763.584 C1035.864,763.584 1035.696,763.440001 1035.552,763.152 C1035.408,762.863999 1035.336,762.72 1035.336,762.72 C1036.008,763.008001 1037.01599,763.152 1038.36,763.152 L1038.36,763.152 Z M1031.448,763.44 L1029.144,763.152 L1029.144,762.72 L1031.448,763.008 L1031.448,763.44 Z M1113.384,678.48 C1112.904,677.999998 1112.472,677.76 1112.088,677.76 C1112.088,677.856 1112.136,678.071998 1112.232,678.408 C1112.328,678.744002 1112.376,678.96 1112.376,679.056 C1112.568,679.056 1112.904,678.864002 1113.384,678.48 L1113.384,678.48 Z M1114.392,680.496 L1114.248,680.064 L1113.672,680.352 L1113.672,680.784 L1114.392,680.496 Z M1115.832,682.656 C1115.64,682.56 1115.544,682.368001 1115.544,682.08 L1112.664,680.208 C1112.664,680.304 1112.712,680.471999 1112.808,680.712 C1112.904,680.952001 1113.096,681.791993 1113.384,683.232 C1113.576,684.288005 1113.288,685.103997 1112.52,685.68 C1113.384,685.007997 1114.48799,684.000007 1115.832,682.656 L1115.832,682.656 Z M1112.232,680.208 C1112.232,680.208 1112.112,680.112001 1111.872,679.92 C1111.632,679.727999 1111.368,679.632 1111.08,679.632 C1110.696,679.632 1110.552,679.727999 1110.648,679.92 C1110.456,679.535998 1110.456,679.344 1110.648,679.344 C1111.128,678.767997 1111.368,678.432 1111.368,678.336 C1111.368,678.336 1111.344,678.384 1111.296,678.48 C1111.248,678.576 1111.08,678.624 1110.792,678.624 C1110.792,678.431999 1110.504,677.952004 1109.928,677.184 C1109.352,678.720008 1109.064,680.015995 1109.064,681.072 C1109.064,681.552002 1109.352,682.079997 1109.928,682.656 C1110.6,681.983997 1111.368,681.168005 1112.232,680.208 L1112.232,680.208 Z M1110.504,690 L1110.216,689.856 L1109.496,690.432 L1109.784,690.72 L1110.504,690 Z M1108.344,692.448 L1107.912,692.16 L1107.048,693.456 L1107.48,693.744 L1108.344,692.448 Z M1113.96,688.416 C1113.768,688.223999 1113.624,687.984001 1113.528,687.696 C1112.76,688.752005 1111.46401,689.855994 1109.64,691.008 C1109.832,691.488002 1109.616,691.871999 1108.992,692.16 C1108.368,692.448001 1107.984,692.807998 1107.84,693.24 C1107.696,693.672002 1107.576,693.888 1107.48,693.888 C1107.192,693.888 1107.072,693.84 1107.12,693.744 C1107.168,693.648 1107.096,693.6 1106.904,693.6 C1106.808,693.6 1106.08801,694.295993 1104.744,695.688 C1103.39999,697.080007 1102.15201,697.919999 1101,698.208 L1100.136,699.216 C1102.34401,698.159995 1105.36798,696.432012 1109.208,694.032 C1109.496,693.455997 1110,692.736004 1110.72,691.872 C1111.44,691.007996 1112.51999,689.856007 1113.96,688.416 L1113.96,688.416 Z M1100.28,699.504 L1099.992,699.216 L1099.272,699.936 L1099.56,700.224 L1100.28,699.504 Z M1096.968,698.784 L1095.528,699.216 L1096.536,699.216 L1096.968,698.784 Z M1120.44,726.144 L1119.864,724.56 L1119.432,724.704 L1120.008,726.144 L1120.44,726.144 Z M1097.256,703.104 L1096.968,702.672 L1095.528,703.824 L1095.816,704.256 L1097.256,703.104 Z M1095.672,702.528 L1095.384,702.096 L1094.232,703.104 L1094.376,703.392 L1095.672,702.528 Z M1095.384,704.4 L1095.24,703.968 L1094.52,704.4 L1094.52,704.688 L1095.384,704.4 Z M1094.52,704.976 L1094.376,704.544 L1093.224,705.12 L1093.224,705.552 L1094.52,704.976 Z M1093.368,701.232 C1092.21599,701.520001 1090.53601,702.095996 1088.328,702.96 C1088.712,703.440002 1089.288,704.015997 1090.056,704.688 C1091.016,704.015997 1092.07199,703.344003 1093.224,702.672 C1092.84,702.672 1092.648,702.528001 1092.648,702.24 C1093.128,701.567997 1093.368,701.232 1093.368,701.232 L1093.368,701.232 Z M1084.152,702.096 L1083.72,701.664 L1083.432,701.952 L1083.864,702.384 L1084.152,702.096 Z M1066.296,712.032 C1065.432,712.224001 1064.42401,712.703996 1063.272,713.472 C1063.656,713.472 1063.848,713.567999 1063.848,713.76 C1065.09601,713.279998 1065.912,712.704003 1066.296,712.032 L1066.296,712.032 Z M1068.888,765.6 L1068.888,765.168 L1066.872,765.168 L1066.872,765.6 L1068.888,765.6 Z M1068.888,768.336 L1068.888,767.76 L1068.168,767.76 L1068.168,768.336 L1068.888,768.336 Z M1066.008,765.6 L1066.008,765.168 L1065,765.168 L1065,765.6 L1066.008,765.6 Z M1056.792,763.728 L1056.792,763.296 L1055.784,763.296 L1055.784,763.728 L1056.792,763.728 Z M1057.08,766.464 L1057.08,765.888 L1055.784,765.888 L1055.784,766.464 L1057.08,766.464 Z M1055.784,766.176 L1055.784,765.744 L1055.064,765.744 L1055.064,766.176 L1055.784,766.176 Z M1054.344,763.728 L1054.344,763.296 L1051.032,763.296 L1051.032,763.728 L1054.344,763.728 Z M1048.44,762.432 L1048.44,761.856 L1047.72,761.856 L1047.72,762.432 L1048.44,762.432 Z M1050.744,765.456 L1050.456,765.168 L1049.88,765.456 L1049.88,765.888 L1050.744,765.456 Z M1110.504,680.784 L1110.072,681.504 L1109.784,681.36 L1110.072,680.64 L1110.504,680.784 Z" id="13"></path>
        </g>
    </g>
</svg>