<?xml version="1.0" encoding="UTF-8" standalone="no"?>
<svg width="127px" height="118px" viewBox="0 0 127 118" version="1.1" xmlns="http://www.w3.org/2000/svg" xmlns:xlink="http://www.w3.org/1999/xlink">
    <!-- Generator: Sketch 3.6.1 (26313) - http://www.bohemiancoding.com/sketch -->
    <title>14</title>
    <desc>Created with Sketch.</desc>
    <defs></defs>
    <g id="Page-1" stroke="none" stroke-width="1" fill="none" fill-rule="evenodd">
        <g id="Desktop2" transform="translate(-984.000000, -466.000000)" fill="#D71955">
            <path d="M1034.304,473.96 C1034.304,474.536003 1034.184,474.895999 1033.944,475.04 C1033.704,475.184001 1033.392,475.399999 1033.008,475.688 C1031.66399,475.880001 1030.27201,476.743992 1028.832,478.28 C1028.256,478.664002 1027.34401,479.335995 1026.096,480.296 C1022.63998,484.040019 1018.22403,489.175967 1012.848,495.704 C1012.752,495.319998 1012.704,495.08 1012.704,494.984 C1016.06402,490.855979 1019.37598,486.728021 1022.64,482.6 C1026.67202,477.895976 1030.07999,474.824007 1032.864,473.384 L1033.872,473.384 C1033.872,473.768002 1034.016,473.96 1034.304,473.96 L1034.304,473.96 Z M1029.12,528.248 L1028.832,529.256 L1028.4,529.112 L1028.832,528.248 L1029.12,528.248 Z M1028.832,529.544 L1028.544,530.552 L1028.256,530.408 L1028.544,529.544 L1028.832,529.544 Z M1029.12,536.312 L1028.688,536.312 L1028.688,535.592 L1029.12,535.592 L1029.12,536.312 Z M1041.504,546.68 C1041.504,546.968001 1041.24,547.399997 1040.712,547.976 C1040.184,548.552003 1039.776,548.84 1039.488,548.84 L1037.328,548.84 L1036.752,548.12 C1036.848,547.735998 1037.04,547.208003 1037.328,546.536 C1038.096,545.767996 1038.864,545.384 1039.632,545.384 C1040.88001,545.384 1041.504,545.815996 1041.504,546.68 L1041.504,546.68 Z M1049.712,567.272 C1029.2639,572.264025 1018.656,574.76 1017.888,574.76 C1017.696,574.76 1017.432,574.712 1017.096,574.616 C1016.76,574.52 1016.496,574.472 1016.304,574.472 C1016.016,574.472 1014.48001,574.927995 1011.696,575.84 C1008.91199,576.752005 1007.424,577.208 1007.232,577.208 C1007.04,577.208 1006.992,577.112001 1007.088,576.92 C1007.184,576.727999 1007.088,576.632 1006.8,576.632 C1003.34398,576.632 1000.56001,577.495991 998.448,579.224 C997.679996,579.224 996.528008,579.607996 994.992,580.376 L995.136,580.52 C995.424001,580.52 995.903997,580.376001 996.576,580.088 L997.584,580.088 C997.968002,580.472002 998.16,580.903998 998.16,581.384 C998.16,581.864002 997.728004,582.343998 996.864,582.824 C995.999996,583.304002 995.280003,583.544 994.704,583.544 L992.544,583.544 L992.544,582.536 C993.600005,582.151998 994.128,581.576004 994.128,580.808 C994.032,580.712 993.744002,580.664 993.264,580.664 C992.975999,580.664 992.832,580.712 992.832,580.808 C992.832,581.000001 992.736001,581.096 992.544,581.096 C992.351999,581.096 992.28,581.048 992.328,580.952 C992.376,580.856 992.256001,580.808 991.968,580.808 C991.775999,580.808 991.68,580.903999 991.68,581.096 C991.68,581.288001 991.584001,581.384 991.392,581.384 C991.488,581.384 991.320002,581.288001 990.888,581.096 C990.455998,580.903999 989.520007,580.808 988.08,580.808 C988.08,580.423998 988.175999,580.136001 988.368,579.944 C987.887998,579.751999 987.168005,579.320003 986.208,578.648 C986.208,577.975997 986.471997,577.232004 987,576.416 C987.528003,575.599996 987.792,575.192 987.792,575.192 C987.792,574.519997 987.696001,573.800004 987.504,573.032 C987.311999,572.551998 986.784004,572.216001 985.92,572.024 C984.671994,570.00799 984.048,569.095999 984.048,569.288 C984.048,567.847993 988.463956,565.11202 997.296,561.08 L997.296,560.216 C996.815998,560.408001 996.480001,560.504 996.288,560.504 L995.712,559.784 C997.536009,558.055991 999.887986,556.712005 1002.768,555.752 C1005.45601,555.079997 1008.19199,554.408003 1010.976,553.736 C1008.76799,554.504004 1005.64802,555.991989 1001.616,558.2 C1001.808,558.488001 1002.192,558.632 1002.768,558.632 C1002.96,558.632 1004.39999,558.104005 1007.088,557.048 C1009.77601,555.991995 1011.216,555.464 1011.408,555.464 C1011.696,555.464 1011.792,555.559999 1011.696,555.752 C1011.6,555.944001 1011.648,556.04 1011.84,556.04 C1012.032,556.04 1012.416,555.944001 1012.992,555.752 C1013.568,555.559999 1014.096,555.464 1014.576,555.464 C1014.672,553.255989 1014.816,549.656025 1015.008,544.664 L1018.464,518.456 C1018.272,517.975998 1018.08,517.592001 1017.888,517.304 C1016.928,518.552006 1016.496,519.367998 1016.592,519.752 L1016.016,519.176 C1012.94398,521.480012 1010.16001,524.455982 1007.664,528.104 C1005.55199,531.176015 1003.44001,534.295984 1001.328,537.464 C1001.136,537.752001 1001.04,538.183997 1001.04,538.76 C1000.656,538.952001 1000.128,539.383997 999.456,540.056 C998.591996,541.112005 997.296009,542.791988 995.568,545.096 C995.568,544.519997 995.472001,544.184 995.28,544.088 C995.184,544.184 995.088,544.303999 994.992,544.448 C994.896,544.592001 994.8,544.712 994.704,544.808 C994.704,545.000001 995.375993,543.704014 996.72,540.92 C996.912001,540.439998 996.96,540.008002 996.864,539.624 C997.632004,539.528 998.399996,538.232012 999.168,535.736 C999.360001,535.64 999.216002,535.592 998.736,535.592 C997.871996,535.592 996.816006,536.455991 995.568,538.184 C995.183998,538.088 994.800002,537.656004 994.416,536.888 C994.223999,536.888 994.08,536.936 993.984,537.032 C993.888,537.128 992.592012,538.855983 990.096,542.216 C990.192,541.639997 990.575997,540.872005 991.248,539.912 C991.248,539.623999 991.2,539.432 991.104,539.336 C988.607988,540.584006 987.455999,541.208 987.648,541.208 L986.208,541.208 C986.208,541.112 986.16,540.920001 986.064,540.632 C985.968,540.343999 985.92,540.056001 985.92,539.768 C985.92,539.383998 985.968,539.096001 986.064,538.904 C987.216006,537.559993 987.792,536.792001 987.792,536.6 C987.792,535.927997 987.408004,534.824008 986.64,533.288 C986.255998,533.576001 986.016,533.72 985.92,533.72 C986.304002,533.335998 986.400001,533.048001 986.208,532.856 C986.496001,532.567999 986.879998,532.424 987.36,532.424 C987.552001,532.328 987.6,531.944003 987.504,531.272 C987.888002,529.927993 988.559995,528.056012 989.52,525.656 C989.904002,525.271998 990.527996,524.696004 991.392,523.928 C991.488,523.639999 991.631999,523.208003 991.824,522.632 C997.87203,514.183958 1003.19998,507.368026 1007.808,502.184 C1012.51202,497.287976 1019.95195,489.416054 1030.128,478.568 C1030.512,478.568 1031.04,478.424001 1031.712,478.136 C1031.712,478.328001 1031.52,478.903995 1031.136,479.864 C1030.848,480.536003 1030.944,481.111998 1031.424,481.592 C1032.48001,480.919997 1034.06399,479.960006 1036.176,478.712 C1036.272,478.904001 1036.176,479.143999 1035.888,479.432 C1035.984,479.528 1036.176,479.959996 1036.464,480.728 C1036.656,481.112002 1036.896,481.304 1037.184,481.304 C1037.856,481.304 1038.192,480.968003 1038.192,480.296 C1038.192,480.007999 1038.096,479.552003 1037.904,478.928 C1037.712,478.303997 1037.616,477.992 1037.616,477.992 C1039.82401,476.839994 1040.928,476.264 1040.928,476.264 C1041.216,476.264 1041.504,476.312 1041.792,476.408 C1042.08,476.504 1042.224,476.552 1042.224,476.552 C1042.512,477.608005 1042.416,478.567996 1041.936,479.432 C1042.128,480.008003 1042.224,480.344 1042.224,480.44 C1040.87999,481.400005 1040.208,482.503994 1040.208,483.752 C1040.208,484.520004 1040.448,485.191997 1040.928,485.768 C1040.544,486.152002 1040.112,486.775996 1039.632,487.64 L1039.632,488.36 C1039.536,488.456 1039.68,488.504 1040.064,488.504 C1040.256,488.504 1040.688,488.264002 1041.36,487.784 C1042.032,487.303998 1042.512,487.016 1042.8,486.92 C1042.992,487.112001 1043.088,487.351999 1043.088,487.64 C1043.088,487.832001 1042.46401,488.695992 1041.216,490.232 C1039.67999,492.056009 1038.72,493.447995 1038.336,494.408 C1037.952,495.368005 1037.472,496.903989 1036.896,499.016 C1036.704,499.880004 1036.464,501.175991 1036.176,502.904 C1034.73599,509.816035 1032.38402,520.27993 1029.12,534.296 C1029.312,532.663992 1029.552,530.264016 1029.84,527.096 C1029.744,527 1029.696,526.880001 1029.696,526.736 C1029.696,526.591999 1029.648,526.472 1029.552,526.376 C1029.456,526.664001 1029.216,527.095997 1028.832,527.672 L1031.424,513.848 C1031.136,513.559999 1030.944,513.416 1030.848,513.416 C1030.752,513.416 1030.656,513.559999 1030.56,513.848 C1029.984,518.456023 1029.408,521.959988 1028.832,524.36 C1028.736,524.936003 1028.496,525.751995 1028.112,526.808 C1028.016,526.904 1027.944,527.023999 1027.896,527.168 C1027.848,527.312001 1027.68,527.384 1027.392,527.384 C1027.104,527.384 1026.96,527.288001 1026.96,527.096 L1026.96,526.808 C1026.288,528.440008 1025.808,530.599987 1025.52,533.288 C1025.04,537.416021 1024.752,539.671998 1024.656,540.056 C1024.56,541.112005 1024.32,542.64799 1023.936,544.664 C1023.744,544.952001 1023.456,545.383997 1023.072,545.96 C1022.976,545.671999 1022.736,545.240003 1022.352,544.664 C1022.256,544.76 1022.208,545.047998 1022.208,545.528 C1022.208,545.816001 1022.544,546.247997 1023.216,546.824 C1023.312,547.208002 1023.312,547.831996 1023.216,548.696 L1024.368,548.84 L1024.368,548.12 C1024.368,548.12 1024.464,548.263999 1024.656,548.552 C1024.944,548.167998 1026.28799,547.784002 1028.688,547.4 C1029.168,547.4 1029.84,547.352 1030.704,547.256 C1031.664,546.679997 1032.95999,546.056003 1034.592,545.384 C1034.592,546.344005 1034.784,547.111997 1035.168,547.688 C1034.784,547.880001 1034.256,548.407996 1033.584,549.272 C1037.52002,553.20802 1039.872,555.176 1040.64,555.176 C1040.832,555.176 1041.024,555.080001 1041.216,554.888 C1041.216,555.176001 1041.12,555.415999 1040.928,555.608 C1041.6,556.184003 1042.75199,556.951995 1044.384,557.912 C1044.48,558.200001 1044.24,558.679997 1043.664,559.352 C1044.048,559.736002 1044.432,559.928 1044.816,559.928 L1045.536,559.928 C1045.824,559.832 1045.968,559.784 1045.968,559.784 C1042.51198,561.416008 1040.784,562.423998 1040.784,562.808 C1040.784,563.000001 1041.55199,564.151989 1043.088,566.264 C1042.128,566.552001 1040.64001,567.079996 1038.624,567.848 C1038.528,567.848 1038.576,567.943999 1038.768,568.136 C1042.80002,567.271996 1045.296,566.84 1046.256,566.84 C1046.448,566.84 1047,566.911999 1047.912,567.056 C1048.824,567.200001 1049.424,567.272 1049.712,567.272 L1049.712,567.272 Z M1000.896,540.2 L1000.608,540.488 L1000.176,540.056 L1000.464,539.768 L1000.896,540.2 Z M1013.712,554.888 L1011.984,555.608 L1011.984,555.176 L1013.568,554.6 L1013.712,554.888 Z M993.984,544.664 L993.696,545.384 L993.264,545.24 L993.552,544.52 L993.984,544.664 Z M1002.192,578.648 L1001.472,579.368 L1001.184,579.08 L1001.904,578.36 L1002.192,578.648 Z M1034.16,508.808 L1034.16,507.8 L1033.728,507.8 L1033.728,508.808 L1034.16,508.808 Z M1033.872,510.104 L1033.872,509.384 L1033.44,509.384 L1033.44,510.104 L1033.872,510.104 Z M1033.44,513.56 L1033.44,512.552 L1033.008,512.552 L1033.008,513.56 L1033.44,513.56 Z M1032.576,546.824 L1032.288,546.68 L1031.856,547.4 L1032.288,547.544 L1032.576,546.824 Z M1018.32,536.744 L1017.888,536.6 L1017.6,537.32 L1018.032,537.464 L1018.32,536.744 Z M1033.872,548.12 C1033.68,548.12 1033.44,548.072 1033.152,547.976 C1032.864,547.88 1032.624,547.832 1032.432,547.832 C1031.37599,547.832 1030.464,548.455994 1029.696,549.704 C1029.408,549.319998 1029.168,549.128 1028.976,549.128 C1029.264,549.128 1028.25601,549.511996 1025.952,550.28 C1026.816,550.760002 1027.344,551 1027.536,551 C1027.728,551 1028.136,550.808002 1028.76,550.424 C1029.384,550.039998 1029.792,549.848 1029.984,549.848 C1030.272,549.848 1030.704,550.231996 1031.28,551 C1032.62401,550.231996 1033.296,549.848 1033.296,549.848 C1033.296,549.079996 1033.488,548.504002 1033.872,548.12 L1033.872,548.12 Z M1020.336,573.752 L1020.336,573.32 L1019.616,573.32 L1019.616,573.752 L1020.336,573.752 Z M1073.04,578.648 L1072.752,578.648 L1072.464,578.072 L1072.752,577.928 L1073.04,578.648 Z M1082.256,468.632 C1082.064,468.824001 1081.968,469.015999 1081.968,469.208 L1080.528,468.92 C1081.008,468.343997 1081.248,468.056 1081.248,468.056 C1081.344,468.056 1081.512,468.127999 1081.752,468.272 C1081.992,468.416001 1082.16,468.536 1082.256,468.632 L1082.256,468.632 Z M1110.768,489.368 C1110.576,490.712007 1110.288,492.583988 1109.904,494.984 C1109.904,495.08 1109.712,495.607995 1109.328,496.568 C1109.04,497.240003 1109.04,497.671999 1109.328,497.864 C1108.944,497.96 1108.296,498.223998 1107.384,498.656 C1106.472,499.088002 1105.92,499.304 1105.728,499.304 C1104.67199,499.304 1103.808,498.968003 1103.136,498.296 C1102.848,497.911998 1102.656,497.240005 1102.56,496.28 C1102.464,495.319995 1102.344,494.672002 1102.2,494.336 C1102.056,493.999998 1101.72,493.688001 1101.192,493.4 C1100.664,493.111999 1100.4,492.728002 1100.4,492.248 C1100.4,490.807993 1101.07199,490.088 1102.416,490.088 C1102.8,490.088 1103.232,490.327998 1103.712,490.808 C1105.92001,489.463993 1107.504,488.792 1108.464,488.792 C1108.848,488.792 1109.61599,488.983998 1110.768,489.368 L1110.768,489.368 Z M1080.672,470.648 L1079.808,470.648 L1080.096,469.784 C1080.48,470.168002 1080.672,470.455999 1080.672,470.648 L1080.672,470.648 Z M1091.616,486.344 C1091.328,486.248 1090.944,486.2 1090.464,486.2 C1090.464,486.007999 1090.56,485.720002 1090.752,485.336 C1090.752,485.24 1091.04,485.575996 1091.616,486.344 L1091.616,486.344 Z M1106.592,504.632 L1106.304,504.632 L1106.016,504.056 L1106.304,503.912 L1106.592,504.632 Z M1090.608,488.936 L1089.744,488.936 L1089.744,488.504 L1090.608,488.504 L1090.608,488.936 Z M1069.296,467.48 L1068.432,468.056 L1068.288,467.768 L1069.152,467.192 L1069.296,467.48 Z M1089.168,488.216 L1088.16,488.216 L1088.16,487.784 L1089.168,487.784 L1089.168,488.216 Z M1106.592,506.936 L1106.16,506.936 L1106.16,505.064 L1106.592,505.064 L1106.592,506.936 Z M1088.88,489.224 C1088.88,489.224 1088.736,489.272 1088.448,489.368 C1088.16,489.464 1087.92,489.512 1087.728,489.512 C1087.056,489.512 1086.72,489.128004 1086.72,488.36 C1086.912,488.840002 1087.63199,489.128 1088.88,489.224 L1088.88,489.224 Z M1087.44,490.376 L1086.72,490.664 L1086.72,490.232 L1087.296,489.944 L1087.44,490.376 Z M1085.136,487.928 C1084.464,488.312002 1083.744,488.504 1082.976,488.504 C1083.072,488.215999 1083.504,487.928001 1084.272,487.64 L1085.136,487.928 Z M1091.328,494.84 C1090.656,495.224002 1089.74401,496.135993 1088.592,497.576 C1088.016,497.191998 1087.392,497.191998 1086.72,497.576 C1086.336,497.095998 1086.144,496.520003 1086.144,495.848 C1086.144,494.791995 1086.91199,493.736005 1088.448,492.68 C1088.736,492.68 1089.072,492.728 1089.456,492.824 C1089.744,492.535999 1090.128,492.392 1090.608,492.392 C1090.416,492.584001 1090.032,492.871998 1089.456,493.256 C1089.456,493.352 1089.552,493.543999 1089.744,493.832 L1090.464,493.112 C1090.656,493.112 1090.944,493.255999 1091.328,493.544 L1091.328,494.84 Z M1082.976,494.552 L1082.544,494.552 L1082.544,493.832 L1082.976,493.832 L1082.976,494.552 Z M1102.848,518.312 C1102.464,518.504001 1102.224,518.6 1102.128,518.6 C1102.128,518.504 1102.176,518.312001 1102.272,518.024 C1102.368,517.735999 1102.416,517.544 1102.416,517.448 C1102.416,517.544 1102.488,517.687999 1102.632,517.88 C1102.776,518.072001 1102.848,518.216 1102.848,518.312 L1102.848,518.312 Z M1084.704,500.024 L1083.984,500.312 L1083.984,500.024 L1084.56,499.736 L1084.704,500.024 Z M1058.928,478.424 L1057.488,479.288 L1057.344,478.856 L1058.784,478.136 L1058.928,478.424 Z M1106.304,508.376 C1106.112,508.183999 1105.968,508.183999 1105.872,508.376 C1105.488,509.624006 1105.104,510.943993 1104.72,512.336 C1104.336,513.728007 1103.76,514.519999 1102.992,514.712 C1102.224,515.672005 1101.528,517.11199 1100.904,519.032 C1100.28,520.95201 1100.016,522.439995 1100.112,523.496 C1099.632,523.688001 1099.392,524.023998 1099.392,524.504 C1099.584,524.792001 1099.776,525.031999 1099.968,525.224 C1100.256,525.800003 1100.064,526.088 1099.392,526.088 C1099.296,526.088 1099.152,525.992001 1098.96,525.8 C1098.096,527.240007 1097.712,528.679993 1097.808,530.12 C1096.65599,532.616012 1094.92801,537.84796 1092.624,545.816 C1092.432,546.584004 1092.384,547.399996 1092.48,548.264 C1092.384,548.36 1092.192,548.551999 1091.904,548.84 C1092,548.84 1092.12,548.888 1092.264,548.984 C1092.408,549.08 1092.528,549.176 1092.624,549.272 C1092.432,549.560001 1092.24,550.063996 1092.048,550.784 C1091.856,551.504004 1091.664,552.055998 1091.472,552.44 C1091.664,551.671996 1091.616,550.424009 1091.328,548.696 C1090.752,550.328008 1089.88801,554.071971 1088.736,559.928 C1088.736,560.888005 1088.688,562.231991 1088.592,563.96 C1088.4,564.248001 1088.208,564.727997 1088.016,565.4 C1088.112,564.631996 1088.16,565.687986 1088.16,568.568 C1088.16,569.336004 1087.968,570.967988 1087.584,573.464 C1087.584,572.407995 1087.488,569.720022 1087.296,565.4 C1087.104,565.207999 1086.912,564.920002 1086.72,564.536 C1086.624,563.863997 1086.624,562.856007 1086.72,561.512 C1086.528,561.512 1086.384,561.607999 1086.288,561.8 C1086.096,562.664004 1085.808,563.959991 1085.424,565.688 L1084.272,565.688 C1084.272,565.688 1084.224,565.568001 1084.128,565.328 C1084.032,565.087999 1083.984,564.92 1083.984,564.824 L1084.704,564.824 C1084.896,564.728 1084.992,564.536001 1084.992,564.248 C1084.992,564.152 1084.872,563.720004 1084.632,562.952 C1084.392,562.183996 1084.32,561.608002 1084.416,561.224 C1084.224,561.031999 1084.032,560.744002 1083.84,560.36 C1083.552,560.36 1083.36,560.408 1083.264,560.504 C1083.264,560.792001 1083.456,561.127998 1083.84,561.512 C1083.84,561.992002 1083.936,562.711995 1084.128,563.672 L1083.84,563.672 C1083.744,565.016007 1083.552,566.791989 1083.264,569 C1083.264,569.192001 1083.024,567.608017 1082.544,564.248 C1082.448,564.728002 1082.16,565.447995 1081.68,566.408 C1081.776,566.504 1082.016,566.552 1082.4,566.552 C1082.4,566.456 1082.4,567.943985 1082.4,571.016 C1081.92,570.535998 1081.68,570.008003 1081.68,569.432 C1081.2,568.855997 1080.96,568.855997 1080.96,569.432 L1080.96,569 C1081.056,568.807999 1080.912,568.712 1080.528,568.712 C1079.952,568.712 1079.664,568.999997 1079.664,569.576 C1079.664,569.768001 1079.808,570.967989 1080.096,573.176 C1080.384,575.384011 1080.576,576.967995 1080.672,577.928 C1080.384,578.120001 1080.144,578.216 1079.952,578.216 C1079.376,574.375981 1078.8,569.288032 1078.224,562.952 C1078.416,562.471998 1078.512,561.560007 1078.512,560.216 C1078.32,560.023999 1077.888,559.976 1077.216,560.072 C1077.216,558.535992 1077.36,556.232015 1077.648,553.16 C1077.648,553.064 1077.816,552.752003 1078.152,552.224 C1078.488,551.695997 1078.656,551.288001 1078.656,551 C1078.56,550.135996 1078.848,547.160025 1079.52,542.072 C1079.424,541.976 1079.28,541.928 1079.088,541.928 C1078.896,542.120001 1078.8,542.455998 1078.8,542.936 C1078.8,542.263997 1078.944,541.496004 1079.232,540.632 C1079.136,540.536 1079.064,540.416001 1079.016,540.272 C1078.968,540.127999 1078.896,540.008 1078.8,539.912 C1078.704,540.008 1078.512,540.151999 1078.224,540.344 C1078.032,542.26401 1078.128,543.319999 1078.512,543.512 C1078.512,543.800001 1078.32,543.944 1077.936,543.944 C1077.936,544.232001 1078.032,544.615998 1078.224,545.096 L1078.224,545.96 L1077.216,545.96 C1077.12,546.056 1077.024,547.159989 1076.928,549.272 C1076.832,549.272 1076.736,549.415999 1076.64,549.704 C1076.544,549.992001 1076.448,550.687994 1076.352,551.792 C1076.256,552.896006 1076.208,553.687998 1076.208,554.168 L1076.208,555.032 C1076.208,554.839999 1076.112,554.600001 1075.92,554.312 C1075.632,554.888003 1075.392,555.463997 1075.2,556.04 C1075.2,556.04 1075.104,555.896001 1074.912,555.608 C1074.72,555.704 1074.528,556.087997 1074.336,556.76 L1074.624,557.048 C1074.912,556.759999 1075.104,556.616 1075.2,556.616 C1075.008,557.096002 1074.672,557.815995 1074.192,558.776 C1074.096,558.776 1073.952,558.656001 1073.76,558.416 C1073.568,558.175999 1073.424,558.056 1073.328,558.056 C1073.52,556.999995 1073.616,556.040004 1073.616,555.176 C1073.904,555.176 1074.384,554.984002 1075.056,554.6 C1075.056,554.311999 1075.008,554.168 1074.912,554.168 C1074.72,554.264 1074.624,554.36 1074.624,554.456 C1074.624,554.263999 1074.528,554.072001 1074.336,553.88 C1073.856,554.360002 1073.568,554.6 1073.472,554.6 L1073.472,552.728 C1073.568,553.112002 1073.712,552.968003 1073.904,552.296 C1073.904,551.239995 1074.24,549.800009 1074.912,547.976 C1075.296,546.919995 1075.488,546.248001 1075.488,545.96 C1075.488,545.383997 1075.152,544.904002 1074.48,544.52 C1074.768,544.327999 1075.008,543.992002 1075.2,543.512 C1075.296,543.416 1075.248,543.32 1075.056,543.224 C1074.576,543.224 1074.336,543.415998 1074.336,543.8 C1074.336,543.223997 1074.624,542.792001 1075.2,542.504 C1075.104,542.408 1074.864,542.36 1074.48,542.36 C1074.864,541.111994 1075.056,540.104004 1075.056,539.336 C1074.768,539.047999 1074.48,538.904 1074.192,538.904 C1074.192,538.904 1074.24,539.287996 1074.336,540.056 C1074.24,540.632003 1073.808,541.399995 1073.04,542.36 C1073.04,542.648001 1073.184,542.983998 1073.472,543.368 C1073.28,543.656001 1072.896,544.135997 1072.32,544.808 L1072.752,545.096 L1072.032,545.096 C1072.032,545.192 1072.032,543.608016 1072.032,540.344 C1071.648,540.151999 1070.92801,540.247998 1069.872,540.632 L1070.304,540.056 L1069.872,539.768 L1069.728,539.912 L1068.576,539.624 C1069.056,539.624 1069.392,539.528001 1069.584,539.336 C1069.296,539.24 1068.864,539.048001 1068.288,538.76 L1070.736,538.76 C1070.256,538.375998 1069.632,538.184 1068.864,538.184 L1068,538.616 C1067.616,539.288003 1066.992,540.295993 1066.128,541.64 C1066.128,541.832001 1066.08,542.119998 1065.984,542.504 C1065.984,542.6 1066.032,542.696 1066.128,542.792 C1066.32,543.080001 1066.224,543.224 1065.84,543.224 C1065.84,543.32 1065.888,543.703997 1065.984,544.376 C1065.792,544.183999 1065.408,544.088 1064.832,544.088 C1064.832,544.184 1064.928,543.848004 1065.12,543.08 L1065.12,541.784 C1065.216,541.399998 1065.408,540.824004 1065.696,540.056 C1065.984,539.287996 1066.128,538.808001 1066.128,538.616 C1066.128,537.559995 1065.55201,537.032 1064.4,537.032 C1064.112,537.032 1063.776,537.175999 1063.392,537.464 C1063.296,536.887997 1062.84,536.552 1062.024,536.456 C1061.208,536.36 1060.416,536.264 1059.648,536.168 L1059.072,535.592 C1059.456,535.399999 1060.032,534.872004 1060.8,534.008 L1056.48,534.008 C1056.48,533.335997 1056.72,533 1057.2,533 C1057.488,533 1057.632,533.048 1057.632,533.144 C1057.632,533.24 1057.728,533.288 1057.92,533.288 C1058.592,533.288 1059.43199,533.024003 1060.44,532.496 C1061.44801,531.967997 1062,531.464002 1062.096,530.984 C1061.328,530.888 1059.88801,530.84 1057.776,530.84 C1057.584,530.84 1057.512,530.744001 1057.56,530.552 C1057.608,530.359999 1057.536,530.264 1057.344,530.264 C1057.152,530.264 1057.08,530.312 1057.128,530.408 C1057.176,530.504 1057.104,530.552 1056.912,530.552 C1056.72,530.552 1056.576,530.432001 1056.48,530.192 C1056.384,529.951999 1056.24,529.832 1056.048,529.832 C1055.856,529.832 1055.76,529.88 1055.76,529.976 L1055.472,529.976 C1054.512,528.919995 1053.648,528.392 1052.88,528.392 C1053.072,528.392 1053.312,528.248001 1053.6,527.96 C1053.312,527.383997 1052.928,526.616005 1052.448,525.656 C1052.832,525.656 1053.312,525.799999 1053.888,526.088 L1054.176,526.088 C1053.408,524.935994 1052.64,524.36 1051.872,524.36 C1051.68,524.36 1051.488,524.455999 1051.296,524.648 C1051.104,524.359999 1051.008,524.024002 1051.008,523.64 C1051.104,523.64 1051.272,523.711999 1051.512,523.856 C1051.752,524.000001 1051.92,524.072 1052.016,524.072 C1052.112,523.976 1052.16,523.832001 1052.16,523.64 C1052.16,521.911991 1051.48801,520.472006 1050.144,519.32 C1050.528,519.416 1051.056,519.272002 1051.728,518.888 C1051.632,518.792 1051.464,518.600001 1051.224,518.312 C1050.984,518.023999 1050.816,517.784001 1050.72,517.592 C1050.336,518.072002 1050.192,518.312 1050.288,518.312 L1050.288,516.872 C1050.48,517.064001 1050.816,517.303999 1051.296,517.592 C1051.296,516.919997 1051.44,515.912007 1051.728,514.568 C1052.016,513.223993 1052.16,512.504 1052.16,512.408 C1052.16,512.215999 1052.016,511.880002 1051.728,511.4 C1051.536,511.015998 1051.584,510.392004 1051.872,509.528 C1051.68,509.335999 1051.344,509.24 1050.864,509.24 C1050.96,509.432001 1050.96,509.815997 1050.864,510.392 C1050.576,510.199999 1050.288,510.199999 1050,510.392 C1050.288,509.431995 1050.696,508.016009 1051.224,506.144 C1051.752,504.271991 1052.352,501.512018 1053.024,497.864 C1053.216,497.768 1053.696,496.952008 1054.464,495.416 C1054.176,495.127999 1053.936,495.127999 1053.744,495.416 C1053.264,496.664006 1052.544,498.007993 1051.584,499.448 C1050.72,502.136013 1049.904,504.823987 1049.136,507.512 C1047.98399,511.44802 1047.552,514.42399 1047.84,516.44 C1047.456,517.304004 1047.264,517.640001 1047.264,517.448 C1047.264,517.928002 1047.36,518.599996 1047.552,519.464 C1047.648,519.848002 1047.936,520.183999 1048.416,520.472 C1048.416,520.279999 1048.128,520.615996 1047.552,521.48 C1047.36,521.768001 1047.264,522.199997 1047.264,522.776 C1047.264,523.832005 1047.93599,525.031993 1049.28,526.376 C1048.992,526.087999 1048.608,525.800001 1048.128,525.512 C1048.032,526.664006 1047.984,527.192 1047.984,527.096 C1047.6,527.096 1047.12,526.904002 1046.544,526.52 C1046.544,525.559995 1046.496,524.024011 1046.4,521.912 C1046.304,519.799989 1046.256,518.648001 1046.256,518.456 C1046.256,516.055988 1046.78399,512.504024 1047.84,507.8 C1048.128,506.359993 1048.296,505.664 1048.344,505.712 C1048.392,505.76 1048.464,505.688001 1048.56,505.496 C1048.848,504.055993 1048.992,503.312 1048.992,503.264 C1048.992,503.216 1049.328,502.23201 1050,500.312 C1050.48,499.255995 1051.104,497.672011 1051.872,495.56 C1052.16,494.695996 1052.64,493.400009 1053.312,491.672 C1053.696,491.383999 1054.128,490.904003 1054.608,490.232 C1054.608,489.559997 1054.752,488.600006 1055.04,487.352 C1055.136,487.352 1055.28,487.447999 1055.472,487.64 C1055.952,487.255998 1056.24,486.872002 1056.336,486.488 C1056.144,486.295999 1055.856,486.391998 1055.472,486.776 C1056.144,484.567989 1056.816,483.032004 1057.488,482.168 C1060.56002,477.847978 1062.288,475.688 1062.672,475.688 C1062.96,475.688 1063.152,475.783999 1063.248,475.976 C1063.344,476.168001 1063.392,476.264 1063.392,476.264 C1063.488,476.168 1063.68,475.688004 1063.968,474.824 C1064.448,474.439998 1065,474.032002 1065.624,473.6 C1066.248,473.167998 1066.512,472.616003 1066.416,471.944 C1067.47201,472.04 1068.144,471.896002 1068.432,471.512 C1068.336,472.376004 1068.288,472.856 1068.288,472.952 C1069.056,472.471998 1069.92,471.752005 1070.88,470.792 L1071.168,470.792 C1071.36,470.888 1071.552,470.936 1071.744,470.936 C1071.744,470.936 1073.80798,469.400015 1077.936,466.328 C1077.456,467.672007 1076.44801,469.063993 1074.912,470.504 C1075.104,470.311999 1075.2,470.551997 1075.2,471.224 L1074.48,471.224 C1074.192,471.512001 1074.048,471.704 1074.048,471.8 C1074.528,471.704 1075.34399,471.704 1076.496,471.8 C1076.016,473.72001 1075.776,474.871998 1075.776,475.256 C1075.776,475.736002 1075.824,476.024 1075.92,476.12 C1076.208,475.735998 1076.592,475.112004 1077.072,474.248 C1077.36,474.055999 1077.744,473.720002 1078.224,473.24 C1078.32,472.855998 1078.704,472.280004 1079.376,471.512 C1078.896,473.048008 1078.272,475.255986 1077.504,478.136 C1077.6,478.712003 1077.648,479.527995 1077.648,480.584 C1077.072,482.216008 1076.784,482.792002 1076.784,482.312 C1076.784,482.600001 1076.88,482.887999 1077.072,483.176 C1077.168,483.08 1077.336,483.008 1077.576,482.96 C1077.816,482.912 1077.936,482.84 1077.936,482.744 C1078.032,482.263998 1077.792,482.024 1077.216,482.024 C1077.696,480.967995 1078.272,479.672008 1078.944,478.136 C1078.944,478.328001 1079.064,478.807996 1079.304,479.576 C1079.544,480.344004 1079.664,480.871999 1079.664,481.16 C1079.664,481.352001 1079.496,481.807996 1079.16,482.528 C1078.824,483.248004 1078.608,483.751999 1078.512,484.04 C1078.224,485.576008 1077.21601,487.591988 1075.488,490.088 C1073.37599,493.352016 1072.176,495.319997 1071.888,495.992 C1071.312,497.144006 1070.832,498.295994 1070.448,499.448 C1070.64,499.928002 1070.736,500.168 1070.736,500.168 C1070.352,500.168 1070.064,500.12 1069.872,500.024 C1069.488,500.696003 1069.44,501.319997 1069.728,501.896 C1069.536,501.992 1069.344,501.944001 1069.152,501.752 C1067.80799,503.576009 1066.8,505.44799 1066.128,507.368 C1065.648,510.344015 1064.68801,514.663972 1063.248,520.328 C1062.672,522.152009 1062.384,522.872002 1062.384,522.488 C1062.384,523.352004 1062.72,523.832 1063.392,523.928 C1064.064,524.024 1064.688,524.12 1065.264,524.216 C1064.784,524.023999 1064.16,524.215997 1063.392,524.792 C1063.392,524.984001 1063.44,525.175999 1063.536,525.368 C1063.728,525.368 1064.088,525.32 1064.616,525.224 C1065.144,525.128 1065.552,525.08 1065.84,525.08 C1065.84,525.176 1065.648,525.367999 1065.264,525.656 C1065.744,526.136002 1066.08,526.376 1066.272,526.376 C1066.944,526.376 1068.09599,525.992004 1069.728,525.224 C1071.36001,524.455996 1072.368,523.976001 1072.752,523.784 C1074.09601,523.015996 1075.056,522.152005 1075.632,521.192 C1076.304,521.192 1076.832,521.383998 1077.216,521.768 C1076.928,522.344003 1076.496,522.823998 1075.92,523.208 C1075.92,523.208 1075.488,523.735995 1074.624,524.792 L1074.624,525.08 C1075.008,524.887999 1075.68,524.600002 1076.64,524.216 C1076.736,523.927999 1077.024,523.496003 1077.504,522.92 C1078.56001,522.343997 1079.376,521.768003 1079.952,521.192 C1079.568,519.27199 1079.376,518.36 1079.376,518.456 C1080.048,515.671986 1081.05599,511.30403 1082.4,505.352 C1082.496,505.256 1082.448,505.112001 1082.256,504.92 C1082.064,505.112001 1081.92,505.208 1081.824,505.208 L1081.824,504.056 C1082.208,504.344001 1082.448,504.488 1082.544,504.488 C1082.832,503.527995 1082.736,502.808002 1082.256,502.328 C1083.40801,502.328 1084.176,502.615997 1084.56,503.192 C1084.848,503.192 1084.992,502.952002 1084.992,502.472 C1086.33601,502.376 1087.2,502.136002 1087.584,501.752 C1087.776,501.752 1087.824,501.8 1087.728,501.896 L1087.728,502.184 C1087.728,501.607997 1087.824,500.744006 1088.016,499.592 C1088.4,499.015997 1089.16799,498.152006 1090.32,497 C1091.28,497.480002 1091.76,497.72 1091.76,497.72 C1091.664,497.72 1092.048,497.432003 1092.912,496.856 C1093.296,496.856 1093.824,496.760001 1094.496,496.568 C1094.88,496.952002 1095.072,497.383998 1095.072,497.864 C1095.072,498.440003 1094.736,498.871999 1094.064,499.16 C1093.392,499.448001 1092.768,499.687999 1092.192,499.88 C1092.384,500.168001 1092.672,500.312 1093.056,500.312 C1093.152,500.312 1093.344,500.264 1093.632,500.168 C1093.92,500.072 1094.16,500.024 1094.352,500.024 C1094.736,500.024 1095.88799,500.503995 1097.808,501.464 C1098.096,501.464 1098.24,501.320001 1098.24,501.032 C1098.912,501.704003 1099.584,502.135999 1100.256,502.328 C1100.448,502.424 1100.4,502.52 1100.112,502.616 C1100.304,502.904001 1100.688,503.048 1101.264,503.048 C1101.264,503.624003 1101.12,504.055999 1100.832,504.344 C1101.312,504.536001 1101.696,504.584 1101.984,504.488 C1101.792,504.680001 1101.408,504.919999 1100.832,505.208 C1100.832,505.688002 1100.976,505.928 1101.264,505.928 L1101.696,505.928 C1101.888,505.832 1101.984,505.784 1101.984,505.784 C1101.984,506.360003 1101.792,506.648 1101.408,506.648 C1101.216,506.648 1101.12,506.576001 1101.12,506.432 C1101.12,506.287999 1101.072,506.216 1100.976,506.216 C1100.88,506.312 1100.832,506.503999 1100.832,506.792 C1100.832,507.656004 1101.55199,508.807993 1102.992,510.248 C1103.28,510.248 1103.568,510.104001 1103.856,509.816 C1104.144,509.527999 1104.096,509.384 1103.712,509.384 C1103.424,509.384 1103.256,509.432 1103.208,509.528 C1103.16,509.624 1103.136,509.672 1103.136,509.672 C1103.616,508.999997 1104.048,508.040006 1104.432,506.792 C1104.336,506.311998 1104.24,505.448006 1104.144,504.2 L1105.008,504.2 C1105.584,505.640007 1106.016,507.031993 1106.304,508.376 L1106.304,508.376 Z M1051.008,511.976 L1050.72,512.264 L1050.144,511.688 L1050.432,511.4 L1051.008,511.976 Z M1091.76,554.6 L1091.328,554.6 L1091.328,552.728 L1091.76,552.728 L1091.76,554.6 Z M1050.576,513.416 L1050.144,513.416 L1050.144,512.408 L1050.576,512.408 L1050.576,513.416 Z M1050.288,515.432 L1050.288,514.568 C1049.904,514.568 1049.664,514.663999 1049.568,514.856 C1049.76,514.567999 1049.856,514.328001 1049.856,514.136 C1050.336,514.424001 1050.48,514.855997 1050.288,515.432 L1050.288,515.432 Z M1075.344,541.208 L1074.768,541.784 L1074.912,542.072 L1075.632,541.352 L1075.344,541.208 Z M1049.712,517.592 L1049.28,517.592 L1049.28,516.872 L1049.712,516.872 L1049.712,517.592 Z M1051.152,520.904 C1050.768,521 1050.576,521.096 1050.576,521.192 L1050.576,520.472 C1050.576,520.760001 1050.768,520.904 1051.152,520.904 L1051.152,520.904 Z M1086.576,558.056 L1086.288,559.496 L1086.72,559.496 L1087.008,558.056 L1086.576,558.056 Z M1074.048,546.824 L1073.616,546.824 L1073.616,546.248 L1074.048,546.248 L1074.048,546.824 Z M1086.864,559.928 C1086.768,559.928 1086.576,559.832001 1086.288,559.64 C1086.288,559.832001 1086.336,560.071999 1086.432,560.36 C1086.528,560.648001 1086.576,560.84 1086.576,560.936 C1086.576,560.455998 1086.672,560.120001 1086.864,559.928 L1086.864,559.928 Z M1087.44,564.104 L1087.008,564.104 L1087.008,564.968 L1087.44,564.968 L1087.44,564.104 Z M1085.28,567.416 L1084.848,567.416 L1084.848,566.552 L1085.28,566.552 L1085.28,567.416 Z M1081.68,564.392 C1081.008,562.951993 1080.576,561.848004 1080.384,561.08 C1080.48,562.520007 1080.528,563.527997 1080.528,564.104 C1080.528,563.911999 1080.624,563.720001 1080.816,563.528 C1081.008,563.912002 1081.104,564.487996 1081.104,565.256 C1081.104,565.16 1081.176,565.016001 1081.32,564.824 C1081.464,564.631999 1081.584,564.488 1081.68,564.392 L1081.68,564.392 Z M1072.608,556.04 L1072.176,556.04 L1072.176,555.464 L1072.608,555.464 L1072.608,556.04 Z M1077.792,560.36 L1077.216,561.656 L1076.928,561.368 L1077.504,560.36 L1077.792,560.36 Z M1080.816,565.544 L1080.384,565.544 L1080.384,566.264 L1080.816,566.264 L1080.816,565.544 Z M1072.32,559.208 C1072.128,559.592002 1071.888,560.023998 1071.6,560.504 L1071.6,559.784 C1071.6,559.399998 1071.84,559.208 1072.32,559.208 L1072.32,559.208 Z M1077.648,566.552 L1077.216,566.552 L1077.216,565.832 L1077.648,565.832 L1077.648,566.552 Z M1081.248,569.864 L1080.96,570.584 L1080.672,570.44 L1080.96,569.72 L1081.248,569.864 Z M1071.888,560.936 C1071.888,561.128001 1071.744,561.415998 1071.456,561.8 C1071.168,561.511999 1071.024,561.272001 1071.024,561.08 C1071.6,561.08 1071.888,561.032 1071.888,560.936 L1071.888,560.936 Z M1073.04,571.736 C1072.752,572.024001 1072.608,572.311999 1072.608,572.6 C1072.608,572.311999 1072.464,572.168 1072.176,572.168 L1072.176,574.616 C1072.176,574.327999 1072.08,574.136 1071.888,574.04 L1071.6,574.328 C1071.792,574.904003 1072.08,575.815994 1072.464,577.064 L1072.464,577.496 C1072.176,576.535995 1071.792,575.576005 1071.312,574.616 L1071.312,571.448 C1072.08,571.832002 1072.656,571.928001 1073.04,571.736 L1073.04,571.736 Z M1090.176,502.328 L1090.032,501.896 L1089.168,502.184 L1089.168,502.616 L1090.176,502.328 Z M1055.76,501.464 L1055.76,500.6 L1055.328,500.6 L1055.328,501.464 L1055.76,501.464 Z M1078.944,523.928 C1078.464,523.928 1078.176,523.976 1078.08,524.072 C1077.6,523.591998 1077.408,523.352 1077.504,523.352 C1077.504,523.544001 1077.6,523.735999 1077.792,523.928 C1077.6,524.024 1077.12,524.743993 1076.352,526.088 C1076.64,525.799999 1076.88,525.799999 1077.072,526.088 C1077.456,525.607998 1078.08,524.888005 1078.944,523.928 L1078.944,523.928 Z M1061.952,508.52 L1061.52,508.376 L1061.088,509.24 L1061.52,509.528 L1061.952,508.52 Z M1057.776,506.216 L1057.776,505.496 L1057.344,505.496 L1057.344,506.216 L1057.776,506.216 Z M1055.184,504.2 L1055.184,502.472 L1054.752,502.472 L1054.752,504.2 L1055.184,504.2 Z M1061.808,510.536 L1061.664,510.536 C1061.568,510.632 1061.376,510.68 1061.088,510.68 C1060.896,510.68 1060.8,510.536001 1060.8,510.248 C1060.8,509.959999 1060.752,509.768 1060.656,509.672 C1060.272,510.440004 1060.128,510.919999 1060.224,511.112 L1061.232,511.112 L1061.808,510.536 Z M1055.04,505.208 L1055.04,504.488 L1054.608,504.488 L1054.608,505.208 L1055.04,505.208 Z M1076.208,525.08 C1075.728,525.272001 1075.344,525.847995 1075.056,526.808 C1075.248,526.615999 1075.536,526.52 1075.92,526.52 C1075.92,525.751996 1076.016,525.272001 1076.208,525.08 L1076.208,525.08 Z M1060.512,513.56 L1060.512,511.976 L1060.08,511.976 L1060.08,513.56 L1060.512,513.56 Z M1054.608,506.504 C1054.416,506.888002 1054.08,507.751993 1053.6,509.096 C1054.176,509.576002 1054.464,509.480003 1054.464,508.808 C1054.464,508.519999 1054.416,508.184002 1054.32,507.8 C1054.512,506.839995 1054.608,506.408 1054.608,506.504 L1054.608,506.504 Z M1060.08,516.44 C1060.08,516.344 1060.032,516.152001 1059.936,515.864 C1059.84,515.575999 1059.792,515.384 1059.792,515.288 L1059.792,517.16 C1059.792,516.775998 1059.888,516.536 1060.08,516.44 L1060.08,516.44 Z M1076.064,534.152 L1075.776,534.008 L1075.488,534.584 L1075.776,534.728 L1076.064,534.152 Z M1073.616,531.704 L1073.328,531.416 L1072.176,532.28 L1072.464,532.568 L1073.616,531.704 Z M1061.52,517.448 C1061.424,517.448 1061.28,517.4 1061.088,517.304 C1061.376,517.015999 1061.52,516.632002 1061.52,516.152 C1061.136,516.536002 1060.56,517.111996 1059.792,517.88 C1059.6,517.687999 1059.408,517.592 1059.216,517.592 C1059.408,519.51201 1059.504,521.43199 1059.504,523.352 C1059.6,523.256 1059.888,522.728005 1060.368,521.768 C1060.656,521.768 1060.8,521.959998 1060.8,522.344 C1060.8,522.151999 1060.56,521.624004 1060.08,520.76 C1060.464,520.76 1060.656,520.951998 1060.656,521.336 C1061.232,518.551986 1061.52,517.255999 1061.52,517.448 L1061.52,517.448 Z M1058.64,506.792 C1058.256,507.080001 1057.68,507.511997 1056.912,508.088 C1057.008,508.664003 1056.96,509.479995 1056.768,510.536 C1056.096,511.976007 1055.808,512.983997 1055.904,513.56 C1055.424,514.232003 1055.184,515.047995 1055.184,516.008 C1055.184,516.200001 1055.71199,517.687986 1056.768,520.472 C1056.672,520.664001 1056.576,520.927998 1056.48,521.264 C1056.384,521.600002 1056.336,521.816 1056.336,521.912 C1056.336,522.680004 1056.48,523.543995 1056.768,524.504 C1056.96,525.080003 1057.392,525.847995 1058.064,526.808 C1057.488,524.311988 1057.2,523.255998 1057.2,523.64 C1057.2,523.832001 1057.44,523.448005 1057.92,522.488 C1057.248,521.431995 1056.912,520.952 1056.912,521.048 C1057.008,521.048 1057.248,521.239998 1057.632,521.624 C1057.632,521.431999 1057.776,521.144002 1058.064,520.76 C1057.488,520.375998 1057.296,519.896003 1057.488,519.32 C1057.68,518.455996 1057.776,518.119999 1057.776,518.312 C1057.488,518.119999 1057.344,517.928001 1057.344,517.736 C1057.344,513.991981 1057.44,511.352008 1057.632,509.816 C1057.92,509.143997 1058.256,508.136007 1058.64,506.792 L1058.64,506.792 Z M1062.096,522.344 L1062.096,521.336 C1061.424,521.336 1061.088,521.671997 1061.088,522.344 L1062.096,522.344 Z M1054.464,509.816 C1054.272,509.816 1054.032,509.720001 1053.744,509.528 C1053.744,509.624 1053.624,509.839998 1053.384,510.176 C1053.144,510.512002 1053.024,510.728 1053.024,510.824 C1052.832,512.552009 1052.736,514.42399 1052.736,516.44 C1052.736,516.536 1052.784,517.207994 1052.88,518.456 C1052.976,519.704006 1053.024,520.567998 1053.024,521.048 C1053.12,518.743988 1053.36,515.288023 1053.744,510.68 C1053.936,510.487999 1054.176,510.200002 1054.464,509.816 L1054.464,509.816 Z M1075.632,536.024 C1075.344,536.12 1075.008,536.311999 1074.624,536.6 L1074.624,537.896 C1074.624,537.8 1074.912,537.752 1075.488,537.752 C1075.488,537.559999 1075.536,537.272002 1075.632,536.888 L1075.632,536.024 L1075.632,536.024 Z M1059.216,522.488 L1058.928,520.904 L1058.496,520.904 L1058.784,522.488 L1059.216,522.488 Z M1091.184,557.48 L1090.752,557.48 L1091.04,556.184 L1091.472,556.184 L1091.184,557.48 Z M1073.04,535.592 L1070.88,535.592 C1070.4,535.976002 1069.728,536.407998 1068.864,536.888 C1070.40001,537.944005 1071.168,538.472 1071.168,538.472 L1072.464,538.472 C1072.56,537.703996 1072.752,536.744006 1073.04,535.592 L1073.04,535.592 Z M1074.336,557.912 L1073.904,557.48 L1073.76,557.768 L1074.048,558.2 L1074.336,557.912 Z M1073.472,560.36 L1073.184,560.216 L1073.472,559.352 L1073.904,559.352 L1073.472,560.36 Z M1077.216,565.256 L1077.216,564.104 L1077.648,564.104 L1077.648,565.256 L1077.216,565.256 Z M1075.2,566.984 C1075.008,567.176001 1074.816,567.272 1074.624,567.272 C1074.336,567.848003 1074.144,568.279999 1074.048,568.568 C1074.432,569.048002 1074.72,569.288 1074.912,569.288 C1074.912,569.384 1074.768,569.575999 1074.48,569.864 C1074.48,570.152001 1074.72,570.296 1075.2,570.296 L1075.056,571.16 C1075.056,571.256 1074.72,571.064002 1074.048,570.584 C1073.568,566.359979 1073.328,563.768005 1073.328,562.808 C1073.328,562.615999 1073.376,562.328002 1073.472,561.944 C1073.568,561.559998 1073.616,561.272001 1073.616,561.08 C1073.52,561.08 1073.712,561.223999 1074.192,561.512 L1074.912,561.08 C1074.624,562.040005 1074.432,562.759998 1074.336,563.24 C1074.24,563.432001 1074.336,563.576 1074.624,563.672 C1074.432,563.672 1074.336,563.863998 1074.336,564.248 C1074.336,565.016004 1074.432,565.543999 1074.624,565.832 C1074.816,566.120001 1075.008,566.503998 1075.2,566.984 L1075.2,566.984 Z M1072.752,571.16 C1072.272,570.967999 1072.032,570.632002 1072.032,570.152 C1071.744,569.863999 1071.552,569.72 1071.456,569.72 C1071.264,570.200002 1071.168,570.631998 1071.168,571.016 C1071.168,570.631998 1071.096,570.032004 1070.952,569.216 C1070.808,568.399996 1070.736,567.896001 1070.736,567.704 C1070.736,567.896001 1070.976,567.512005 1071.456,566.552 C1071.552,566.359999 1071.6,565.592007 1071.6,564.248 C1071.696,564.536001 1071.744,565.447992 1071.744,566.984 C1071.744,568.520008 1072.08,569.911994 1072.752,571.16 L1072.752,571.16 Z M1060.512,520.328 L1060.08,520.328 L1060.08,518.456 L1060.512,518.456 L1060.512,520.328 Z" id="14"></path>
        </g>
    </g>
</svg>