<?xml version="1.0" encoding="UTF-8" standalone="no"?>
<svg width="170px" height="111px" viewBox="0 0 170 111" version="1.1" xmlns="http://www.w3.org/2000/svg" xmlns:xlink="http://www.w3.org/1999/xlink">
    <!-- Generator: Sketch 3.6.1 (26313) - http://www.bohemiancoding.com/sketch -->
    <title>15</title>
    <desc>Created with Sketch.</desc>
    <defs></defs>
    <g id="Page-1" stroke="none" stroke-width="1" fill="none" fill-rule="evenodd">
        <g id="Desktop2" transform="translate(-968.000000, -280.000000)" fill="#D71955">
            <path d="M1018.304,280.96 C1018.304,281.536003 1018.184,281.895999 1017.944,282.04 C1017.704,282.184001 1017.392,282.399999 1017.008,282.688 C1015.66399,282.880001 1014.27201,283.743992 1012.832,285.28 C1012.256,285.664002 1011.34401,286.335995 1010.096,287.296 C1006.63998,291.040019 1002.22403,296.175967 996.848,302.704 C996.752,302.319998 996.704,302.08 996.704,301.984 C1000.06402,297.855979 1003.37598,293.728021 1006.64,289.6 C1010.67202,284.895976 1014.07999,281.824007 1016.864,280.384 L1017.872,280.384 C1017.872,280.768002 1018.016,280.96 1018.304,280.96 L1018.304,280.96 Z M1013.12,335.248 L1012.832,336.256 L1012.4,336.112 L1012.832,335.248 L1013.12,335.248 Z M1012.832,336.544 L1012.544,337.552 L1012.256,337.408 L1012.544,336.544 L1012.832,336.544 Z M1013.12,343.312 L1012.688,343.312 L1012.688,342.592 L1013.12,342.592 L1013.12,343.312 Z M1025.504,353.68 C1025.504,353.968001 1025.24,354.399997 1024.712,354.976 C1024.184,355.552003 1023.776,355.84 1023.488,355.84 L1021.328,355.84 L1020.752,355.12 C1020.848,354.735998 1021.04,354.208003 1021.328,353.536 C1022.096,352.767996 1022.864,352.384 1023.632,352.384 C1024.88001,352.384 1025.504,352.815996 1025.504,353.68 L1025.504,353.68 Z M1033.712,374.272 C1013.2639,379.264025 1002.656,381.76 1001.888,381.76 C1001.696,381.76 1001.432,381.712 1001.096,381.616 C1000.76,381.52 1000.496,381.472 1000.304,381.472 C1000.016,381.472 998.480014,381.927995 995.696,382.84 C992.911986,383.752005 991.424001,384.208 991.232,384.208 C991.039999,384.208 990.992,384.112001 991.088,383.92 C991.184,383.727999 991.088001,383.632 990.8,383.632 C987.343983,383.632 984.560011,384.495991 982.448,386.224 C981.679996,386.224 980.528008,386.607996 978.992,387.376 L979.136,387.52 C979.424001,387.52 979.903997,387.376001 980.576,387.088 L981.584,387.088 C981.968002,387.472002 982.16,387.903998 982.16,388.384 C982.16,388.864002 981.728004,389.343998 980.864,389.824 C979.999996,390.304002 979.280003,390.544 978.704,390.544 L976.544,390.544 L976.544,389.536 C977.600005,389.151998 978.128,388.576004 978.128,387.808 C978.032,387.712 977.744002,387.664 977.264,387.664 C976.975999,387.664 976.832,387.712 976.832,387.808 C976.832,388.000001 976.736001,388.096 976.544,388.096 C976.351999,388.096 976.28,388.048 976.328,387.952 C976.376,387.856 976.256001,387.808 975.968,387.808 C975.775999,387.808 975.68,387.903999 975.68,388.096 C975.68,388.288001 975.584001,388.384 975.392,388.384 C975.488,388.384 975.320002,388.288001 974.888,388.096 C974.455998,387.903999 973.520007,387.808 972.08,387.808 C972.08,387.423998 972.175999,387.136001 972.368,386.944 C971.887998,386.751999 971.168005,386.320003 970.208,385.648 C970.208,384.975997 970.471997,384.232004 971,383.416 C971.528003,382.599996 971.792,382.192 971.792,382.192 C971.792,381.519997 971.696001,380.800004 971.504,380.032 C971.311999,379.551998 970.784004,379.216001 969.92,379.024 C968.671994,377.00799 968.048,376.095999 968.048,376.288 C968.048,374.847993 972.463956,372.11202 981.296,368.08 L981.296,367.216 C980.815998,367.408001 980.480001,367.504 980.288,367.504 L979.712,366.784 C981.536009,365.055991 983.887986,363.712005 986.768,362.752 C989.456013,362.079997 992.191986,361.408003 994.976,360.736 C992.767989,361.504004 989.64802,362.991989 985.616,365.2 C985.808001,365.488001 986.191997,365.632 986.768,365.632 C986.960001,365.632 988.399987,365.104005 991.088,364.048 C993.776013,362.991995 995.215999,362.464 995.408,362.464 C995.696001,362.464 995.792,362.559999 995.696,362.752 C995.6,362.944001 995.647999,363.04 995.84,363.04 C996.032001,363.04 996.415997,362.944001 996.992,362.752 C997.568003,362.559999 998.095998,362.464 998.576,362.464 C998.672,360.255989 998.815999,356.656025 999.008,351.664 L1002.464,325.456 C1002.272,324.975998 1002.08,324.592001 1001.888,324.304 C1000.928,325.552006 1000.496,326.367998 1000.592,326.752 L1000.016,326.176 C996.943985,328.480012 994.160012,331.455982 991.664,335.104 C989.551989,338.176015 987.440011,341.295984 985.328,344.464 C985.135999,344.752001 985.04,345.183997 985.04,345.76 C984.655998,345.952001 984.128003,346.383997 983.456,347.056 C982.591996,348.112005 981.296009,349.791988 979.568,352.096 C979.568,351.519997 979.472001,351.184 979.28,351.088 C979.184,351.184 979.088,351.303999 978.992,351.448 C978.896,351.592001 978.8,351.712 978.704,351.808 C978.704,352.000001 979.375993,350.704014 980.72,347.92 C980.912001,347.439998 980.96,347.008002 980.864,346.624 C981.632004,346.528 982.399996,345.232012 983.168,342.736 C983.360001,342.64 983.216002,342.592 982.736,342.592 C981.871996,342.592 980.816006,343.455991 979.568,345.184 C979.183998,345.088 978.800002,344.656004 978.416,343.888 C978.223999,343.888 978.08,343.936 977.984,344.032 C977.888,344.128 976.592012,345.855983 974.096,349.216 C974.192,348.639997 974.575997,347.872005 975.248,346.912 C975.248,346.623999 975.2,346.432 975.104,346.336 C972.607988,347.584006 971.455999,348.208 971.648,348.208 L970.208,348.208 C970.208,348.112 970.16,347.920001 970.064,347.632 C969.968,347.343999 969.92,347.056001 969.92,346.768 C969.92,346.383998 969.968,346.096001 970.064,345.904 C971.216006,344.559993 971.792,343.792001 971.792,343.6 C971.792,342.927997 971.408004,341.824008 970.64,340.288 C970.255998,340.576001 970.016,340.72 969.92,340.72 C970.304002,340.335998 970.400001,340.048001 970.208,339.856 C970.496001,339.567999 970.879998,339.424 971.36,339.424 C971.552001,339.328 971.6,338.944003 971.504,338.272 C971.888002,336.927993 972.559995,335.056012 973.52,332.656 C973.904002,332.271998 974.527996,331.696004 975.392,330.928 C975.488,330.639999 975.631999,330.208003 975.824,329.632 C981.87203,321.183958 987.199977,314.368026 991.808,309.184 C996.512024,304.287976 1003.95195,296.416054 1014.128,285.568 C1014.512,285.568 1015.04,285.424001 1015.712,285.136 C1015.712,285.328001 1015.52,285.903995 1015.136,286.864 C1014.848,287.536003 1014.944,288.111998 1015.424,288.592 C1016.48001,287.919997 1018.06399,286.960006 1020.176,285.712 C1020.272,285.904001 1020.176,286.143999 1019.888,286.432 C1019.984,286.528 1020.176,286.959996 1020.464,287.728 C1020.656,288.112002 1020.896,288.304 1021.184,288.304 C1021.856,288.304 1022.192,287.968003 1022.192,287.296 C1022.192,287.007999 1022.096,286.552003 1021.904,285.928 C1021.712,285.303997 1021.616,284.992 1021.616,284.992 C1023.82401,283.839994 1024.928,283.264 1024.928,283.264 C1025.216,283.264 1025.504,283.312 1025.792,283.408 C1026.08,283.504 1026.224,283.552 1026.224,283.552 C1026.512,284.608005 1026.416,285.567996 1025.936,286.432 C1026.128,287.008003 1026.224,287.344 1026.224,287.44 C1024.87999,288.400005 1024.208,289.503994 1024.208,290.752 C1024.208,291.520004 1024.448,292.191997 1024.928,292.768 C1024.544,293.152002 1024.112,293.775996 1023.632,294.64 L1023.632,295.36 C1023.536,295.456 1023.68,295.504 1024.064,295.504 C1024.256,295.504 1024.688,295.264002 1025.36,294.784 C1026.032,294.303998 1026.512,294.016 1026.8,293.92 C1026.992,294.112001 1027.088,294.351999 1027.088,294.64 C1027.088,294.832001 1026.46401,295.695992 1025.216,297.232 C1023.67999,299.056009 1022.72,300.447995 1022.336,301.408 C1021.952,302.368005 1021.472,303.903989 1020.896,306.016 C1020.704,306.880004 1020.464,308.175991 1020.176,309.904 C1018.73599,316.816035 1016.38402,327.27993 1013.12,341.296 C1013.312,339.663992 1013.552,337.264016 1013.84,334.096 C1013.744,334 1013.696,333.880001 1013.696,333.736 C1013.696,333.591999 1013.648,333.472 1013.552,333.376 C1013.456,333.664001 1013.216,334.095997 1012.832,334.672 L1015.424,320.848 C1015.136,320.559999 1014.944,320.416 1014.848,320.416 C1014.752,320.416 1014.656,320.559999 1014.56,320.848 C1013.984,325.456023 1013.408,328.959988 1012.832,331.36 C1012.736,331.936003 1012.496,332.751995 1012.112,333.808 C1012.016,333.904 1011.944,334.023999 1011.896,334.168 C1011.848,334.312001 1011.68,334.384 1011.392,334.384 C1011.104,334.384 1010.96,334.288001 1010.96,334.096 L1010.96,333.808 C1010.288,335.440008 1009.808,337.599987 1009.52,340.288 C1009.04,344.416021 1008.752,346.671998 1008.656,347.056 C1008.56,348.112005 1008.32,349.64799 1007.936,351.664 C1007.744,351.952001 1007.456,352.383997 1007.072,352.96 C1006.976,352.671999 1006.736,352.240003 1006.352,351.664 C1006.256,351.76 1006.208,352.047998 1006.208,352.528 C1006.208,352.816001 1006.544,353.247997 1007.216,353.824 C1007.312,354.208002 1007.312,354.831996 1007.216,355.696 L1008.368,355.84 L1008.368,355.12 C1008.368,355.12 1008.464,355.263999 1008.656,355.552 C1008.944,355.167998 1010.28799,354.784002 1012.688,354.4 C1013.168,354.4 1013.84,354.352 1014.704,354.256 C1015.664,353.679997 1016.95999,353.056003 1018.592,352.384 C1018.592,353.344005 1018.784,354.111997 1019.168,354.688 C1018.784,354.880001 1018.256,355.407996 1017.584,356.272 C1021.52002,360.20802 1023.872,362.176 1024.64,362.176 C1024.832,362.176 1025.024,362.080001 1025.216,361.888 C1025.216,362.176001 1025.12,362.415999 1024.928,362.608 C1025.6,363.184003 1026.75199,363.951995 1028.384,364.912 C1028.48,365.200001 1028.24,365.679997 1027.664,366.352 C1028.048,366.736002 1028.432,366.928 1028.816,366.928 L1029.536,366.928 C1029.824,366.832 1029.968,366.784 1029.968,366.784 C1026.51198,368.416008 1024.784,369.423998 1024.784,369.808 C1024.784,370.000001 1025.55199,371.151989 1027.088,373.264 C1026.128,373.552001 1024.64001,374.079996 1022.624,374.848 C1022.528,374.848 1022.576,374.943999 1022.768,375.136 C1026.80002,374.271996 1029.296,373.84 1030.256,373.84 C1030.448,373.84 1031,373.911999 1031.912,374.056 C1032.824,374.200001 1033.424,374.272 1033.712,374.272 L1033.712,374.272 Z M984.896,347.2 L984.608,347.488 L984.176,347.056 L984.464,346.768 L984.896,347.2 Z M997.712,361.888 L995.984,362.608 L995.984,362.176 L997.568,361.6 L997.712,361.888 Z M977.984,351.664 L977.696,352.384 L977.264,352.24 L977.552,351.52 L977.984,351.664 Z M986.192,385.648 L985.472,386.368 L985.184,386.08 L985.904,385.36 L986.192,385.648 Z M1018.16,315.808 L1018.16,314.8 L1017.728,314.8 L1017.728,315.808 L1018.16,315.808 Z M1017.872,317.104 L1017.872,316.384 L1017.44,316.384 L1017.44,317.104 L1017.872,317.104 Z M1017.44,320.56 L1017.44,319.552 L1017.008,319.552 L1017.008,320.56 L1017.44,320.56 Z M1016.576,353.824 L1016.288,353.68 L1015.856,354.4 L1016.288,354.544 L1016.576,353.824 Z M1002.32,343.744 L1001.888,343.6 L1001.6,344.32 L1002.032,344.464 L1002.32,343.744 Z M1017.872,355.12 C1017.68,355.12 1017.44,355.072 1017.152,354.976 C1016.864,354.88 1016.624,354.832 1016.432,354.832 C1015.37599,354.832 1014.464,355.455994 1013.696,356.704 C1013.408,356.319998 1013.168,356.128 1012.976,356.128 C1013.264,356.128 1012.25601,356.511996 1009.952,357.28 C1010.816,357.760002 1011.344,358 1011.536,358 C1011.728,358 1012.136,357.808002 1012.76,357.424 C1013.384,357.039998 1013.792,356.848 1013.984,356.848 C1014.272,356.848 1014.704,357.231996 1015.28,358 C1016.62401,357.231996 1017.296,356.848 1017.296,356.848 C1017.296,356.079996 1017.488,355.504002 1017.872,355.12 L1017.872,355.12 Z M1004.336,380.752 L1004.336,380.32 L1003.616,380.32 L1003.616,380.752 L1004.336,380.752 Z M1091.744,322.72 L1091.456,322.72 L1091.168,322.144 L1091.456,322 L1091.744,322.72 Z M1088.432,321.712 L1088.144,321.856 L1087.28,320.848 L1087.712,320.704 L1088.432,321.712 Z M1083.68,316.96 L1083.392,317.104 L1082.672,316.384 L1082.816,316.096 L1083.68,316.96 Z M1089.008,323.008 L1088.72,323.008 L1088.432,322.432 L1088.864,322.288 L1089.008,323.008 Z M1137.392,286.576 C1136.624,286.768001 1135.856,287.007999 1135.088,287.296 C1134.896,287.584001 1134.56,287.871999 1134.08,288.16 C1132.15999,288.256 1128.22403,289.215991 1122.272,291.04 C1122.56,291.328001 1122.704,291.711998 1122.704,292.192 C1121.64799,292.288 1120.01601,292.623997 1117.808,293.2 C1117.808,293.392001 1117.64,293.536 1117.304,293.632 C1116.968,293.728 1116.368,293.895999 1115.504,294.136 C1114.64,294.376001 1114.136,294.496 1113.992,294.496 C1113.848,294.496 1113.512,294.544 1112.984,294.64 C1112.456,294.736 1112.048,294.784 1111.76,294.784 C1111.568,294.88 1111.568,295.071999 1111.76,295.36 C1111.28,295.744002 1109.93601,296.031999 1107.728,296.224 C1105.99999,296.416001 1104.27201,296.56 1102.544,296.656 C1101.584,296.848001 1100.14401,297.087999 1098.224,297.376 C1098.128,297.376 1098.032,297.495999 1097.936,297.736 C1097.84,297.976001 1097.696,298.096 1097.504,298.096 C1097.312,298.096 1097.264,298.024001 1097.36,297.88 C1097.456,297.735999 1097.408,297.664 1097.216,297.664 C1097.216,297.664 1097.096,297.831998 1096.856,298.168 C1096.616,298.504002 1096.16,298.624 1095.488,298.528 C1095.392,298.432 1095.248,298.527999 1095.056,298.816 C1097.26401,299.008001 1099.23199,299.008001 1100.96,298.816 C1102.20801,298.623999 1104.07999,298.384001 1106.576,298.096 C1106.672,298.096 1106.912,298.000001 1107.296,297.808 C1107.68,297.615999 1107.968,297.52 1108.16,297.52 C1108.256,297.52 1108.4,297.591999 1108.592,297.736 C1108.784,297.880001 1108.976,297.952 1109.168,297.952 C1109.36,297.952 1109.528,297.880001 1109.672,297.736 C1109.816,297.591999 1109.984,297.52 1110.176,297.52 C1110.368,297.52 1111.03999,297.472 1112.192,297.376 C1113.34401,297.28 1114.016,297.232 1114.208,297.232 C1114.304,297.232 1114.64,297.519997 1115.216,298.096 C1113.48799,298.288001 1110.51202,298.767996 1106.288,299.536 C1102.63998,300.304004 1100.72,300.688 1100.528,300.688 C1099.76,300.688 1098.51201,300.831999 1096.784,301.12 C1096.208,301.12 1095.34401,301.168 1094.192,301.264 C1090.44798,302.032004 1088.432,302.416 1088.144,302.416 C1088.048,302.416 1087.808,302.368 1087.424,302.272 L1086.704,302.272 C1086.512,302.272 1085.984,302.391999 1085.12,302.632 C1084.256,302.872001 1083.632,302.992 1083.248,302.992 C1080.07998,303.376002 1075.42403,303.951996 1069.28,304.72 C1066.97599,305.200002 1065.632,305.727997 1065.248,306.304 C1065.92,306.976003 1066.208,307.743996 1066.112,308.608 C1065.92,309.376004 1065.728,310.143996 1065.536,310.912 C1065.632,310.912 1065.728,310.96 1065.824,311.056 C1065.92,311.152 1066.016,311.2 1066.112,311.2 C1066.592,310.815998 1066.784,310.528001 1066.688,310.336 C1067.072,310.624001 1067.264,310.768 1067.264,310.768 C1068.128,311.440003 1068.848,311.296005 1069.424,310.336 L1069.424,310.624 C1070.76801,311.200003 1071.344,311.488 1071.152,311.488 C1071.344,311.488 1071.416,311.44 1071.368,311.344 C1071.32,311.248 1071.392,311.2 1071.584,311.2 C1071.776,311.2 1072.184,311.248 1072.808,311.344 C1073.432,311.44 1073.792,311.536 1073.888,311.632 C1074.848,312.784006 1075.76,313.216001 1076.624,312.928 C1075.952,312.447998 1075.424,312.208 1075.04,312.208 C1076,312.208 1076.816,312.447998 1077.488,312.928 C1077.2,312.928 1076.96,313.023999 1076.768,313.216 C1078.11201,314.080004 1080.03199,315.327992 1082.528,316.96 C1082.912,317.440002 1083.056,317.823999 1082.96,318.112 L1083.824,318.112 C1084.208,318.592002 1084.784,319.119997 1085.552,319.696 C1086.032,320.656005 1087.18399,322.575986 1089.008,325.456 C1088.912,325.456 1089.104,325.264002 1089.584,324.88 C1089.584,324.88 1089.632,324.999999 1089.728,325.24 C1089.824,325.480001 1089.872,325.648 1089.872,325.744 C1089.68,325.551999 1089.536,325.456 1089.44,325.456 C1088.864,326.224004 1089.39199,327.231994 1091.024,328.48 C1091.024,328.48 1091.12,328.767997 1091.312,329.344 C1091.312,329.248 1091.216,329.295999 1091.024,329.488 C1091.12,329.488 1091.504,329.823997 1092.176,330.496 C1092.08,330.688001 1091.864,331.071997 1091.528,331.648 C1091.192,332.224003 1091.024,332.607999 1091.024,332.8 C1091.024,332.896 1091.12,333.039999 1091.312,333.232 C1091.408,333.328 1091.408,333.615998 1091.312,334.096 C1091.6,334.480002 1092.032,334.911998 1092.608,335.392 C1092.512,335.392 1092.344,335.487999 1092.104,335.68 C1091.864,335.872001 1091.648,336.016 1091.456,336.112 C1090.88,338.608012 1090.592,339.712001 1090.592,339.424 C1090.592,339.712001 1090.688,339.951999 1090.88,340.144 C1090.976,339.951999 1091.168,339.568003 1091.456,338.992 C1090.976,340.816009 1090.688,341.728 1090.592,341.728 L1090.016,341.44 L1090.016,343.168 C1090.016,343.168 1090.16,343.311999 1090.448,343.6 C1090.736,343.311999 1090.928,343.168 1091.024,343.168 C1091.024,343.264 1090.976,343.431999 1090.88,343.672 C1090.784,343.912001 1090.736,344.08 1090.736,344.176 C1090.736,344.176 1090.592,344.032001 1090.304,343.744 C1089.728,344.320003 1089.2,344.703999 1088.72,344.896 L1088.864,345.616 C1089.056,345.52 1089.152,345.376001 1089.152,345.184 C1089.152,345.568002 1089.344,345.76 1089.728,345.76 L1089.152,345.76 L1088.432,345.76 C1088.432,345.856 1088.384,346.191997 1088.288,346.768 C1087.328,347.920006 1086.08001,349.407991 1084.544,351.232 C1084.544,351.424001 1084.64,351.663999 1084.832,351.952 C1084.928,351.856 1085.216,351.76 1085.696,351.664 C1085.408,351.664 1084.88,351.951997 1084.112,352.528 C1084.208,352.335999 1084.208,352.000002 1084.112,351.52 C1083.824,351.712001 1083.248,351.999998 1082.384,352.384 L1082.672,353.104 C1082.672,353.104 1082.768,353.032001 1082.96,352.888 C1083.152,352.743999 1083.344,352.672 1083.536,352.672 C1083.248,352.960001 1082.864,353.295998 1082.384,353.68 C1082.288,353.68 1082.192,353.584001 1082.096,353.392 C1082,353.199999 1081.904,353.104 1081.808,353.104 L1081.376,353.104 C1081.184,353.2 1080.992,353.248 1080.8,353.248 C1080.224,353.824003 1080.272,354.112 1080.944,354.112 C1079.40799,354.208 1078.352,354.735995 1077.776,355.696 C1077.776,355.407999 1077.536,355.264 1077.056,355.264 C1076.288,355.264 1075.616,355.479998 1075.04,355.912 C1074.464,356.344002 1073.888,356.655999 1073.312,356.848 C1073.408,356.848 1073.264,356.656002 1072.88,356.272 C1071.82399,356.656002 1070.14401,357.327995 1067.84,358.288 C1068.128,358.288 1068.464,358.096002 1068.848,357.712 C1068.848,357.616 1068.656,357.568 1068.272,357.568 C1067.696,357.568 1066.928,357.855997 1065.968,358.432 C1065.968,358.239999 1065.824,358.048001 1065.536,357.856 C1065.44,357.856 1065.2,358.191997 1064.816,358.864 C1062.89599,359.632004 1062.032,360.016 1062.224,360.016 C1061.84,360.016 1061.648,360.159999 1061.648,360.448 C1061.072,360.159999 1060.544,360.016 1060.064,360.016 C1060.256,360.016 1059.63201,360.495995 1058.192,361.456 C1058.096,361.456 1058,361.384001 1057.904,361.24 C1057.808,361.095999 1057.664,361.024 1057.472,361.024 C1057.376,361.024 1056.60801,361.455996 1055.168,362.32 C1054.976,362.32 1054.28001,362.272 1053.08,362.176 C1051.87999,362.08 1051.184,362.032 1050.992,362.032 C1051.76,362.032 1050.41602,362.223998 1046.96,362.608 C1048.59201,362.127998 1050.99198,361.360005 1054.16,360.304 C1054.16,360.015999 1054.064,359.872 1053.872,359.872 C1053.488,359.872 1051.32802,360.447994 1047.392,361.6 L1048.256,360.736 C1049.31201,360.736 1050.272,360.592001 1051.136,360.304 C1052.86401,359.535996 1053.536,359.152 1053.152,359.152 C1053.344,359.152 1053.416,359.2 1053.368,359.296 C1053.32,359.392 1053.392,359.44 1053.584,359.44 C1053.872,359.44 1054.208,359.056004 1054.592,358.288 C1054.688,358.384 1055.072,358.432 1055.744,358.432 C1056.416,358.432 1057.04,358.240002 1057.616,357.856 C1057.52,357.856 1057.424,357.760001 1057.328,357.568 C1057.232,357.375999 1057.184,357.28 1057.184,357.28 C1057.472,357.087999 1059.05599,356.464005 1061.936,355.408 C1063.66401,354.735997 1064.816,353.872005 1065.392,352.816 C1066.064,352.431998 1067.16799,351.856004 1068.704,351.088 C1068.512,350.992 1068.224,350.752002 1067.84,350.368 C1067.36,350.944003 1066.832,351.28 1066.256,351.376 C1065.296,351.568001 1064.792,351.688 1064.744,351.736 C1064.696,351.784 1064.624,351.951999 1064.528,352.24 C1062.12799,353.104004 1061.12,353.536 1061.504,353.536 C1061.312,353.536 1061.168,353.607999 1061.072,353.752 C1060.976,353.896001 1060.832,353.968 1060.64,353.968 C1060.16,353.968 1059.872,353.824001 1059.776,353.536 C1059.392,353.824001 1059.344,354.111999 1059.632,354.4 C1059.536,354.4 1059.44,354.352 1059.344,354.256 C1059.248,354.16 1059.056,354.112 1058.768,354.112 C1058.672,354.112 1058.648,354.207999 1058.696,354.4 C1058.744,354.592001 1058.672,354.688 1058.48,354.688 L1058.048,354.688 C1057.856,354.688 1057.736,354.64 1057.688,354.544 C1057.64,354.448 1057.568,354.4 1057.472,354.4 C1057.088,354.784002 1057.088,354.976 1057.472,354.976 C1057.184,354.976 1056.728,355.143998 1056.104,355.48 C1055.48,355.816002 1055.12,355.984 1055.024,355.984 C1054.832,355.984 1054.76,355.912001 1054.808,355.768 C1054.856,355.623999 1054.784,355.552 1054.592,355.552 L1054.16,355.552 C1053.776,355.936002 1053.824,356.128 1054.304,356.128 C1054.208,356.128 1053.92,356.223999 1053.44,356.416 C1052.96,356.608001 1052.672,356.704 1052.576,356.704 C1052.288,356.704 1051.952,356.560001 1051.568,356.272 L1049.552,356.272 C1049.744,356.272 1050.032,356.176001 1050.416,355.984 C1050.8,355.791999 1051.088,355.696 1051.28,355.696 C1052.43201,355.696 1054.30399,355.072006 1056.896,353.824 C1056.704,353.631999 1056.368,353.536 1055.888,353.536 C1055.696,353.536 1055.432,353.679999 1055.096,353.968 C1054.76,354.256001 1054.496,354.4 1054.304,354.4 C1054.112,354.4 1054.04,354.352 1054.088,354.256 C1054.136,354.16 1054.064,354.112 1053.872,354.112 C1053.776,354.112 1053.15201,354.303998 1052,354.688 C1050.84799,355.072002 1049.984,355.312 1049.408,355.408 C1047.48799,355.600001 1045.56801,355.887998 1043.648,356.272 C1042.30399,356.560001 1040.72001,356.704 1038.896,356.704 C1038.512,356.704 1038.128,356.560001 1037.744,356.272 C1038.32,356.176 1039.25599,356.056001 1040.552,355.912 C1041.84801,355.767999 1042.784,355.648 1043.36,355.552 C1043.552,355.456 1043.648,355.264001 1043.648,354.976 L1040.48,354.976 C1040.96,354.976 1041.72799,354.808002 1042.784,354.472 C1043.84001,354.135998 1044.416,353.968 1044.512,353.968 C1044.704,353.968 1044.8,354.016 1044.8,354.112 L1045.232,354.112 C1044.944,354.112 1045.32799,353.920002 1046.384,353.536 C1048.68801,352.767996 1050.41599,352.384 1051.568,352.384 L1052,351.952 L1052.432,352.384 C1052.624,351.807997 1052.888,351.472 1053.224,351.376 C1053.56,351.28 1053.872,351.184 1054.16,351.088 C1053.584,350.799999 1052.912,350.895998 1052.144,351.376 C1052.72,351.087999 1053.392,350.704002 1054.16,350.224 C1054.064,350.128 1053.872,350.08 1053.584,350.08 C1057.80802,348.15999 1060.016,347.2 1060.208,347.2 C1060.112,347.2 1060.208,347.343999 1060.496,347.632 C1060.88,347.632 1060.88,347.440002 1060.496,347.056 C1061.456,346.767999 1062.70399,346.000006 1064.24,344.752 C1066.25601,344.367998 1067.6,343.648005 1068.272,342.592 C1067.6,342.592 1066.64001,342.735999 1065.392,343.024 C1065.392,343.408002 1065.584,343.168004 1065.968,342.304 C1065.872,342.208 1065.776,342.16 1065.68,342.16 C1065.584,342.16 1065.488,342.112 1065.392,342.016 C1065.104,342.304001 1064.96,342.639998 1064.96,343.024 C1064.768,343.024 1064.216,343.335997 1063.304,343.96 C1062.392,344.584003 1061.888,344.896 1061.792,344.896 C1061.6,344.896 1061.384,344.800001 1061.144,344.608 C1060.904,344.415999 1060.688,344.32 1060.496,344.32 C1061.84001,343.935998 1063.83199,342.856009 1066.472,341.08 C1069.11201,339.303991 1070.912,337.744007 1071.872,336.4 L1072.304,335.968 C1072.304,335.487998 1072.016,335.296 1071.44,335.392 C1071.632,335.007998 1072.064,334.672001 1072.736,334.384 C1072.928,333.807997 1072.88,332.896006 1072.592,331.648 C1071.43999,332.128002 1070.672,332.943994 1070.288,334.096 C1070.576,333.519997 1070.96,332.656006 1071.44,331.504 C1070.09599,330.351994 1068.70401,329.776 1067.264,329.776 C1067.072,329.776 1066.28001,329.919999 1064.888,330.208 C1063.49599,330.496001 1062.704,330.64 1062.512,330.64 C1062.224,330.64 1061.696,330.448002 1060.928,330.064 C1061.216,329.968 1061.648,329.728002 1062.224,329.344 C1062.32,329.151999 1062.416,328.816002 1062.512,328.336 C1061.552,328.336 1060.736,328.527998 1060.064,328.912 C1060.064,328.527998 1060.016,328.288 1059.92,328.192 C1059.824,328.192 1059.776,328.383998 1059.776,328.768 C1059.008,329.056001 1058.00001,329.439998 1056.752,329.92 C1056.752,329.439998 1057.088,329.056001 1057.76,328.768 C1057.856,328.672 1057.856,328.576 1057.76,328.48 C1056.8,328.864002 1056.32,329.056 1056.32,329.056 C1056.128,329.056 1055.96,328.984001 1055.816,328.84 C1055.672,328.695999 1055.552,328.624 1055.456,328.624 C1055.264,328.816001 1055.312,329.007999 1055.6,329.2 C1054.928,329.488001 1054.352,329.727999 1053.872,329.92 C1054.16,329.727999 1054.592,329.440002 1055.168,329.056 C1055.36,329.056 1054.35201,329.056 1052.144,329.056 C1051.952,329.248001 1052.048,329.535998 1052.432,329.92 C1052.336,329.92 1052.144,329.968 1051.856,330.064 C1051.568,330.16 1051.376,330.208 1051.28,330.208 C1051.568,329.823998 1051.712,329.584 1051.712,329.488 C1051.52,329.488 1050.56001,329.056004 1048.832,328.192 C1048.832,327.903999 1049.024,327.568002 1049.408,327.184 C1049.024,326.415996 1048.352,325.408006 1047.392,324.16 C1047.488,324.16 1047.704,324.016001 1048.04,323.728 C1048.376,323.439999 1048.64,323.248 1048.832,323.152 C1048.736,323.056 1048.544,323.008 1048.256,323.008 C1047.968,323.008 1047.488,323.295997 1046.816,323.872 C1045.75999,323.103996 1045.232,322.432003 1045.232,321.856 C1045.232,321.279997 1045.424,320.992 1045.808,320.992 C1045.712,321.184001 1045.76,321.615997 1045.952,322.288 C1046.144,321.999999 1046.336,321.568003 1046.528,320.992 C1047.104,320.511998 1047.824,319.888004 1048.688,319.12 C1048.88,319.12 1049.264,319.263999 1049.84,319.552 C1050.416,318.591995 1050.608,317.872002 1050.416,317.392 C1050.032,317.680001 1049.504,318.207996 1048.832,318.976 C1048.832,318.88 1048.88,318.784 1048.976,318.688 L1048.976,318.112 C1048.976,318.016 1048.688,317.824001 1048.112,317.536 C1048.112,317.44 1048.208,317.224002 1048.4,316.888 C1048.592,316.551998 1048.64,316.288001 1048.544,316.096 C1048.928,315.903999 1049.456,315.568002 1050.128,315.088 C1050.416,314.031995 1050.704,312.784007 1050.992,311.344 L1050.992,310.768 C1050.992,310.575999 1050.896,310.336001 1050.704,310.048 C1050.512,310.432002 1050.176,311.055996 1049.696,311.92 C1049.984,311.247997 1050.032,310.816001 1049.84,310.624 C1049.552,310.239998 1049.408,310.096 1049.408,310.192 C1049.408,309.999999 1049.504,309.88 1049.696,309.832 C1049.888,309.784 1049.984,309.76 1049.984,309.76 C1050.272,308.511994 1050.416,307.792001 1050.416,307.6 C1050.608,307.6 1050.752,307.695999 1050.848,307.888 C1051.328,307.215997 1051.568,306.592003 1051.568,306.016 C1051.568,306.208001 1051.664,306.543998 1051.856,307.024 C1052.048,307.024 1052.192,306.928001 1052.288,306.736 C1052.864,305.103992 1053.72799,302.656016 1054.88,299.392 L1054.88,299.248 C1054.496,299.152 1054.016,299.008001 1053.44,298.816 C1052.672,298.143997 1051.71201,297.232006 1050.56,296.08 C1049.984,295.599998 1048.88001,294.832005 1047.248,293.776 C1047.152,293.487999 1047.152,293.200001 1047.248,292.912 C1046.768,292.527998 1046.288,291.952004 1045.808,291.184 C1046.192,290.415996 1046.72,290.032 1047.392,290.032 C1047.584,290.032 1047.728,290.08 1047.824,290.176 L1048.112,290.176 C1049.072,290.176 1049.504,289.648005 1049.408,288.592 C1047.87199,287.151993 1045.61601,285.280012 1042.64,282.976 C1043.88801,283.648003 1045.61599,284.655993 1047.824,286 C1048.016,285.615998 1048.352,285.088003 1048.832,284.416 C1050.08001,284.416 1052.09599,284.368 1054.88,284.272 C1054.976,284.272 1055.168,284.176001 1055.456,283.984 C1055.744,283.791999 1055.984,283.696 1056.176,283.696 C1056.368,283.696 1056.416,283.767999 1056.32,283.912 C1056.224,284.056001 1056.272,284.128 1056.464,284.128 C1056.656,284.128 1056.872,284.056001 1057.112,283.912 C1057.352,283.767999 1057.472,283.648 1057.472,283.552 C1058.91201,283.552 1061.02399,283.504 1063.808,283.408 C1063.904,283.408 1064.144,283.312001 1064.528,283.12 C1064.912,282.927999 1065.2,282.832 1065.392,282.832 C1065.584,282.832 1065.944,282.903999 1066.472,283.048 C1067,283.192001 1067.36,283.264 1067.552,283.264 C1067.744,283.264 1068.224,283.192001 1068.992,283.048 C1069.76,282.903999 1070.192,282.832 1070.288,282.832 C1070.384,282.832 1072.25598,282.712001 1075.904,282.472 C1079.55202,282.231999 1082.28799,282.064 1084.112,281.968 C1086.22401,282.160001 1089.53598,282.256 1094.048,282.256 C1098.08002,282.16 1105.56795,281.632005 1116.512,280.672 C1119.48801,280.383999 1120.544,280.24 1119.68,280.24 C1119.872,280.24 1120.92799,280.479998 1122.848,280.96 C1122.848,281.248001 1122.704,281.535999 1122.416,281.824 C1122.128,281.728 1121.84,281.68 1121.552,281.68 C1120.88,281.968001 1119.63201,282.183999 1117.808,282.328 C1115.98399,282.472001 1114.592,282.831997 1113.632,283.408 C1113.632,283.408 1113.68,283.503999 1113.776,283.696 C1115.79201,283.407999 1118.81598,283.264 1122.848,283.264 C1123.04,283.264 1123.208,283.216 1123.352,283.12 C1123.496,283.024 1123.664,282.976 1123.856,282.976 C1124.144,282.976 1124.336,283.024 1124.432,283.12 C1124.528,283.216 1124.624,283.264 1124.72,283.264 C1123.08799,283.648002 1118.81603,284.127997 1111.904,284.704 C1111.616,284.704 1111.232,284.895998 1110.752,285.28 L1110.896,285.424 C1113.20001,285.424 1117.13597,285.232002 1122.704,284.848 C1121.45599,285.040001 1119.68001,285.327998 1117.376,285.712 C1116.03199,285.808 1114.01601,285.999999 1111.328,286.288 C1111.232,286.288 1109.45602,286.671996 1106,287.44 C1106.384,287.632001 1106.864,287.728 1107.44,287.728 C1107.44,287.728 1107.632,287.632001 1108.016,287.44 C1110.60801,287.344 1114.11198,287.104002 1118.528,286.72 C1119.96801,286.527999 1122.07999,286.288001 1124.864,286 C1124.96,286.096 1124.912,286.239999 1124.72,286.432 C1125.008,286.720001 1125.392,286.864 1125.872,286.864 C1125.488,287.056001 1124.96,287.391998 1124.288,287.872 C1124.288,287.872 1124.384,287.991999 1124.576,288.232 C1124.768,288.472001 1124.912,288.687999 1125.008,288.88 C1126.25601,288.303997 1127.40799,288.159999 1128.464,288.448 L1128.896,288.016 C1128.992,288.016 1129.064,287.968 1129.112,287.872 C1129.16,287.776 1129.28,287.728 1129.472,287.728 C1129.664,287.728 1130.192,287.68 1131.056,287.584 L1132.784,287.584 C1132.88,287.584 1133.50399,287.344002 1134.656,286.864 C1135.80801,286.383998 1136.48,286.144 1136.672,286.144 L1137.392,286.576 Z M1078.928,313.792 L1078.64,314.08 L1077.92,313.216 L1078.064,312.928 L1078.928,313.792 Z M1090.88,327.76 L1090.592,327.76 L1090.304,326.896 L1090.592,326.752 L1090.88,327.76 Z M1044.656,288.304 C1044.272,288.784002 1043.744,289.024 1043.072,289.024 C1041.82399,289.024 1041.008,288.736003 1040.624,288.16 C1040.624,287.391996 1040.912,287.008 1041.488,287.008 C1041.68,287.008 1042.088,287.056 1042.712,287.152 C1043.336,287.248 1043.84,287.296 1044.224,287.296 C1044.512,287.680002 1044.656,288.015999 1044.656,288.304 L1044.656,288.304 Z M1092.464,336.976 C1092.464,338.800009 1092.416,339.424003 1092.32,338.848 L1091.744,338.272 C1091.936,338.176 1092.176,337.744004 1092.464,336.976 L1092.464,336.976 Z M1046.24,292.624 C1046.24,292.912001 1046.048,293.247998 1045.664,293.632 C1045.76,292.863996 1045.616,292.192003 1045.232,291.616 C1045.904,291.616 1046.24,291.951997 1046.24,292.624 L1046.24,292.624 Z M1053.296,299.68 C1053.296,299.776 1053.248,300.015998 1053.152,300.4 C1053.056,300.784002 1053.008,301.024 1053.008,301.12 C1052.528,300.831999 1051.904,300.472002 1051.136,300.04 C1050.368,299.607998 1049.45601,298.624008 1048.4,297.088 L1049.408,297.088 C1050.65601,298.144005 1051.95199,299.007997 1053.296,299.68 L1053.296,299.68 Z M1044.944,293.344 C1044.752,293.44 1044.464,293.583999 1044.08,293.776 C1043.984,293.68 1043.744,293.632 1043.36,293.632 L1043.648,292.048 C1043.648,292.048 1043.816,292.119999 1044.152,292.264 C1044.488,292.408001 1044.752,292.48 1044.944,292.48 L1044.944,293.344 Z M1092.032,340.72 L1091.312,342.448 L1091.024,342.304 L1091.744,340.72 L1092.032,340.72 Z M1052.288,302.992 L1052,303.568 L1051.568,303.424 L1051.856,302.848 L1052.288,302.992 Z M1089.152,347.344 L1088.576,348.064 L1088.288,347.92 L1088.72,347.056 L1089.152,347.344 Z M1087.856,349.072 L1087.28,349.072 L1087.28,348.64 L1087.856,348.64 L1087.856,349.072 Z M1047.968,326.896 C1047.68,326.511998 1047.416,326.32 1047.176,326.32 C1046.936,326.32 1046.816,326.224001 1046.816,326.032 C1047.008,325.839999 1047.248,325.744 1047.536,325.744 C1047.824,326.032001 1047.968,326.415998 1047.968,326.896 L1047.968,326.896 Z M1047.68,327.616 L1046.672,328.768 L1046.528,328.48 L1047.536,327.472 L1047.68,327.616 Z M1076.192,356.272 C1076,356.944003 1075.568,357.28 1074.896,357.28 L1074.464,357.28 C1074.752,356.703997 1075.328,356.368 1076.192,356.272 L1076.192,356.272 Z M1049.264,331.072 C1048.4,331.072 1048.064,330.976001 1048.256,330.784 C1048.352,330.688 1048.424,330.544001 1048.472,330.352 C1048.52,330.159999 1048.592,330.064 1048.688,330.064 C1048.688,330.544002 1048.88,330.879999 1049.264,331.072 L1049.264,331.072 Z M1060.352,345.04 C1060.16,344.944 1059.92,344.944 1059.632,345.04 L1060.208,344.464 C1060.304,344.56 1060.352,344.751999 1060.352,345.04 L1060.352,345.04 Z M1073.6,357.568 C1073.504,357.664 1072.25601,358.335994 1069.856,359.584 L1070.288,359.008 C1070.288,358.719999 1069.952,358.576 1069.28,358.576 C1069.76,358.287999 1070.52799,357.952002 1071.584,357.568 C1071.392,357.664 1070.96,357.951998 1070.288,358.432 C1070.384,358.624001 1070.576,358.72 1070.864,358.72 C1070.96,358.72 1071.63199,358.336004 1072.88,357.568 L1073.6,357.568 Z M1058.912,346.192 C1059.104,346.192 1058.768,346.287999 1057.904,346.48 L1057.904,345.76 C1058.096,345.952001 1058.432,345.808002 1058.912,345.328 L1058.912,346.192 Z M1057.184,346.48 C1056.608,346.672001 1055.888,347.103997 1055.024,347.776 C1054.64,347.776 1054.448,347.584002 1054.448,347.2 C1055.12,347.104 1056.03199,346.864002 1057.184,346.48 L1057.184,346.48 Z M1069.136,359.008 C1069.04,359.104 1068.92,359.2 1068.776,359.296 C1068.632,359.392 1068.512,359.44 1068.416,359.44 C1068.704,359.728001 1068.848,359.872 1068.848,359.872 C1068.656,359.872 1068.416,360.063998 1068.128,360.448 C1068.128,360.063998 1068.032,359.776001 1067.84,359.584 C1067.744,359.68 1067.408,359.728 1066.832,359.728 C1066.928,359.728 1067.69599,359.488002 1069.136,359.008 L1069.136,359.008 Z M1053.584,347.632 C1053.488,347.920001 1053.32,348.064 1053.08,348.064 C1052.84,348.064 1052.24,348.279998 1051.28,348.712 C1050.32,349.144002 1049.744,349.36 1049.552,349.36 L1048.832,349.36 C1049.88801,348.975998 1051.47199,348.400004 1053.584,347.632 L1053.584,347.632 Z M1064.096,361.312 L1063.088,361.456 L1063.088,361.168 L1064.096,360.88 L1064.096,361.312 Z M1062.656,361.6 L1061.936,361.888 L1061.936,361.6 L1062.512,361.312 L1062.656,361.6 Z M1048.4,349.36 C1046.67199,349.936003 1045.18401,350.463998 1043.936,350.944 C1043.84,350.944 1043.648,350.848001 1043.36,350.656 C1043.552,350.463999 1044.032,350.368 1044.8,350.368 C1045.568,350.368 1046.76799,350.032003 1048.4,349.36 L1048.4,349.36 Z M1048.976,352.384 L1047.248,352.816 L1047.248,352.528 L1048.976,352.096 L1048.976,352.384 Z M1046.672,353.104 L1046.096,353.104 L1046.096,352.816 L1046.672,352.816 L1046.672,353.104 Z M1058.336,363.04 C1056.31999,364.096005 1055.36,364.624 1055.456,364.624 C1054.88,364.624 1054.01601,364.767999 1052.864,365.056 C1052.96,364.671998 1052.96,364.48 1052.864,364.48 C1052.768,364.576 1052.864,364.624 1053.152,364.624 C1053.344,364.624 1054.06399,364.408002 1055.312,363.976 C1056.56001,363.543998 1057.568,363.232001 1058.336,363.04 L1058.336,363.04 Z M1050.848,359.296 L1050.128,359.296 L1050.128,358.864 L1050.848,358.864 L1050.848,359.296 Z M1042.208,351.376 L1041.2,351.376 L1041.2,350.944 L1042.208,350.944 L1042.208,351.376 Z M1048.112,359.872 L1047.248,359.872 L1047.248,359.584 L1048.112,359.584 L1048.112,359.872 Z M1045.52,360.304 L1044.512,360.304 L1044.512,360.016 L1045.52,360.016 L1045.52,360.304 Z M1051.712,364.912 C1050.55999,365.104001 1049.07201,365.439998 1047.248,365.92 C1047.632,365.535998 1048.16,365.008003 1048.832,364.336 C1048.928,364.432 1048.976,364.599999 1048.976,364.84 C1048.976,365.080001 1049.072,365.2 1049.264,365.2 C1049.648,365.2 1050.46399,365.104001 1051.712,364.912 L1051.712,364.912 Z M1039.904,355.408 L1038.896,355.408 L1038.896,354.976 L1039.904,354.976 L1039.904,355.408 Z M1042.928,358.144 C1042.544,357.951999 1041.872,358.047998 1040.912,358.432 C1040.912,358.336 1040.864,358.144001 1040.768,357.856 C1040.672,357.567999 1040.624,357.424 1040.624,357.424 C1040.72,357.424 1040.936,357.376 1041.272,357.28 C1041.608,357.184 1041.872,357.136 1042.064,357.136 C1041.872,357.232 1041.536,357.423999 1041.056,357.712 C1041.632,358.000001 1042.256,358.144 1042.928,358.144 L1042.928,358.144 Z M1040.768,358.288 L1040.48,358.576 L1040.192,358.144 L1040.336,358 L1040.768,358.288 Z M1042.784,361.312 L1042.496,361.456 L1041.92,360.88 L1042.208,360.736 L1042.784,361.312 Z M1044.512,363.904 L1044.368,364.192 L1043.648,363.904 L1043.648,363.616 L1044.512,363.904 Z M1046.24,366.208 L1045.232,366.208 L1045.232,365.776 L1046.24,365.776 L1046.24,366.208 Z M1038.176,359.008 L1037.456,359.008 L1037.456,358.576 L1038.176,358.576 L1038.176,359.008 Z M1043.072,364.192 L1042.496,364.192 L1042.496,363.76 L1043.072,363.76 L1043.072,364.192 Z M1040.192,361.456 L1039.04,361.456 L1039.04,361.168 L1040.192,361.168 L1040.192,361.456 Z M1043.648,366.352 L1042.784,366.64 L1042.784,366.352 L1043.504,366.064 L1043.648,366.352 Z M1042.496,364.192 C1041.24799,364.480001 1039.37601,364.863998 1036.88,365.344 C1036.208,365.44 1034.91201,365.488 1032.992,365.488 C1030.97599,365.488 1029.15201,365.392001 1027.52,365.2 C1027.712,365.007999 1027.808,364.720002 1027.808,364.336 C1028.192,364.336 1028.48,364.575998 1028.672,365.056 C1028.96,365.056 1028.96,364.912001 1028.672,364.624 C1028.864,364.624 1029.056,364.672 1029.248,364.768 L1029.968,364.768 C1030.16,364.768 1030.232,364.696001 1030.184,364.552 C1030.136,364.407999 1030.208,364.336 1030.4,364.336 C1030.4,364.336 1030.90399,364.407999 1031.912,364.552 C1032.92001,364.696001 1033.664,364.768 1034.144,364.768 C1033.76,364.672 1034.09599,364.624 1035.152,364.624 C1035.344,364.624 1035.44,364.695999 1035.44,364.84 C1035.44,364.984001 1035.536,365.056 1035.728,365.056 C1035.824,365.056 1036.04,364.960001 1036.376,364.768 C1036.712,364.575999 1036.976,364.48 1037.168,364.48 C1040.04801,364.48 1041.488,364.384001 1041.488,364.192 L1042.496,364.192 Z M1091.456,300.256 L1089.44,300.256 C1089.44,300.352 1089.728,300.4 1090.304,300.4 C1090.496,300.4 1090.496,300.471999 1090.304,300.616 C1090.112,300.760001 1090.112,300.832 1090.304,300.832 C1090.688,300.832 1091.072,300.640002 1091.456,300.256 L1091.456,300.256 Z M1057.904,308.752 L1057.472,308.752 L1057.328,309.904 L1057.616,309.904 L1057.904,308.752 Z M1051.856,308.32 L1051.856,307.168 L1051.424,307.168 L1051.424,308.32 L1051.856,308.32 Z M1051.568,308.32 L1051.28,308.32 L1050.992,309.04 L1051.28,309.184 L1051.568,308.32 Z M1051.568,309.76 L1051.28,309.616 L1050.992,310.192 L1051.28,310.336 L1051.568,309.76 Z M1069.424,341.296 L1069.28,341.008 L1068.704,341.296 L1068.704,341.584 L1069.424,341.296 Z M1072.88,348.064 C1072.592,348.256001 1072.088,348.543998 1071.368,348.928 C1070.648,349.312002 1070.144,349.599999 1069.856,349.792 C1070.144,349.792 1070.384,349.887999 1070.576,350.08 C1071.344,349.887999 1072.112,349.216006 1072.88,348.064 L1072.88,348.064 Z M1073.024,355.552 L1072.736,355.264 L1072.016,355.696 L1072.16,356.128 L1073.024,355.552 Z M1071.872,356.272 L1071.728,355.84 L1070.72,356.416 L1070.72,356.704 L1071.872,356.272 Z M1064.384,351.952 L1063.52,351.664 L1063.52,351.952 L1064.24,352.24 L1064.384,351.952 Z M1069.712,357.424 L1069.712,356.992 L1068.704,356.992 L1068.704,357.424 L1069.712,357.424 Z M1058.336,348.496 L1058.192,348.208 L1057.616,348.496 L1057.616,348.784 L1058.336,348.496 Z M1055.744,349.792 L1055.744,349.36 L1055.168,349.36 L1055.168,349.792 L1055.744,349.792 Z M1051.28,353.536 L1051.136,353.248 L1050.416,353.392 L1050.416,353.824 L1051.28,353.536 Z M1050.128,353.968 L1050.128,353.68 L1049.264,353.68 L1049.264,353.968 L1050.128,353.968 Z M1046.96,354.256 C1045.90399,354.256 1045.232,354.304 1044.944,354.4 C1044.944,354.880002 1045.184,355.12 1045.664,355.12 C1045.952,355.12 1046.384,354.832003 1046.96,354.256 L1046.96,354.256 Z M1044.944,355.12 L1044.944,354.832 L1043.648,354.832 L1043.648,355.12 L1044.944,355.12 Z" id="15"></path>
        </g>
    </g>
</svg>