<?xml version="1.0" encoding="UTF-8" standalone="no"?>
<svg width="162px" height="111px" viewBox="0 0 162 111" version="1.1" xmlns="http://www.w3.org/2000/svg" xmlns:xlink="http://www.w3.org/1999/xlink">
    <!-- Generator: Sketch 3.6.1 (26313) - http://www.bohemiancoding.com/sketch -->
    <title>16</title>
    <desc>Created with Sketch.</desc>
    <defs></defs>
    <g id="Page-1" stroke="none" stroke-width="1" fill="none" fill-rule="evenodd">
        <g id="Desktop2" transform="translate(-972.000000, -87.000000)" fill="#D71955">
            <path d="M1022.304,87.96 C1022.304,88.5360029 1022.184,88.8959993 1021.944,89.04 C1021.704,89.1840007 1021.392,89.3999986 1021.008,89.688 C1019.66399,89.880001 1018.27201,90.7439923 1016.832,92.28 C1016.256,92.6640019 1015.34401,93.3359952 1014.096,94.296 C1010.63998,98.0400187 1006.22403,103.175967 1000.848,109.704 C1000.752,109.319998 1000.704,109.08 1000.704,108.984 C1004.06402,104.855979 1007.37598,100.728021 1010.64,96.6 C1014.67202,91.8959765 1018.07999,88.8240072 1020.864,87.384 L1021.872,87.384 C1021.872,87.7680019 1022.016,87.96 1022.304,87.96 L1022.304,87.96 Z M1017.12,142.248 L1016.832,143.256 L1016.4,143.112 L1016.832,142.248 L1017.12,142.248 Z M1016.832,143.544 L1016.544,144.552 L1016.256,144.408 L1016.544,143.544 L1016.832,143.544 Z M1017.12,150.312 L1016.688,150.312 L1016.688,149.592 L1017.12,149.592 L1017.12,150.312 Z M1029.504,160.68 C1029.504,160.968001 1029.24,161.399997 1028.712,161.976 C1028.184,162.552003 1027.776,162.84 1027.488,162.84 L1025.328,162.84 L1024.752,162.12 C1024.848,161.735998 1025.04,161.208003 1025.328,160.536 C1026.096,159.767996 1026.864,159.384 1027.632,159.384 C1028.88001,159.384 1029.504,159.815996 1029.504,160.68 L1029.504,160.68 Z M1037.712,181.272 C1017.2639,186.264025 1006.656,188.76 1005.888,188.76 C1005.696,188.76 1005.432,188.712 1005.096,188.616 C1004.76,188.52 1004.496,188.472 1004.304,188.472 C1004.016,188.472 1002.48001,188.927995 999.696,189.84 C996.911986,190.752005 995.424001,191.208 995.232,191.208 C995.039999,191.208 994.992,191.112001 995.088,190.92 C995.184,190.727999 995.088001,190.632 994.8,190.632 C991.343983,190.632 988.560011,191.495991 986.448,193.224 C985.679996,193.224 984.528008,193.607996 982.992,194.376 L983.136,194.52 C983.424001,194.52 983.903997,194.376001 984.576,194.088 L985.584,194.088 C985.968002,194.472002 986.16,194.903998 986.16,195.384 C986.16,195.864002 985.728004,196.343998 984.864,196.824 C983.999996,197.304002 983.280003,197.544 982.704,197.544 L980.544,197.544 L980.544,196.536 C981.600005,196.151998 982.128,195.576004 982.128,194.808 C982.032,194.712 981.744002,194.664 981.264,194.664 C980.975999,194.664 980.832,194.712 980.832,194.808 C980.832,195.000001 980.736001,195.096 980.544,195.096 C980.351999,195.096 980.28,195.048 980.328,194.952 C980.376,194.856 980.256001,194.808 979.968,194.808 C979.775999,194.808 979.68,194.903999 979.68,195.096 C979.68,195.288001 979.584001,195.384 979.392,195.384 C979.488,195.384 979.320002,195.288001 978.888,195.096 C978.455998,194.903999 977.520007,194.808 976.08,194.808 C976.08,194.423998 976.175999,194.136001 976.368,193.944 C975.887998,193.751999 975.168005,193.320003 974.208,192.648 C974.208,191.975997 974.471997,191.232004 975,190.416 C975.528003,189.599996 975.792,189.192 975.792,189.192 C975.792,188.519997 975.696001,187.800004 975.504,187.032 C975.311999,186.551998 974.784004,186.216001 973.92,186.024 C972.671994,184.00799 972.048,183.095999 972.048,183.288 C972.048,181.847993 976.463956,179.11202 985.296,175.08 L985.296,174.216 C984.815998,174.408001 984.480001,174.504 984.288,174.504 L983.712,173.784 C985.536009,172.055991 987.887986,170.712005 990.768,169.752 C993.456013,169.079997 996.191986,168.408003 998.976,167.736 C996.767989,168.504004 993.64802,169.991989 989.616,172.2 C989.808001,172.488001 990.191997,172.632 990.768,172.632 C990.960001,172.632 992.399987,172.104005 995.088,171.048 C997.776013,169.991995 999.215999,169.464 999.408,169.464 C999.696001,169.464 999.792,169.559999 999.696,169.752 C999.6,169.944001 999.647999,170.04 999.84,170.04 C1000.032,170.04 1000.416,169.944001 1000.992,169.752 C1001.568,169.559999 1002.096,169.464 1002.576,169.464 C1002.672,167.255989 1002.816,163.656025 1003.008,158.664 L1006.464,132.456 C1006.272,131.975998 1006.08,131.592001 1005.888,131.304 C1004.928,132.552006 1004.496,133.367998 1004.592,133.752 L1004.016,133.176 C1000.94398,135.480012 998.160012,138.455982 995.664,142.104 C993.551989,145.176015 991.440011,148.295984 989.328,151.464 C989.135999,151.752001 989.04,152.183997 989.04,152.76 C988.655998,152.952001 988.128003,153.383997 987.456,154.056 C986.591996,155.112005 985.296009,156.791988 983.568,159.096 C983.568,158.519997 983.472001,158.184 983.28,158.088 C983.184,158.184 983.088,158.303999 982.992,158.448 C982.896,158.592001 982.8,158.712 982.704,158.808 C982.704,159.000001 983.375993,157.704014 984.72,154.92 C984.912001,154.439998 984.96,154.008002 984.864,153.624 C985.632004,153.528 986.399996,152.232012 987.168,149.736 C987.360001,149.64 987.216002,149.592 986.736,149.592 C985.871996,149.592 984.816006,150.455991 983.568,152.184 C983.183998,152.088 982.800002,151.656004 982.416,150.888 C982.223999,150.888 982.08,150.936 981.984,151.032 C981.888,151.128 980.592012,152.855983 978.096,156.216 C978.192,155.639997 978.575997,154.872005 979.248,153.912 C979.248,153.623999 979.2,153.432 979.104,153.336 C976.607988,154.584006 975.455999,155.208 975.648,155.208 L974.208,155.208 C974.208,155.112 974.16,154.920001 974.064,154.632 C973.968,154.343999 973.92,154.056001 973.92,153.768 C973.92,153.383998 973.968,153.096001 974.064,152.904 C975.216006,151.559993 975.792,150.792001 975.792,150.6 C975.792,149.927997 975.408004,148.824008 974.64,147.288 C974.255998,147.576001 974.016,147.72 973.92,147.72 C974.304002,147.335998 974.400001,147.048001 974.208,146.856 C974.496001,146.567999 974.879998,146.424 975.36,146.424 C975.552001,146.328 975.6,145.944003 975.504,145.272 C975.888002,143.927993 976.559995,142.056012 977.52,139.656 C977.904002,139.271998 978.527996,138.696004 979.392,137.928 C979.488,137.639999 979.631999,137.208003 979.824,136.632 C985.87203,128.183958 991.199977,121.368026 995.808,116.184 C1000.51202,111.287976 1007.95195,103.416054 1018.128,92.568 C1018.512,92.568 1019.04,92.4240014 1019.712,92.136 C1019.712,92.328001 1019.52,92.9039952 1019.136,93.864 C1018.848,94.5360034 1018.944,95.1119976 1019.424,95.592 C1020.48001,94.9199966 1022.06399,93.9600062 1024.176,92.712 C1024.272,92.904001 1024.176,93.1439986 1023.888,93.432 C1023.984,93.5280005 1024.176,93.9599962 1024.464,94.728 C1024.656,95.1120019 1024.896,95.304 1025.184,95.304 C1025.856,95.304 1026.192,94.9680034 1026.192,94.296 C1026.192,94.0079986 1026.096,93.5520031 1025.904,92.928 C1025.712,92.3039969 1025.616,91.992 1025.616,91.992 C1027.82401,90.8399942 1028.928,90.264 1028.928,90.264 C1029.216,90.264 1029.504,90.3119995 1029.792,90.408 C1030.08,90.5040005 1030.224,90.552 1030.224,90.552 C1030.512,91.6080053 1030.416,92.5679957 1029.936,93.432 C1030.128,94.0080029 1030.224,94.3439995 1030.224,94.44 C1028.87999,95.4000048 1028.208,96.5039938 1028.208,97.752 C1028.208,98.5200038 1028.448,99.1919971 1028.928,99.768 C1028.544,100.152002 1028.112,100.775996 1027.632,101.64 L1027.632,102.36 C1027.536,102.456 1027.68,102.504 1028.064,102.504 C1028.256,102.504 1028.688,102.264002 1029.36,101.784 C1030.032,101.303998 1030.512,101.016 1030.8,100.92 C1030.992,101.112001 1031.088,101.351999 1031.088,101.64 C1031.088,101.832001 1030.46401,102.695992 1029.216,104.232 C1027.67999,106.056009 1026.72,107.447995 1026.336,108.408 C1025.952,109.368005 1025.472,110.903989 1024.896,113.016 C1024.704,113.880004 1024.464,115.175991 1024.176,116.904 C1022.73599,123.816035 1020.38402,134.27993 1017.12,148.296 C1017.312,146.663992 1017.552,144.264016 1017.84,141.096 C1017.744,141 1017.696,140.880001 1017.696,140.736 C1017.696,140.591999 1017.648,140.472 1017.552,140.376 C1017.456,140.664001 1017.216,141.095997 1016.832,141.672 L1019.424,127.848 C1019.136,127.559999 1018.944,127.416 1018.848,127.416 C1018.752,127.416 1018.656,127.559999 1018.56,127.848 C1017.984,132.456023 1017.408,135.959988 1016.832,138.36 C1016.736,138.936003 1016.496,139.751995 1016.112,140.808 C1016.016,140.904 1015.944,141.023999 1015.896,141.168 C1015.848,141.312001 1015.68,141.384 1015.392,141.384 C1015.104,141.384 1014.96,141.288001 1014.96,141.096 L1014.96,140.808 C1014.288,142.440008 1013.808,144.599987 1013.52,147.288 C1013.04,151.416021 1012.752,153.671998 1012.656,154.056 C1012.56,155.112005 1012.32,156.64799 1011.936,158.664 C1011.744,158.952001 1011.456,159.383997 1011.072,159.96 C1010.976,159.671999 1010.736,159.240003 1010.352,158.664 C1010.256,158.76 1010.208,159.047998 1010.208,159.528 C1010.208,159.816001 1010.544,160.247997 1011.216,160.824 C1011.312,161.208002 1011.312,161.831996 1011.216,162.696 L1012.368,162.84 L1012.368,162.12 C1012.368,162.12 1012.464,162.263999 1012.656,162.552 C1012.944,162.167998 1014.28799,161.784002 1016.688,161.4 C1017.168,161.4 1017.84,161.352 1018.704,161.256 C1019.664,160.679997 1020.95999,160.056003 1022.592,159.384 C1022.592,160.344005 1022.784,161.111997 1023.168,161.688 C1022.784,161.880001 1022.256,162.407996 1021.584,163.272 C1025.52002,167.20802 1027.872,169.176 1028.64,169.176 C1028.832,169.176 1029.024,169.080001 1029.216,168.888 C1029.216,169.176001 1029.12,169.415999 1028.928,169.608 C1029.6,170.184003 1030.75199,170.951995 1032.384,171.912 C1032.48,172.200001 1032.24,172.679997 1031.664,173.352 C1032.048,173.736002 1032.432,173.928 1032.816,173.928 L1033.536,173.928 C1033.824,173.832 1033.968,173.784 1033.968,173.784 C1030.51198,175.416008 1028.784,176.423998 1028.784,176.808 C1028.784,177.000001 1029.55199,178.151989 1031.088,180.264 C1030.128,180.552001 1028.64001,181.079996 1026.624,181.848 C1026.528,181.848 1026.576,181.943999 1026.768,182.136 C1030.80002,181.271996 1033.296,180.84 1034.256,180.84 C1034.448,180.84 1035,180.911999 1035.912,181.056 C1036.824,181.200001 1037.424,181.272 1037.712,181.272 L1037.712,181.272 Z M988.896,154.2 L988.608,154.488 L988.176,154.056 L988.464,153.768 L988.896,154.2 Z M1001.712,168.888 L999.984,169.608 L999.984,169.176 L1001.568,168.6 L1001.712,168.888 Z M981.984,158.664 L981.696,159.384 L981.264,159.24 L981.552,158.52 L981.984,158.664 Z M990.192,192.648 L989.472,193.368 L989.184,193.08 L989.904,192.36 L990.192,192.648 Z M1022.16,122.808 L1022.16,121.8 L1021.728,121.8 L1021.728,122.808 L1022.16,122.808 Z M1021.872,124.104 L1021.872,123.384 L1021.44,123.384 L1021.44,124.104 L1021.872,124.104 Z M1021.44,127.56 L1021.44,126.552 L1021.008,126.552 L1021.008,127.56 L1021.44,127.56 Z M1020.576,160.824 L1020.288,160.68 L1019.856,161.4 L1020.288,161.544 L1020.576,160.824 Z M1006.32,150.744 L1005.888,150.6 L1005.6,151.32 L1006.032,151.464 L1006.32,150.744 Z M1021.872,162.12 C1021.68,162.12 1021.44,162.072 1021.152,161.976 C1020.864,161.88 1020.624,161.832 1020.432,161.832 C1019.37599,161.832 1018.464,162.455994 1017.696,163.704 C1017.408,163.319998 1017.168,163.128 1016.976,163.128 C1017.264,163.128 1016.25601,163.511996 1013.952,164.28 C1014.816,164.760002 1015.344,165 1015.536,165 C1015.728,165 1016.136,164.808002 1016.76,164.424 C1017.384,164.039998 1017.792,163.848 1017.984,163.848 C1018.272,163.848 1018.704,164.231996 1019.28,165 C1020.62401,164.231996 1021.296,163.848 1021.296,163.848 C1021.296,163.079996 1021.488,162.504002 1021.872,162.12 L1021.872,162.12 Z M1008.336,187.752 L1008.336,187.32 L1007.616,187.32 L1007.616,187.752 L1008.336,187.752 Z M1133.328,95.88 C1133.328,96.6480038 1133.04,97.7519928 1132.464,99.192 C1131.792,100.920009 1131.072,101.784 1130.304,101.784 C1130.112,101.784 1129.56,101.544002 1128.648,101.064 C1127.736,100.583998 1127.136,100.344 1126.848,100.344 C1126.56,99.0959938 1126.176,97.8480062 1125.696,96.6 C1124.44799,97.8480062 1123.776,98.472 1123.68,98.472 C1122.62399,98.472 1122.096,97.6080086 1122.096,95.88 C1122.096,94.9199952 1122.528,94.44 1123.392,94.44 C1124.256,94.44 1125.024,94.9679947 1125.696,96.024 C1126.176,95.1599957 1126.656,94.2960043 1127.136,93.432 C1128,91.9919928 1128.72,91.272 1129.296,91.272 C1129.872,91.272 1131.11999,92.1839909 1133.04,94.008 C1133.232,95.1600058 1133.328,95.7839995 1133.328,95.88 L1133.328,95.88 Z M1129.008,102.504 C1129.104,102.792001 1129.056,103.127998 1128.864,103.512 C1128.672,103.896002 1128.336,104.088 1127.856,104.088 C1127.568,104.088 1127.328,104.04 1127.136,103.944 C1126.944,103.848 1126.824,103.8 1126.776,103.8 C1126.728,103.8 1126.656,103.752 1126.56,103.656 C1126.464,103.56 1126.416,103.368001 1126.416,103.08 C1126.416,102.791999 1126.56,102.504001 1126.848,102.216 L1127.28,101.784 L1128.576,101.784 C1128.576,102.168002 1128.624,102.408 1128.72,102.504 L1129.008,102.504 Z M1125.84,105.816 C1125.744,105.72 1125.552,105.456002 1125.264,105.024 C1124.976,104.591998 1124.688,104.376 1124.4,104.376 C1124.208,104.376 1124.112,104.567998 1124.112,104.952 C1123.632,104.471998 1123.056,103.704005 1122.384,102.648 L1122.384,99.336 C1123.056,100.008003 1124.06399,101.207991 1125.408,102.936 C1125.312,103.608003 1125.456,104.567994 1125.84,105.816 L1125.84,105.816 Z M1120.944,109.128 C1119.79199,110.472007 1118.976,111.144 1118.496,111.144 C1118.208,111.144 1117.872,111.000001 1117.488,110.712 C1117.104,110.423999 1116.816,110.28 1116.624,110.28 C1115.37599,110.28 1114.848,110.375999 1115.04,110.568 L1102.08,120.792 C1101.792,120.792 1101.384,120.887999 1100.856,121.08 C1100.328,121.272001 1099.968,121.368 1099.776,121.368 C1099.968,120.407995 1100.63999,119.448005 1101.792,118.488 C1112.16005,109.463955 1117.632,104.952 1118.208,104.952 C1118.4,104.952 1118.52,105 1118.568,105.096 C1118.616,105.192 1118.736,105.24 1118.928,105.24 C1118.736,105.24 1119.40799,104.952003 1120.944,104.376 L1120.944,109.128 Z M1119.36,89.976 C1118.784,90.8400043 1117.72801,91.7519952 1116.192,92.712 C1114.27199,93.8640058 1113.12,94.6799976 1112.736,95.16 C1113.12,95.8320034 1113.648,96.168 1114.32,96.168 C1114.128,96.5520019 1113.816,97.1039964 1113.384,97.824 C1112.952,98.5440036 1112.736,99.0479986 1112.736,99.336 C1112.736,99.6240014 1112.784,99.863999 1112.88,100.056 C1111.43999,101.400007 1109.47201,103.175989 1106.976,105.384 C1105.82399,105.864002 1104.19201,106.631995 1102.08,107.688 C1100.73599,108.552004 1098.24002,110.519985 1094.592,113.592 C1093.92,114.360004 1092.91201,115.463993 1091.568,116.904 C1085.71197,123.048031 1081.15202,130.007961 1077.888,137.784 L1077.888,138.072 C1078.176,137.976 1078.704,137.640003 1079.472,137.064 C1080.24,136.487997 1080.72,136.2 1080.912,136.2 C1081.104,136.2 1081.224,136.248 1081.272,136.344 C1081.32,136.44 1081.488,136.488 1081.776,136.488 C1082.83201,136.488 1083.36,135.384011 1083.36,133.176 C1084.32,133.368001 1085.71199,133.703998 1087.536,134.184 C1088.304,134.568002 1088.544,134.76 1088.256,134.76 C1088.544,134.76 1088.64,134.688001 1088.544,134.544 C1088.448,134.399999 1088.496,134.328 1088.688,134.328 C1088.976,134.328 1089.12,134.376 1089.12,134.472 C1089.12,134.568 1089.264,134.616 1089.552,134.616 C1090.128,134.616 1090.608,134.232004 1090.992,133.464 C1092.04801,134.040003 1093.72799,134.999993 1096.032,136.344 C1096.704,136.632001 1097.52,137.303995 1098.48,138.36 C1098.672,138.456 1098.864,138.743998 1099.056,139.224 C1099.248,139.704002 1099.44,140.039999 1099.632,140.232 C1099.824,140.232 1100.088,140.088001 1100.424,139.8 C1100.76,139.511999 1101.024,139.368 1101.216,139.368 C1101.696,139.368 1102.58399,139.967994 1103.88,141.168 C1105.17601,142.368006 1105.872,143.207998 1105.968,143.688 C1106.064,144.168002 1106.256,144.743997 1106.544,145.416 C1107.69601,146.856007 1108.608,149.207984 1109.28,152.472 C1109.472,152.856002 1109.712,153.455996 1110,154.272 C1110.288,155.088004 1110.48,156.695988 1110.576,159.096 C1111.056,159.768003 1111.296,160.056 1111.296,159.96 C1111.296,158.807994 1110.62401,163.031952 1109.28,172.632 C1108.896,175.032012 1107.79201,177.911983 1105.968,181.272 C1104.71999,183.480011 1103.52001,185.735988 1102.368,188.04 C1098.81598,191.496017 1096.12801,193.224 1094.304,193.224 C1094.112,193.224 1093.992,193.176 1093.944,193.08 C1093.896,192.984 1093.776,192.936 1093.584,192.936 C1093.392,192.936 1092.936,193.151998 1092.216,193.584 C1091.496,194.016002 1090.944,194.327999 1090.56,194.52 C1087.39198,195.672006 1085.328,196.248 1084.368,196.248 C1083.792,196.248 1083.264,196.104001 1082.784,195.816 C1083.168,195.047996 1084.29599,194.280004 1086.168,193.512 C1088.04001,192.743996 1089.36,192.024003 1090.128,191.352 L1089.84,191.208 C1088.68799,191.592002 1086.91201,192.071997 1084.512,192.648 C1083.84,192.648 1082.78401,192.743999 1081.344,192.936 L1078.176,192.648 C1078.56,192.263998 1079.136,191.880002 1079.904,191.496 C1077.79199,190.631996 1076.448,190.2 1075.872,190.2 C1075.68,190.2 1075.584,190.248 1075.584,190.344 C1075.584,190.44 1075.488,190.488 1075.296,190.488 C1075.104,190.488 1074.696,190.320002 1074.072,189.984 C1073.448,189.647998 1073.04,189.48 1072.848,189.48 C1072.656,189.48 1072.584,189.528 1072.632,189.624 C1072.68,189.72 1072.56,189.768 1072.272,189.768 C1072.176,189.768 1071.50401,189.432003 1070.256,188.76 C1069.776,188.76 1069.152,188.712 1068.384,188.616 C1067.424,188.135998 1066.03201,187.272006 1064.208,186.024 C1062.38399,184.775994 1060.992,183.960002 1060.032,183.576 C1059.648,184.056002 1059.168,184.727996 1058.592,185.592 C1058.4,186.360004 1058.112,187.415993 1057.728,188.76 C1057.536,189.048001 1057.296,189.527997 1057.008,190.2 L1056.576,190.2 C1056.192,190.104 1055.664,189.864002 1054.992,189.48 C1054.32,189.768001 1053.744,190.631993 1053.264,192.072 C1052.976,192.072 1052.64,192.551995 1052.256,193.512 C1052.064,193.319999 1051.776,193.224 1051.392,193.224 C1053.88801,188.231975 1055.136,185.304004 1055.136,184.44 C1055.136,184.247999 1054.992,183.864003 1054.704,183.288 C1054.32,183.672002 1053.744,184.199997 1052.976,184.872 C1052.784,185.352002 1052.496,185.927997 1052.112,186.6 C1051.632,186.6 1051.296,186.935997 1051.104,187.608 C1050.72,188.664005 1050.48,189.287999 1050.384,189.48 C1049.616,188.999998 1049.424,187.080017 1049.808,183.72 C1049.424,183.239998 1049.184,182.520005 1049.088,181.56 C1049.28,181.367999 1049.376,181.080002 1049.376,180.696 C1049.28,180.696 1049.208,180.600001 1049.16,180.408 C1049.112,180.215999 1049.04,180.072 1048.944,179.976 C1047.21599,180.744004 1046.64,182.08799 1047.216,184.008 C1045.87199,183.719999 1044.67201,183.576 1043.616,183.576 C1043.232,183.576 1043.04,183.671999 1043.04,183.864 C1043.424,181.079986 1045.00799,177.384023 1047.792,172.776 C1050.28801,168.83998 1052.78399,164.90402 1055.28,160.968 C1055.664,160.391997 1056,159.000011 1056.288,156.792 C1056.384,155.927996 1056.816,153.624019 1057.584,149.88 C1058.256,146.711984 1058.592,144.360008 1058.592,142.824 C1060.51201,137.831975 1062.38399,132.840025 1064.208,127.848 C1066.80001,121.607969 1069.48799,116.616019 1072.272,112.872 C1073.42401,110.95199 1075.53598,108.072019 1078.608,104.232 C1079.66401,103.175995 1081.39199,101.736009 1083.792,99.912 C1084.752,99.2399966 1086.43199,98.2800062 1088.832,97.032 C1089.12,96.7439986 1089.648,96.2640034 1090.416,95.592 C1091.76001,94.8239962 1094.01598,93.6240082 1097.184,91.992 C1102.27203,89.3039866 1105.43999,87.96 1106.688,87.96 C1108.32001,88.2480014 1109.232,88.5839981 1109.424,88.968 C1106.06398,90.3120067 1104.576,90.984 1104.96,90.984 C1104.768,90.984 1104.696,90.9360005 1104.744,90.84 C1104.792,90.7439995 1104.72,90.696 1104.528,90.696 C1104.048,90.696 1102.99201,91.1279957 1101.36,91.992 L1101.36,92.136 C1103.47201,93.2880058 1104.672,93.864 1104.96,93.864 C1105.152,93.864 1105.464,93.6960017 1105.896,93.36 C1106.328,93.0239983 1106.688,92.856 1106.976,92.856 L1108.272,92.856 C1108.272,93.4320029 1108.464,93.9599976 1108.848,94.44 C1109.04,94.44 1109.328,94.2960014 1109.712,94.008 C1110.096,93.7199986 1110.432,93.576 1110.72,93.576 C1110.912,93.576 1111.008,93.671999 1111.008,93.864 C1111.008,94.056001 1111.056,94.152 1111.152,94.152 C1111.632,93.7679981 1111.584,93.576 1111.008,93.576 C1111.968,93.1919981 1114.75198,91.9920101 1119.36,89.976 L1119.36,89.976 Z M1086.528,155.64 C1086.528,154.679995 1086.432,153.864003 1086.24,153.192 C1085.952,153.192 1085.496,153.407998 1084.872,153.84 C1084.248,154.272002 1083.84,154.488 1083.648,154.488 C1083.36,154.488 1083.192,154.44 1083.144,154.344 C1083.096,154.248 1082.976,154.2 1082.784,154.2 C1082.496,154.2 1082.016,154.487997 1081.344,155.064 C1080.384,155.736003 1079.76,156.167999 1079.472,156.36 C1079.28,156.167999 1079.232,156.024 1079.328,155.928 C1080.192,155.063996 1081.43999,153.720009 1083.072,151.896 C1081.05599,152.280002 1078.94401,153.767987 1076.736,156.36 C1076.448,156.36 1076.064,156.455999 1075.584,156.648 C1075.008,157.320003 1073.76001,158.951987 1071.84,161.544 C1069.63199,164.616015 1068.528,166.487997 1068.528,167.16 C1068.528,168.216005 1068.912,169.415993 1069.68,170.76 C1070.73601,172.488009 1071.98399,173.352 1073.424,173.352 L1077.456,173.352 C1078.416,173.352 1080.14399,171.624017 1082.64,168.168 C1082.736,167.975999 1082.784,167.688002 1082.784,167.304 C1083.36,166.823998 1084.22399,165.57601 1085.376,163.56 C1085.76,162.695996 1086.048,161.064012 1086.24,158.664 C1086.24,158.375999 1086.288,157.872004 1086.384,157.152 C1086.48,156.431996 1086.528,155.928001 1086.528,155.64 L1086.528,155.64 Z M1084.08,191.208 L1084.08,190.632 L1083.072,190.632 L1083.072,191.208 L1084.08,191.208 Z" id="16"></path>
        </g>
    </g>
</svg>