<svg width="90px" height="86px" viewBox="0 0 90 86" version="1.1" xmlns="http://www.w3.org/2000/svg" xmlns:xlink="http://www.w3.org/1999/xlink">
    <g id="Page-1" stroke="none" stroke-width="1" fill="none" fill-rule="evenodd">
        <g id="assess" class='slide-svg' fill="#000000">
            <path d="M48.375,33.991 L33.13,33.991 L33.13,23.699 C30.691,21.398 29.02,17.244 29.02,13.384 C29.02,6.469 34.646,0.843 41.561,0.843 C44.791,0.843 47.859,2.073 50.203,4.305 C50.922,4.914 51.531,5.64 52.012,6.463 C52.235,6.808 52.469,7.351 52.514,7.459 C53.116,8.845 53.447,10.511 53.496,12.405 L55.89,17.748 C56.157,18.278 56.127,18.943 55.791,19.487 C55.456,20.03 54.874,20.355 54.235,20.355 L53.03,20.355 L53.03,22.272 C53.03,25.057 51.021,27.381 48.376,27.871 L48.376,33.991 L48.375,33.991 Z M35.211,31.911 L46.295,31.911 L46.295,25.886 L47.335,25.886 C49.328,25.886 50.949,24.265 50.949,22.272 L50.949,18.274 L53.847,18.274 L51.423,12.867 L51.42,12.652 C51.396,10.944 51.12,9.473 50.602,8.279 C50.499,8.036 50.342,7.709 50.262,7.589 L50.227,7.533 C49.858,6.898 49.391,6.341 48.838,5.877 L48.787,5.831 C46.83,3.956 44.263,2.923 41.561,2.923 C35.793,2.923 31.101,7.616 31.101,13.383 C31.101,16.809 32.673,20.617 34.84,22.436 L35.211,22.747 L35.211,31.911 Z" id="Shape"></path>
            <path d="M34.633,79.037 C31.988,78.547 29.979,76.223 29.979,73.438 L29.979,71.52 L28.773,71.52 C28.135,71.52 27.552,71.195 27.217,70.652 C26.881,70.109 26.852,69.444 27.118,68.913 L29.512,63.57 C29.561,61.676 29.892,60.01 30.494,58.624 C30.54,58.516 30.773,57.973 30.996,57.628 C31.477,56.805 32.086,56.079 32.805,55.47 C35.148,53.237 38.216,52.008 41.447,52.008 C48.362,52.008 53.988,57.634 53.988,64.549 C53.988,68.409 52.316,72.563 49.878,74.864 L49.878,85.156 L34.633,85.156 L34.633,79.037 Z M47.798,73.914 L48.169,73.603 C50.336,71.784 51.908,67.976 51.908,64.55 C51.908,58.782 47.215,54.09 41.448,54.09 C38.745,54.09 36.179,55.123 34.222,56.998 L34.171,57.044 C33.618,57.508 33.151,58.065 32.782,58.7 L32.747,58.756 C32.667,58.876 32.51,59.203 32.407,59.446 C31.888,60.64 31.613,62.111 31.589,63.819 L31.586,64.034 L29.162,69.441 L32.06,69.441 L32.06,73.439 C32.06,75.432 33.681,77.053 35.674,77.053 L36.714,77.053 L36.714,83.078 L47.798,83.078 L47.798,73.914 Z" id="Shape"></path>
            <path d="M19.564,60.071 L4.319,60.071 L4.319,49.779 C1.88,47.478 0.209,43.324 0.209,39.464 C0.209,32.549 5.835,26.923 12.75,26.923 C15.98,26.923 19.048,28.153 21.392,30.385 C22.111,30.994 22.72,31.72 23.201,32.543 C23.424,32.888 23.658,33.431 23.703,33.539 C24.305,34.925 24.636,36.591 24.685,38.485 L27.079,43.828 C27.346,44.358 27.316,45.023 26.98,45.567 C26.645,46.11 26.063,46.435 25.424,46.435 L24.218,46.435 L24.218,48.352 C24.218,51.137 22.209,53.461 19.564,53.951 L19.564,60.071 Z M6.399,57.99 L17.483,57.99 L17.483,51.965 L18.523,51.965 C20.516,51.965 22.137,50.344 22.137,48.351 L22.137,44.353 L25.035,44.353 L22.611,38.946 L22.608,38.731 C22.584,37.023 22.308,35.552 21.79,34.358 C21.687,34.115 21.53,33.788 21.45,33.668 L21.415,33.612 C21.046,32.977 20.579,32.42 20.026,31.956 L19.975,31.91 C18.018,30.035 15.451,29.002 12.749,29.002 C6.981,29.002 2.289,33.695 2.289,39.462 C2.289,42.888 3.861,46.696 6.028,48.515 L6.399,48.826 L6.399,57.99 Z" id="Shape"></path>
            <path d="M18.32,70.952 C16.027,70.952 14.077,69.28 13.645,67.093 L17.294,67.071 L11.732,61.578 L6.237,67.139 L9.968,67.116 C10.44,71.298 14.044,74.593 18.319,74.593 L26.04,74.593 L26.04,70.952 L18.32,70.952 L18.32,70.952 Z" id="Shape"></path>
            <path d="M68.941,61.578 L68.941,66.184 C68.941,68.813 66.802,70.952 64.173,70.952 L60.23,70.952 L60.23,67.244 L54.703,72.772 L60.23,78.301 L60.23,74.593 L64.173,74.593 C68.81,74.593 72.582,70.821 72.582,66.185 L72.582,61.579 L68.941,61.579 L68.941,61.578 Z" id="Shape"></path>
            <path d="M72.568,20.063 C72.424,15.551 68.719,11.923 64.173,11.923 L57.149,11.923 L57.149,15.564 L64.173,15.564 C66.712,15.564 68.787,17.559 68.928,20.063 L65.233,20.063 L70.761,25.59 L76.29,20.063 L72.568,20.063 L72.568,20.063 Z" id="Shape"></path>
            <path d="M26.04,13.744 L20.513,8.215 L20.513,11.923 L18.32,11.923 C13.683,11.923 9.911,15.695 9.911,20.332 L9.911,25.59 L13.552,25.59 L13.552,20.332 C13.552,17.703 15.691,15.564 18.32,15.564 L20.513,15.564 L20.513,19.272 L26.04,13.744 Z" id="Shape"></path>
            <path d="M75.853,52.292 L75.853,57.902 L64.769,57.902 L64.769,51.877 L63.729,51.877 C61.736,51.877 60.115,50.256 60.115,48.263 L60.115,44.265 L57.217,44.265 L59.641,38.858 L59.644,38.643 C59.668,36.935 59.944,35.464 60.462,34.27 C60.565,34.027 60.722,33.7 60.802,33.58 L60.836,33.524 C61.205,32.889 61.672,32.332 62.225,31.868 L62.276,31.822 C64.233,29.947 66.8,28.914 69.502,28.914 C72.555,28.914 75.299,30.237 77.213,32.331 L79.871,32.331 C77.612,29.016 73.808,26.834 69.503,26.834 C66.273,26.834 63.205,28.064 60.862,30.296 C60.143,30.905 59.534,31.631 59.053,32.454 C58.83,32.799 58.596,33.342 58.551,33.45 C57.949,34.836 57.618,36.501 57.569,38.396 L55.175,43.739 C54.908,44.269 54.938,44.934 55.274,45.478 C55.609,46.022 56.191,46.346 56.829,46.346 L58.035,46.346 L58.035,48.263 C58.035,51.048 60.044,53.372 62.689,53.862 L62.689,59.982 L77.934,59.982 L77.934,52.291 L75.853,52.291 L75.853,52.292 Z" id="Shape"></path>
            <polygon id="Shape" points="72.221 39.501 75.337 36.922 77.544 42.399 90.009 30.686 89.794 33.695 75.915 48.222"></polygon>
            <polygon id="Shape" points="84.612 39.714 84.612 49.366 70.522 49.366 70.522 35.276 84.523 35.276 86.79 33.146 86.79 33.098 68.344 33.098 68.344 51.544 86.79 51.544 86.79 37.434"></polygon>
        </g>
    </g>
</svg>
