<svg width="40" height="40" xmlns="http://www.w3.org/2000/svg"><g fill="none" fill-rule="nonzero"><path d="M0 0h40v40H0z"/><path d="M3.836 16.744c-.921-.624-1.792-1.483-2.61-2.576C.41 13.075 0 12.06 0 11.123c0-1.16.309-2.126.926-2.9.617-.772 1.498-1.159 2.643-1.159h32.833c.966 0 1.803.35 2.509 1.048.706.7 1.06 1.54 1.06 2.521 0 1.175-.364 2.297-1.093 3.368a10.596 10.596 0 0 1-2.721 2.743c-5.591 3.881-9.071 6.298-10.439 7.25-.149.104-.465.33-.948.68-.483.35-.885.632-1.204.847-.32.216-.707.457-1.16.725a6.736 6.736 0 0 1-1.283.602c-.401.134-.773.2-1.115.2h-.045c-.342 0-.714-.066-1.115-.2a6.73 6.73 0 0 1-1.283-.602 23.14 23.14 0 0 1-1.16-.725c-.32-.215-.721-.498-1.204-.847-.484-.35-.8-.576-.948-.68-1.353-.952-3.301-2.309-5.844-4.071a1032.678 1032.678 0 0 1-4.573-3.179zm33.904 2.387a12.3 12.3 0 0 0 2.23-1.94V34.9c0 .981-.348 1.82-1.047 2.52-.7.699-1.54 1.048-2.52 1.048H3.568c-.982 0-1.822-.349-2.52-1.048C.348 36.722 0 35.882 0 34.9V17.19a11.815 11.815 0 0 0 2.253 1.94c5.383 3.658 9.078 6.223 11.086 7.695a52.825 52.825 0 0 0 2.063 1.461c.528.35 1.23.706 2.108 1.07.877.365 1.695.547 2.453.547h.045c.759 0 1.576-.182 2.453-.546.878-.365 1.58-.721 2.108-1.07.528-.35 1.216-.837 2.063-1.462 2.528-1.829 6.231-4.394 11.108-7.695z" fill="#000"/></g></svg>