<svg viewBox="0 0 68 82" version="1.1" xmlns="http://www.w3.org/2000/svg" xmlns:xlink="http://www.w3.org/1999/xlink">
    <g id="Page-1" stroke="none" stroke-width="1" fill="none" fill-rule="evenodd">
        <g id="Group" transform="translate(-1.000000, 0.000000)" fill="#000000">
            <path d="M54.956,56.158 L45.837,53.957 C44.384,53.606 41.946,52.728 41.946,50.78 L41.946,49.181 C42.548,47.518 43.626,46.055 44.764,44.51 C46.862,41.662 49.241,38.436 49.241,33.107 C49.241,24.194 41.989,16.943 33.077,16.943 C24.163,16.943 16.912,24.194 16.912,33.107 C16.912,38.475 19.393,41.816 21.581,44.763 C22.92,46.565 24.079,48.126 24.493,49.892 L24.493,50.877 C24.493,52.826 22.055,53.704 20.602,54.055 L11.482,56.256 C7.354,57.252 4.58,60.501 4.58,64.342 L4.58,78.073 L5.398,78.266 C14.268,80.363 23.627,81.426 33.219,81.426 C42.81,81.426 52.17,80.363 61.04,78.266 L61.858,78.073 L61.858,64.243 C61.859,60.403 59.085,57.154 54.956,56.158 Z M34.405,59.994 L36.126,73.202 L33.303,76.025 L33.093,76.025 L30.269,73.202 L31.991,59.994 L34.405,59.994 Z M34.788,55.967 L34.788,58.28 L34.491,58.577 L31.678,58.577 L31.381,58.28 L31.381,55.967 L34.788,55.967 Z M41.764,54.441 L39.552,59.727 L36.206,58.095 L36.206,55.718 L40.851,53.576 C41.108,53.888 41.413,54.176 41.764,54.441 Z M32.771,54.549 L28.341,34.902 C28.954,34.931 29.421,34.624 29.751,34.408 C29.806,34.373 29.878,34.325 29.936,34.291 C29.994,34.325 30.066,34.373 30.121,34.408 C30.439,34.617 30.876,34.904 31.471,34.904 C32.066,34.904 32.502,34.617 32.821,34.408 C32.876,34.373 32.948,34.325 33.007,34.291 C33.064,34.325 33.136,34.373 33.191,34.408 C33.509,34.617 33.947,34.904 34.542,34.904 C35.137,34.904 35.573,34.617 35.892,34.408 C35.947,34.373 36.019,34.325 36.077,34.291 C36.135,34.325 36.207,34.373 36.262,34.408 C36.591,34.625 37.072,34.931 37.672,34.902 L33.242,54.549 L32.771,54.549 Z M29.964,58.384 L27.155,59.754 L24.898,54.361 C25.208,54.103 25.483,53.831 25.71,53.535 L29.964,55.497 L29.964,58.384 Z M23.288,43.496 C21.198,40.683 19.038,37.772 19.038,33.107 C19.038,25.367 25.336,19.07 33.077,19.07 C40.817,19.07 47.115,25.367 47.115,33.107 C47.115,37.737 45.05,40.539 43.053,43.249 C41.832,44.904 40.571,46.616 39.877,48.659 L39.82,48.825 L39.82,50.78 C39.82,51.34 39.931,51.861 40.121,52.352 L35.424,54.517 L40.178,33.431 C40.315,32.828 40.032,32.391 39.721,32.182 C39.048,31.73 38.405,32.175 37.98,32.471 C37.876,32.542 37.709,32.659 37.584,32.733 C37.531,32.701 37.471,32.661 37.423,32.629 C37.104,32.42 36.667,32.133 36.072,32.133 C35.477,32.133 35.041,32.42 34.721,32.629 C34.667,32.664 34.595,32.712 34.536,32.746 C34.479,32.712 34.407,32.664 34.352,32.629 C34.034,32.42 33.596,32.133 33.002,32.133 C32.406,32.133 31.971,32.42 31.651,32.629 C31.596,32.664 31.524,32.712 31.466,32.746 C31.408,32.712 31.336,32.664 31.282,32.629 C30.963,32.42 30.526,32.133 29.931,32.133 C29.336,32.133 28.9,32.42 28.58,32.629 C28.529,32.662 28.465,32.705 28.426,32.736 C28.299,32.662 28.129,32.544 28.024,32.47 C27.598,32.174 26.952,31.727 26.282,32.182 C25.972,32.391 25.69,32.828 25.825,33.429 L30.506,54.186 L26.368,52.278 C26.516,51.836 26.614,51.373 26.614,50.877 L26.614,49.773 L26.591,49.548 C26.106,47.291 24.737,45.448 23.288,43.496 Z" id="Shape"></path>
            <path d="M33.026,14.075 C33.613,14.075 34.089,13.598 34.089,13.012 L34.089,1.636 C34.089,1.049 33.613,0.573 33.026,0.573 C32.439,0.573 31.963,1.05 31.963,1.636 L31.963,13.012 C31.964,13.599 32.439,14.075 33.026,14.075 Z" id="Shape"></path>
            <path d="M13.217,36.75 C13.212,36.166 12.737,35.696 12.154,35.696 C12.151,35.696 12.148,35.696 12.144,35.697 L2.021,35.788 C1.434,35.793 0.962,36.273 0.968,36.86 C0.973,37.444 1.448,37.914 2.031,37.914 C2.034,37.914 2.037,37.913 2.041,37.913 L12.164,37.822 C12.75,37.817 13.222,37.337 13.217,36.75 Z" id="Shape"></path>
            <path d="M67.97,35.414 L56.593,35.414 C56.005,35.414 55.53,35.891 55.53,36.477 C55.53,37.063 56.006,37.54 56.593,37.54 L67.97,37.54 C68.556,37.54 69.033,37.063 69.033,36.477 C69.033,35.891 68.556,35.414 67.97,35.414 Z" id="Shape"></path>
            <path d="M49.669,20.928 C49.94,20.928 50.213,20.824 50.421,20.616 L58.466,12.571 C58.881,12.156 58.881,11.482 58.466,11.067 C58.05,10.653 57.378,10.653 56.962,11.067 L48.917,19.112 C48.502,19.527 48.502,20.201 48.917,20.616 C49.125,20.823 49.397,20.928 49.669,20.928 Z" id="Shape"></path>
            <path d="M15.662,20.688 C15.87,20.895 16.141,21 16.413,21 C16.685,21 16.957,20.896 17.164,20.688 C17.58,20.273 17.58,19.599 17.164,19.184 L9.12,11.139 C8.705,10.725 8.032,10.725 7.617,11.139 C7.201,11.554 7.201,12.228 7.617,12.643 L15.662,20.688 Z" id="Shape"></path>
        </g>
    </g>
</svg>
