<svg viewBox="0 0 16 8" version="1.1" xmlns="http://www.w3.org/2000/svg" xmlns:xlink="http://www.w3.org/1999/xlink">
    <g id="infinite" stroke="none" stroke-width="1" fill="none" fill-rule="evenodd">
        <g id="noun_539236_cc" fill="#000000">
            <path d="M12.117,8 C10.547,8 9.237,6.829 8,5.492 C6.763,6.829 5.453,8 3.882,8 C1.742,8 -4.4408921e-16,6.206 -4.4408921e-16,4 C-4.4408921e-16,1.794 1.742,0 3.882,0 C5.453,0 6.763,1.171 8,2.508 C9.237,1.171 10.547,0 12.117,0 C14.258,0 16,1.794 16,4 C16,6.206 14.258,8 12.117,8 Z M9.346,4 C10.297,5.038 11.299,6 12.117,6 C13.155,6 14,5.103 14,4 C14,2.897 13.155,2 12.117,2 C11.299,2 10.297,2.962 9.346,4 Z M3.882,2 C2.844,2 2,2.897 2,4 C2,5.103 2.844,6 3.882,6 C4.701,6 5.703,5.038 6.654,4 C5.703,2.962 4.701,2 3.882,2 L3.882,2 Z" id="Shape"></path>
        </g>
    </g>
</svg>
