<svg viewBox="0 0 90 92" version="1.1" xmlns="http://www.w3.org/2000/svg" xmlns:xlink="http://www.w3.org/1999/xlink">
    <g id="iterate" class="slide-svg" stroke="none" stroke-width="1" fill="none" fill-rule="evenodd">
        <path d="M34.769,8.172 L25.96,6.455 L26.905,9.205 C11.64,15.761 0.918,30.932 0.918,48.57 C0.918,54.311 2.074,59.782 4.133,64.79 C2.734,66.009 1.843,67.798 1.843,69.795 C1.843,73.456 4.822,76.435 8.482,76.435 C12.142,76.435 15.121,73.456 15.121,69.795 C15.121,66.134 12.142,63.155 8.482,63.155 C7.898,63.155 7.334,63.238 6.794,63.381 C4.949,58.799 3.918,53.806 3.918,48.57 C3.918,32.245 13.796,18.196 27.884,12.053 L28.877,14.943 L34.769,8.172 Z M12.122,69.795 C12.122,71.802 10.49,73.435 8.483,73.435 C6.476,73.435 4.844,71.802 4.844,69.795 C4.844,67.788 6.476,66.155 8.483,66.155 C10.49,66.155 12.122,67.788 12.122,69.795 Z M86.111,54.763 C86.41,52.74 86.584,50.676 86.584,48.571 C86.584,27.184 70.823,9.423 50.309,6.256 C49.831,3.06 47.077,0.599 43.751,0.599 C40.09,0.599 37.112,3.578 37.112,7.239 C37.112,10.9 40.091,13.879 43.751,13.879 C46.711,13.879 49.223,11.931 50.077,9.25 C69.044,12.29 83.584,28.762 83.584,48.573 C83.584,50.448 83.435,52.286 83.18,54.091 L80.334,53.437 L82.966,62.018 L89.082,55.45 L86.111,54.763 Z M43.751,10.877 C41.744,10.877 40.112,9.244 40.112,7.237 C40.112,5.23 41.744,3.597 43.751,3.597 C45.758,3.597 47.39,5.23 47.39,7.237 C47.39,9.244 45.758,10.877 43.751,10.877 Z M79.021,63.155 C75.36,63.155 72.381,66.134 72.381,69.795 C72.381,71.524 73.051,73.097 74.139,74.279 C66.827,82.909 55.922,88.403 43.751,88.403 C34.926,88.403 26.771,85.507 20.162,80.631 L22.125,78.397 L13.324,76.637 L16.202,85.139 L18.178,82.89 C25.32,88.228 34.168,91.404 43.751,91.404 C56.947,91.404 68.752,85.391 76.615,75.977 C77.362,76.269 78.172,76.435 79.02,76.435 C82.68,76.435 85.659,73.456 85.659,69.795 C85.659,66.134 82.681,63.155 79.021,63.155 Z M79.021,73.435 C77.014,73.435 75.381,71.802 75.381,69.795 C75.381,67.788 77.014,66.155 79.021,66.155 C81.028,66.155 82.66,67.788 82.66,69.795 C82.66,71.802 81.027,73.435 79.021,73.435 Z" id="Shape" fill="#000000"></path>
    </g>
</svg>
