<svg width="40" height="40" xmlns="http://www.w3.org/2000/svg"><g fill="none" fill-rule="nonzero"><path d="M0 0h40v40H0z"/><path d="M39.918 24.438v14.758h-8.556v-13.77c0-3.459-1.237-5.82-4.334-5.82-2.364 0-3.771 1.591-4.39 3.13-.226.55-.284 1.316-.284 2.086v14.374h-8.558s.115-23.321 0-25.738h8.557v3.649c-.017.027-.04.056-.056.083h.056v-.083c1.137-1.752 3.168-4.253 7.713-4.253 5.63 0 9.852 3.678 9.852 11.584zM4.843 1.052C1.915 1.052 0 2.972 0 5.498c0 2.47 1.86 4.449 4.73 4.449h.057c2.984 0 4.84-1.978 4.84-4.45-.056-2.525-1.856-4.445-4.784-4.445zM.508 39.196h8.556V13.458H.508v25.738z" fill="#000"/></g></svg>