<svg viewBox="0 0 38 36" version="1.1" xmlns="http://www.w3.org/2000/svg" xmlns:xlink="http://www.w3.org/1999/xlink">
    <g id="Page-1" stroke="none" stroke-width="1" fill="none" fill-rule="evenodd">
        <g id="requirement" class="slide-svg" fill="#000000">
            <path d="M5.281,8.816 C7.704,8.816 9.676,6.845 9.676,4.423 C9.676,2 7.704,0.028 5.281,0.028 C2.859,0.028 0.888,1.999 0.888,4.423 C0.889,6.846 2.859,8.816 5.281,8.816 Z M5.281,2.029 C6.601,2.029 7.676,3.103 7.676,4.424 C7.676,5.743 6.602,6.817 5.281,6.817 C3.962,6.817 2.888,5.744 2.888,4.424 C2.889,3.104 3.962,2.029 5.281,2.029 Z" id="Shape"></path>
            <path d="M5.281,22.394 C7.704,22.394 9.676,20.423 9.676,17.999 C9.676,15.576 7.704,13.605 5.281,13.605 C2.859,13.605 0.888,15.576 0.888,17.999 C0.889,20.422 2.859,22.394 5.281,22.394 Z M5.281,15.605 C6.601,15.605 7.676,16.679 7.676,17.999 C7.676,19.319 6.602,20.394 5.281,20.394 C3.962,20.394 2.888,19.32 2.888,17.999 C2.889,16.679 3.962,15.605 5.281,15.605 Z" id="Shape"></path>
            <path d="M5.281,35.971 C7.704,35.971 9.676,34 9.676,31.576 C9.676,29.152 7.704,27.181 5.281,27.181 C2.859,27.181 0.888,29.152 0.888,31.576 C0.888,34 2.859,35.971 5.281,35.971 Z M5.281,29.182 C6.601,29.182 7.676,30.256 7.676,31.577 C7.676,32.898 6.602,33.972 5.281,33.972 C3.962,33.972 2.888,32.898 2.888,31.577 C2.888,30.256 3.962,29.182 5.281,29.182 Z" id="Shape"></path>
            <path d="M13.768,5.424 L36.112,5.424 C36.665,5.424 37.112,4.976 37.112,4.424 C37.112,3.872 36.665,3.424 36.112,3.424 L13.768,3.424 C13.215,3.424 12.768,3.872 12.768,4.424 C12.768,4.976 13.215,5.424 13.768,5.424 Z" id="Shape"></path>
            <path d="M13.768,32.576 L36.112,32.576 C36.665,32.576 37.112,32.128 37.112,31.576 C37.112,31.024 36.665,30.576 36.112,30.576 L13.768,30.576 C13.215,30.576 12.768,31.024 12.768,31.576 C12.768,32.128 13.215,32.576 13.768,32.576 Z" id="Shape"></path>
            <path d="M13.768,18.999 L36.112,18.999 C36.665,18.999 37.112,18.551 37.112,17.999 C37.112,17.447 36.665,16.999 36.112,16.999 L13.768,16.999 C13.215,16.999 12.768,17.447 12.768,17.999 C12.768,18.551 13.215,18.999 13.768,18.999 Z" id="Shape"></path>
        </g>
    </g>
</svg>
